<svg version="1.0" xmlns="http://www.w3.org/2000/svg" width="150.667" height="150.667" viewBox="0 0 113 113"><path d="M58.9.4c-.2.2-2.4.6-4.9.9-4.2.5-13.9 3.7-16.7 5.5-2.5 1.6-4.1 6.3-3.6 11 .2 2.6.5 5.8.6 7.2l.2 2.5h-12c-13.3 0-15.4.7-18 6.1-2 4.3-1.9 6.9.7 11.5 2 3.5 2 4 .5 6.2-.8 1.3-1.8 4-2.2 5.9-.5 2.9-.2 4 1.8 6.4 2.3 2.6 3.1 2.9 8.8 2.9 5.1 0 7.1-.5 9.6-2.3l3.2-2.2 2.5 2.4c2 2.1 3.2 2.5 6.5 2.1 2.8-.3 4.1 0 4.1.8 0 .7.3 2.2.6 3.4.6 2.2.3 2.3-4.5 2.3-11.8 0-17.8 7.9-13.2 17.3l2.1 4.4-2 4.5c-1.1 2.4-1.7 5.6-1.5 6.9.5 2.8 3.7 5.7 7.1 6.5 3.2.8 10.7-.4 12.9-2 1.6-1.1 2.4-1 5.2.7 2.8 1.6 4.3 1.8 8.1 1.2 2.6-.4 5.6-.7 6.7-.7 16.1.7 21.9.5 23.8-.5 1.7-.9 2.8-.8 5.1.4 3.2 1.7 10.7 1.3 16.4-.7l3.2-1.2V59l-5.1.5c-2.9.3-6 .7-7.1 1.1-2.3.7-3.8 4.3-3.8 8.8 0 2.5-.6 3.5-2.5 4.4-3.6 1.7-3.6 1.7-3.2-3.1.4-4.2-.9-8.7-2.5-8.7-1.5 0-.8-2.1 2.3-6.6 8.8-12.8 11.8-26.2 8.5-37.7C93.1 5.7 85.5.9 69.4.3 63.9.2 59.1.2 58.9.4z"/></svg>