<?xml version="1.0" standalone="no"?>
<!DOCTYPE svg PUBLIC "-//W3C//DTD SVG 20010904//EN"
 "http://www.w3.org/TR/2001/REC-SVG-20010904/DTD/svg10.dtd">
<svg version="1.0" xmlns="http://www.w3.org/2000/svg"
 width="113.000000pt" height="113.000000pt" viewBox="0 0 113.000000 113.000000"
 preserveAspectRatio="xMidYMid meet">
<metadata>
Created by potrace 1.14, written by Peter Selinger 2001-2017
</metadata>
<g transform="translate(0.000000,113.000000) scale(0.100000,-0.100000)"
fill="#000000" stroke="none">
<path d="M589 1126 c-2 -2 -24 -6 -49 -9 -42 -5 -139 -37 -167 -55 -25 -16
-41 -63 -36 -110 2 -26 5 -58 6 -72 l2 -25 -120 0 c-133 0 -154 -7 -180 -61
-20 -43 -19 -69 7 -115 20 -35 20 -40 5 -62 -8 -13 -18 -40 -22 -59 -5 -29 -2
-40 18 -64 23 -26 31 -29 88 -29 51 0 71 5 96 23 l32 22 25 -24 c20 -21 32
-25 65 -21 28 3 41 0 41 -8 0 -7 3 -22 6 -34 6 -22 3 -23 -45 -23 -118 0 -178
-79 -132 -173 l21 -44 -20 -45 c-11 -24 -17 -56 -15 -69 5 -28 37 -57 71 -65
32 -8 107 4 129 20 16 11 24 10 52 -7 28 -16 43 -18 81 -12 26 4 56 7 67 7
161 -7 219 -5 238 5 17 9 28 8 51 -4 32 -17 107 -13 164 7 l32 12 0 254 0 254
-51 -5 c-29 -3 -60 -7 -71 -11 -23 -7 -38 -43 -38 -88 0 -25 -6 -35 -25 -44
-36 -17 -36 -17 -32 31 4 42 -9 87 -25 87 -15 0 -8 21 23 66 88 128 118 262
85 377 -35 120 -111 168 -272 174 -55 1 -103 1 -105 -1z"/>
</g>
</svg>
