<?xml version="1.0" encoding="UTF-8" standalone="no"?>
<!-- Created with Inkscape (http://www.inkscape.org/) -->

<svg
   width="50mm"
   height="50mm"
   viewBox="0 0 50 50"
   version="1.1"
   id="svg1"
   inkscape:version="1.3.2 (091e20ef0f, 2023-11-25)"
   sodipodi:docname="svg2solid.svg"
   inkscape:export-filename="svg2solid.png"
   inkscape:export-xdpi="60"
   inkscape:export-ydpi="60"
   xmlns:inkscape="http://www.inkscape.org/namespaces/inkscape"
   xmlns:sodipodi="http://sodipodi.sourceforge.net/DTD/sodipodi-0.dtd"
   xmlns="http://www.w3.org/2000/svg"
   xmlns:svg="http://www.w3.org/2000/svg">
  <sodipodi:namedview
     id="namedview1"
     pagecolor="#ffffff"
     bordercolor="#666666"
     borderopacity="1.0"
     inkscape:showpageshadow="2"
     inkscape:pageopacity="0.0"
     inkscape:pagecheckerboard="true"
     inkscape:deskcolor="#d1d1d1"
     inkscape:document-units="mm"
     inkscape:zoom="4.0872334"
     inkscape:cx="88.690799"
     inkscape:cy="99.945356"
     inkscape:window-width="2538"
     inkscape:window-height="1387"
     inkscape:window-x="8"
     inkscape:window-y="8"
     inkscape:window-maximized="1"
     inkscape:current-layer="layer1" />
  <defs
     id="defs1">
    <rect
       x="-45.516754"
       y="0.88342857"
       width="87.795021"
       height="63.975795"
       id="rect2" />
    <rect
       x="199.40019"
       y="292.48999"
       width="362.56128"
       height="149.03877"
       id="rect1" />
    <rect
       x="199.40019"
       y="292.48999"
       width="362.56128"
       height="149.03877"
       id="rect1-4" />
    <rect
       x="199.40019"
       y="292.48999"
       width="362.56128"
       height="149.03877"
       id="rect1-6" />
  </defs>
  <g
     inkscape:groupmode="layer"
     id="layer2"
     inkscape:label="bg" />
  <g
     inkscape:label="Layer 1"
     inkscape:groupmode="layer"
     id="layer1">
    <g
       id="g4"
       transform="matrix(0.92185917,0,0,0.92185917,1.9646447,1.9445373)"
       style="stroke-width:1.08476">
      <path
         id="path2"
         style="font-weight:bold;font-size:40px;line-height:1.25;font-family:'Yanone Kaffeesatz';-inkscape-font-specification:'Yanone Kaffeesatz Bold';white-space:pre;fill:#ffffff;stroke-width:0.28701"
         d="m 28.955078,-1.0097656 c -4.39229,0.31345003 -8.99629,0.8000328 -12.828125,3.1523437 -1.344626,0.9686662 -2.054456,2.6977168 -1.750805,4.330974 0.06587,1.7395015 0.258599,3.4977218 0.848461,5.1455889 -1.010825,-0.04662 -2.020611,0.07325 -3.033441,0.01528 -0.678583,-0.01879 -1.365791,0.240088 -2.00142,0.297893 C 7.9878265,11.027946 5.4251731,11.21258 3.2449409,12.076761 0.97891671,13.136849 -0.20874424,15.940842 0.57007979,18.313736 0.96935533,19.729194 1.904405,20.915052 2.9101562,21.957031 2.3432865,21.50044 1.9154076,21.50139 1.7106794,22.249943 c -0.92937875,1.58735 -1.85595783,3.611658 -0.93945886,5.411691 0.95563206,1.807345 3.21540296,2.226481 5.08266146,2.151115 2.1178113,0.0832 4.289925,-0.884403 5.538696,-2.617437 0.333824,1.530857 1.843771,2.594006 3.385878,2.513788 0.856799,-0.0042 1.70956,-0.131884 2.561388,-0.207147 -0.05374,0.961853 0.16589,1.942723 0.642578,2.78125 -0.138609,0.605947 -0.556233,0.556024 -1.050781,0.398438 -2.122491,-0.32349 -4.467735,-0.06218 -6.258986,1.189767 -2.0945502,1.603675 -2.5379707,4.791592 -1.172091,7.004605 0.4683241,0.847711 1.110828,1.58273 1.778733,2.278284 -0.559516,-0.464976 -0.979075,-0.449712 -1.189097,0.290203 -0.9389316,1.58977 -1.8733817,3.625647 -0.9491597,5.431597 0.9805417,1.837926 3.2948217,2.240773 5.1936647,2.138528 1.720504,0.0066 3.459251,-0.607549 4.733654,-1.760719 1.498878,1.63839 3.965791,2.061597 6.086286,1.626606 0.908513,-0.158014 1.794528,-0.495049 2.513324,-1.083637 0.453495,0.866398 1.525053,1.194682 2.43044,0.951708 1.028891,0.0164 2.112062,0.08149 3.083232,-0.258349 0.895275,0.601511 2.00718,0.115404 3.000389,0.273011 1.099082,0.02193 2.370952,-0.169547 3.066017,-1.120667 2.046307,1.758464 5.010656,1.595263 7.462226,0.950581 1.005355,-0.268695 1.961111,-0.687075 2.934258,-1.05019 V 26.267578 c -2.026277,0.405764 -4.321934,-0.35159 -6.133425,0.91063 -1.339821,0.984316 -1.215754,2.834061 -1.151298,4.313132 -0.09141,0.417794 0.255636,1.243749 -0.404983,1.164842 -0.829287,0.168157 -1.613713,0.552692 -2.263419,1.093818 -0.02861,-0.459432 -0.339455,-0.81482 -0.09998,-1.261808 0.453711,-1.782049 0.350222,-4.069834 -1.288984,-5.228559 -0.618219,-0.195825 -0.380358,-0.516172 -0.01869,-0.920647 2.693685,-3.811783 5.326122,-7.983259 5.777708,-12.741339 C 44.420283,9.9880014 43.80709,6.1014948 41.605819,3.1370339 39.71656,0.70912664 36.681388,-0.51569087 33.688358,-0.82080948 32.121022,-1.0358833 30.534104,-1.043078 28.955078,-1.0097656 Z"
         sodipodi:nodetypes="cccccccccccccccccccccccccccccccccccccccccccc" />
      <g
         id="g2"
         transform="translate(-1.1724881,0.64714607)"
         style="stroke-width:1.08476">
        <path
           style="font-weight:bold;font-size:40px;line-height:1.25;font-family:'Yanone Kaffeesatz';-inkscape-font-specification:'Yanone Kaffeesatz Bold';white-space:pre;fill:#e01b24;stroke-width:0.28701"
           d="M 18.710025,11.035559 Q 17.941936,9.3457635 17.788319,7.5791595 17.634702,5.7357458 17.634702,4.7372302 q 0,-0.9217068 1.152136,-1.689796 1.22894,-0.7680888 3.149164,-1.305751 1.99703,-0.6144712 4.454915,-0.92170686 2.457886,-0.38404449 5.069388,-0.38404449 6.528756,0 9.140257,2.76512045 2.611504,2.7651203 2.611504,8.0649347 0,3.4564 -1.459369,6.528758 -1.459374,3.072353 -3.686833,6.22152 -2.227456,3.149164 -5.069387,6.682373 -2.76512,3.4564 -5.376622,7.7577 h 5.683859 q 2.381074,0 4.301298,-0.07681 1.997033,-0.153618 3.379592,-0.307236 1.612984,-0.230426 2.841928,-0.460854 0,2.688311 -0.07681,4.454918 0,1.689794 -0.230429,2.688311 -0.153617,0.998515 -0.614471,1.382559 -0.384044,0.384043 -1.075325,0.384043 H 16.482575 q -0.230426,-0.691278 -0.307238,-1.459368 0,-0.768089 0,-0.921708 0,-0.998515 0.07681,-1.766605 0.07683,-0.844898 0.307235,-1.536177 0.230428,-0.768088 0.614472,-1.536177 0.384043,-0.844898 0.998513,-1.99703 2.381077,-4.22449 5.069389,-7.680892 2.688312,-3.533209 4.91577,-6.451947 2.227461,-2.918737 3.686828,-5.453431 1.459368,-2.611504 1.459368,-4.992578 0,-1.997034 -1.228941,-2.995549 -1.228944,-1.0753243 -3.302783,-1.0753243 -0.921707,0 -2.227459,0.1536203 -1.305752,0.1536192 -2.76512,0.4608525 -1.38256,0.3072363 -2.765122,0.7680905 -1.30575,0.384042 -2.304266,0.921704 z"
           id="text1-5"
           aria-label="2" />
        <path
           style="font-weight:bold;font-size:40px;line-height:1.25;font-family:'Yanone Kaffeesatz';-inkscape-font-specification:'Yanone Kaffeesatz Bold';white-space:pre;stroke-width:0.287009"
           d="m 16.530072,34.033048 q 1.149888,0 1.806966,0.19164 0.684456,0.164269 1.012996,0.438053 0.355918,0.246405 0.438053,0.547563 0.109507,0.301163 0.109507,0.547568 0,0.355916 -0.164271,0.766591 -0.164269,0.410674 -0.438052,0.711835 -0.547565,-0.301161 -1.149886,-0.438052 -0.574944,-0.136899 -1.204645,-0.136899 -1.286779,0 -1.286779,0.821349 0,0.219034 0.109507,0.520185 0.136893,0.301162 0.684457,0.848726 l 2.025993,2.053371 q 0.410675,0.46543 0.657078,0.876106 0.273783,0.410673 0.438053,0.79397 0.16427,0.383295 0.219027,0.821349 0.05476,0.410673 0.05476,0.93086 0,1.861724 -1.259401,2.902097 -1.232023,1.040374 -3.340149,1.040374 -0.65708,0 -1.259402,-0.08214 -0.574943,-0.08214 -1.012995,-0.246406 -0.410675,-0.191639 -0.684457,-0.49281 -0.246405,-0.328539 -0.246405,-0.793972 0,-0.328539 0.109507,-0.766589 0.109507,-0.465432 0.383296,-0.958241 0.574944,0.301163 1.177266,0.465432 0.6297,0.136904 1.204644,0.136904 0.711835,0 1.040374,-0.301162 0.355918,-0.328539 0.355918,-0.848725 0,-0.301161 -0.109506,-0.684459 -0.08213,-0.383291 -0.492807,-0.848721 l -2.381905,-2.518792 q -0.711835,-0.76659 -1.012995,-1.533181 -0.301162,-0.766591 -0.301162,-1.368914 0,-0.711833 0.219027,-1.341536 0.246405,-0.629701 0.766592,-1.067753 0.520187,-0.465431 1.368914,-0.711835 0.876105,-0.273782 2.162883,-0.273782 z m 4.106762,7.090972 q 0,-3.723444 1.177265,-5.393517 1.177267,-1.697455 3.36753,-1.697455 1.095129,0 1.889101,0.328539 0.821349,0.301162 1.341534,1.09513 0.520187,0.793972 0.766591,2.135505 0.273783,1.341536 0.273783,3.422286 0,1.971236 -0.30116,3.367528 -0.273783,1.368912 -0.848727,2.245019 -0.547566,0.848726 -1.396292,1.259399 -0.848727,0.383297 -1.943857,0.383297 -1.122509,0 -1.943858,-0.273783 -0.793969,-0.246404 -1.341536,-0.985616 -0.520187,-0.766594 -0.79397,-2.162887 -0.246404,-1.42367 -0.246404,-3.723445 z m 3.367527,-0.02736 q 0,1.615316 0.05477,2.54618 0.08213,0.903484 0.191647,1.368912 0.136887,0.465432 0.328538,0.602324 0.219027,0.109507 0.465431,0.109507 0.191648,0 0.383297,-0.109507 0.191646,-0.136903 0.328538,-0.602324 0.136887,-0.492809 0.219029,-1.396292 0.109506,-0.930861 0.109506,-2.5188 0,-1.478426 -0.05477,-2.354531 -0.02739,-0.876104 -0.164269,-1.341537 -0.109507,-0.46543 -0.301163,-0.602319 -0.191644,-0.136905 -0.492808,-0.136905 -0.219025,0 -0.438051,0.164269 -0.191648,0.136905 -0.32854,0.602322 -0.136888,0.46543 -0.219026,1.341535 -0.08213,0.876104 -0.08213,2.327153 z m 9.801423,6.35176 q 0,0.219034 -0.05476,0.328539 -0.05477,0.109507 -0.355918,0.164268 -0.273782,0.02736 -0.903483,0.05476 -0.602321,0 -1.752209,0 v -18.7815 q 0,-0.49281 0.109507,-0.766592 0.136904,-0.273782 0.465432,-0.383296 0.355915,-0.136905 0.958241,-0.164268 0.602319,-0.02736 1.533182,-0.02736 z m 4.928076,0 q 0,0.219034 -0.05476,0.328539 -0.05476,0.109507 -0.355916,0.164268 -0.273781,0.02736 -0.930862,0.05476 -0.629701,0 -1.779587,0 V 35.648385 q 0,-0.49281 0.136905,-0.766593 0.136904,-0.273782 0.465429,-0.383295 0.355918,-0.136905 0.958241,-0.164268 0.602321,-0.02736 1.56056,-0.02736 z M 35.749629,30.309611 q 0,-0.958241 0.383296,-1.533185 0.410673,-0.602322 1.286779,-0.602322 0.848726,0 1.149888,0.438052 0.30116,0.438052 0.30116,1.560563 0,1.122509 -0.438052,1.752207 -0.410675,0.602324 -1.204644,0.602324 -0.684458,0 -1.095131,-0.46543 -0.383296,-0.465434 -0.383296,-1.752209 z m 9.883565,6.488651 q -0.219035,-0.136905 -0.574944,-0.136905 -0.219034,0 -0.46543,0.109507 -0.219036,0.109507 -0.410676,0.574944 -0.191638,0.46543 -0.328539,1.423668 -0.136905,0.930863 -0.136905,2.628315 0,1.232022 0.05476,2.025994 0.05477,0.79397 0.164268,1.286779 0.136904,0.465429 0.328539,0.657078 0.191639,0.191639 0.465432,0.191639 0.547562,0 0.903482,-0.27378 z m 0,-7.583784 q 0,-0.492809 0.109507,-0.766592 0.136905,-0.273782 0.46543,-0.383297 0.328541,-0.136904 0.930861,-0.164269 0.602322,-0.02736 1.560563,-0.02736 v 19.575468 q -0.711837,0.301162 -1.697454,0.547565 -0.958238,0.273783 -2.299775,0.273783 -0.876104,0 -1.670075,-0.191639 -0.793969,-0.19164 -1.42367,-0.876107 -0.602323,-0.684455 -0.985618,-1.943857 -0.355919,-1.286778 -0.355919,-3.477042 0,-2.108128 0.273786,-3.586551 0.301158,-1.478428 0.793966,-2.381911 0.52019,-0.930864 1.204646,-1.341537 0.684456,-0.438052 1.478426,-0.438052 0.547568,0 0.958241,0.136904 0.410674,0.136904 0.657078,0.355917 z"
           id="text1-2"
           aria-label="solid" />
        <path
           style="font-weight:bold;font-size:40px;line-height:1.25;font-family:'Yanone Kaffeesatz';-inkscape-font-specification:'Yanone Kaffeesatz Bold';white-space:pre;stroke-width:0.287009"
           d="m 8.1628362,12.823165 q 1.149888,0 1.806966,0.191646 0.6844578,0.164271 1.0129978,0.438053 0.355917,0.246405 0.438051,0.547565 0.109519,0.301162 0.109519,0.547566 0,0.355917 -0.164271,0.766592 -0.164268,0.410674 -0.438052,0.711835 -0.547563,-0.30116 -1.1498858,-0.438051 -0.574944,-0.136893 -1.204645,-0.136893 -1.286778,0 -1.286778,0.821348 0,0.219027 0.109506,0.520187 0.136893,0.301161 0.684457,0.848728 l 2.0259918,2.05337 q 0.410674,0.465432 0.657079,0.876105 0.273783,0.410676 0.438053,0.793971 0.164271,0.383294 0.219028,0.821349 0.05476,0.410675 0.05476,0.930859 0,1.861724 -1.259403,2.902098 -1.2320228,1.040375 -3.3401498,1.040375 -0.657079,0 -1.259401,-0.08213 -0.574942,-0.08213 -1.012995,-0.246404 -0.410674,-0.191641 -0.684457,-0.49281 -0.246404,-0.328538 -0.246404,-0.79397 0,-0.328539 0.109511,-0.766591 0.109511,-0.465433 0.383296,-0.958241 0.574944,0.301163 1.177266,0.465431 0.6297,0.136904 1.204643,0.136904 0.711836,0 1.040376,-0.301162 0.355917,-0.328539 0.355917,-0.848726 0,-0.301162 -0.109507,-0.684458 -0.08213,-0.383297 -0.492809,-0.848729 l -2.381918,-2.518821 q -0.711835,-0.766592 -1.012996,-1.533184 -0.301161,-0.766591 -0.301161,-1.368913 0,-0.711835 0.219027,-1.341536 0.246404,-0.629701 0.766591,-1.067753 0.520187,-0.465431 1.368914,-0.711835 0.876104,-0.273782 2.162883,-0.273782 z m 3.9698718,1.177265 q -0.08215,-0.328539 -0.05476,-0.520188 0.02737,-0.191647 0.32854,-0.273782 0.328539,-0.08213 1.040374,-0.08213 0.711836,-0.02739 2.025992,-0.02739 l 0.492811,3.942471 q 0.109507,0.876105 0.191647,2.025994 0.109507,1.122507 0.191647,2.135504 0.109507,1.177266 0.164268,2.381911 h 0.05476 q 0.05477,-1.204645 0.164267,-2.381911 0.05476,-1.012997 0.136888,-2.135504 0.109507,-1.149889 0.219027,-2.025994 l 0.383295,-3.340149 q 0.02739,-0.219028 0.08214,-0.328539 0.08213,-0.136892 0.383295,-0.191648 0.301162,-0.05476 0.930863,-0.05476 0.657077,-0.02737 1.834343,-0.02737 l -2.737822,13.689139 q -0.465432,0.08213 -1.12251,0.109507 -0.657079,0.02736 -1.095132,0.02736 -0.602321,0 -0.876105,-0.383294 -0.273792,-0.410668 -0.410683,-0.985613 z m 13.579611,-1.177265 q 0.657077,0 1.368915,0.246404 h 3.258013 q 0.136904,0.246405 0.219034,0.629701 0.109507,0.355917 0.109507,0.876104 0,0.602323 -0.273783,0.876105 -0.273782,0.246405 -0.684456,0.246405 -0.136905,0 -0.273784,0 -0.136904,-0.02737 -0.301158,-0.05476 0.301158,0.465431 0.465426,1.067754 0.191641,0.60232 0.191641,1.39629 0,2.217642 -1.040376,3.340151 -1.012994,1.122507 -3.394905,1.122507 -0.219035,0 -0.383298,0 -0.164268,0 -0.355915,-0.02736 -0.32854,0.465434 -0.32854,0.766593 0,0.328538 0.684455,0.383296 0.684457,0.02736 1.670075,0.191639 1.752212,0.301162 2.683072,1.040376 0.93086,0.739212 0.93086,2.354532 0,1.012995 -0.301159,1.889101 -0.273784,0.903483 -0.903482,1.560562 -0.629701,0.657078 -1.615319,1.040373 -0.98562,0.383297 -2.38191,0.383297 -1.396293,0 -2.272397,-0.301163 -0.876105,-0.273781 -1.368915,-0.711833 -0.465431,-0.438055 -0.6297,-0.985618 -0.164269,-0.547568 -0.164269,-1.067752 0,-0.958241 0.49281,-1.752213 0.520186,-0.766587 1.341535,-1.341532 -0.711834,-0.219036 -1.122507,-0.602321 -0.383297,-0.383297 -0.328541,-0.95824 0.02736,-0.574944 0.410674,-1.204645 0.410675,-0.6297 1.286777,-1.341536 -0.876102,-0.602321 -1.259399,-1.615319 -0.355916,-1.040374 -0.355916,-2.354531 0,-1.45105 0.301159,-2.436668 0.328538,-0.985618 0.930863,-1.560561 0.602321,-0.602323 1.451047,-0.848727 0.876106,-0.246405 1.943859,-0.246405 z m -0.136887,2.162884 q -0.547565,0 -0.903483,0.602322 -0.32854,0.574943 -0.32854,2.190262 0,1.451048 0.246404,1.998613 0.246405,0.520189 0.903483,0.520189 0.301162,0 0.52019,-0.109507 0.246405,-0.136904 0.383293,-0.465429 0.164269,-0.32854 0.219036,-0.903483 0.08213,-0.602323 0.08213,-1.533185 0,-1.314156 -0.246405,-1.806966 -0.246404,-0.492808 -0.876104,-0.492808 z m 1.560562,12.730896 q 0,-0.328536 -0.08213,-0.547565 -0.05477,-0.219035 -0.301163,-0.383294 -0.219035,-0.164268 -0.68446,-0.273785 -0.438049,-0.109507 -1.232021,-0.191639 -0.465429,0.355918 -0.766591,0.848726 -0.273782,0.520189 -0.273782,1.122511 0,0.520185 0.32854,0.793971 0.328538,0.273782 1.259399,0.273782 0.49281,0 0.821347,-0.164268 0.355919,-0.164268 0.547568,-0.410675 0.219034,-0.246404 0.301158,-0.547566 0.08215,-0.273782 0.08215,-0.520186 z"
           id="text1"
           aria-label="svg" />
      </g>
    </g>
  </g>
</svg>
