<?xml version="1.0" encoding="UTF-8" standalone="no"?>
<!-- Created with Inkscape (http://www.inkscape.org/) -->

<svg
   width="50mm"
   height="50mm"
   viewBox="0 0 50 50"
   version="1.1"
   id="svg1"
   xml:space="preserve"
   xmlns="http://www.w3.org/2000/svg"
   xmlns:svg="http://www.w3.org/2000/svg"><defs
     id="defs1"><rect
       x="277.44387"
       y="173.21234"
       width="206.40939"
       height="45.40159"
       id="rect3" /><rect
       x="-45.516754"
       y="0.88342857"
       width="87.795021"
       height="63.975796"
       id="rect2" /><rect
       x="199.40019"
       y="292.48999"
       width="362.56128"
       height="149.03877"
       id="rect1" /><rect
       x="199.40019"
       y="292.48999"
       width="362.56128"
       height="149.03877"
       id="rect1-4" /><rect
       x="199.40019"
       y="292.48999"
       width="362.56128"
       height="149.03877"
       id="rect1-6" /></defs><g
     id="layer1"><g
       id="g32"
       transform="matrix(0.86135446,0,0,0.86135446,-58.550842,3.2495684)"
       style="stroke-width:1.16096"><path
         id="path31"
         style="font-weight:bold;font-size:12.2835px;line-height:1.25;font-family:'Yanone Kaffeesatz';-inkscape-font-specification:'Yanone Kaffeesatz Bold';white-space:pre;fill:#ffffff;stroke-width:0.307171"
         d="m 101.00934,-3.7589437 c -4.049056,0.2889553 -8.293244,0.7372774 -11.825636,2.9057658 -1.239551,0.89296932 -1.893779,2.4868958 -1.613855,3.9925212 0.06072,1.6035674 0.238099,3.2242877 0.781864,4.7433797 C 87.41988,7.839743 86.489185,7.950632 85.555501,7.897192 84.929948,7.879872 84.296092,8.118306 83.710136,8.1715938 81.680285,7.337896 79.3178,7.508271 77.307943,8.3049194 75.218998,9.2821666 74.124498,11.866975 74.84246,14.054439 c 0.368075,1.304845 1.229817,2.397899 2.156974,3.358452 -0.522571,-0.420913 -0.91663,-0.419791 -1.105358,0.270267 -0.856754,1.463305 -1.710978,3.329476 -0.866097,4.988843 0.880953,1.666111 2.964159,2.052302 4.685502,1.982825 1.952314,0.0767 3.954445,-0.815168 5.105631,-2.412773 0.307739,1.411227 1.699656,2.39112 3.121257,2.317171 0.789843,-0.0039 1.575835,-0.121304 2.361096,-0.190686 -0.04954,0.88669 0.15329,1.790666 0.592729,2.563668 -0.127778,0.558595 -0.513033,0.512692 -0.968934,0.36742 -1.956628,-0.298212 -4.118402,-0.05754 -5.769673,1.096574 -1.930871,1.478353 -2.339698,4.41741 -1.080554,6.457487 0.431724,0.781465 1.023982,1.45893 1.639693,2.10013 -0.515795,-0.428643 -0.902448,-0.41441 -1.096057,0.267684 -0.86556,1.465534 -1.726883,3.342107 -0.874882,5.006929 0.248642,0.466058 0.595691,0.824238 0.996838,1.107943 l -2.059306,0.304891 c -0.399653,0.176587 -0.625086,0.776224 -1.09554,0.583944 -0.871115,-0.16433 -1.712081,0.130248 -2.570903,0.01654 -1.056466,0.127815 -2.104588,-0.05763 -3.161564,0.05943 -1.038715,-0.211721 -2.194975,-0.27143 -3.132625,0.325561 -1.404559,0.731244 -1.716061,2.713055 -0.800985,3.94808 -0.818647,1.1339 -0.647625,3.140386 0.839225,3.6189 1.06278,0.384502 2.310062,0.309738 3.279904,-0.290938 0.404381,0.41628 1.063678,0.457816 1.562178,0.525549 0.59476,1.672544 2.687104,2.172437 4.234367,1.648479 0.861801,-0.280993 1.653883,-0.89587 1.990576,-1.755966 1.011068,0.03237 2.028861,0.02883 3.029273,-0.06459 0.931622,0.321321 1.996023,0.196482 2.859257,-0.269234 0.877611,0.547425 2.028707,0.581837 2.970878,0.183451 0.980113,0.407226 2.057035,0.0092 3.077848,0.161747 0.454393,0.06005 0.925413,-0.159268 1.330151,-0.180351 0.957728,0.474294 2.081797,0.223893 3.04891,0.05374 0.894791,0.371618 1.855581,0.01799 2.783291,0.132808 0.77222,-0.105222 1.52846,0.03872 2.31045,-0.0041 2.04447,-0.04389 4.09218,0.01795 6.13296,-0.03101 0.40882,-0.01889 0.75457,-0.325163 1.125,-0.0078 0.67667,0.263376 1.43588,0.09904 2.08566,-0.04289 0.65154,0.238936 1.38183,0.154565 2.00763,-0.12144 1.07655,0.505551 2.32812,0.293016 3.40858,-0.08785 1.32343,0.669854 3.25564,0.510066 4.17959,-0.744141 0.64342,-0.96165 0.0571,-2.108465 0.35398,-3.150195 0.25239,-1.397746 -0.17271,-3.084321 -1.55701,-3.730522 -0.59531,-0.276562 -1.30297,-0.354233 -1.93373,-0.189652 v -1.368909 c 0.0145,-0.0054 0.0289,-0.01113 0.0434,-0.01654 V 21.386808 c -1.86794,0.374054 -3.98399,-0.324359 -5.65392,0.839226 -1.23512,0.907395 -1.12086,2.613014 -1.06144,3.976501 -0.0843,0.385147 0.23537,1.14606 -0.37362,1.073319 -0.76449,0.155017 -1.48726,0.509884 -2.08617,1.008724 -0.0264,-0.423529 -0.31327,-0.751176 -0.0925,-1.163236 0.41825,-1.642788 0.32307,-3.751685 -1.18804,-4.819861 -0.56991,-0.18052 -0.35095,-0.476178 -0.0176,-0.849044 2.48319,-3.51391 4.90999,-7.359276 5.32629,-11.745536 0.33078,-3.3275662 -0.23419,-6.9105371 -2.26342,-9.64333899 -1.74163,-2.23817761 -4.53965,-3.36708131 -7.29878,-3.64835611 -1.44486,-0.1982669 -2.90793,-0.2048588 -4.36356,-0.1741496 z m 1.22835,1.9290812 c 4.01236,0 6.82141,0.84983924 8.42636,2.54919844 1.60493,1.69935916 2.40708,4.17758166 2.40708,7.43468836 0,2.1241967 -0.44824,4.1305727 -1.34513,6.0187537 -0.89689,1.888174 -2.02983,3.799668 -3.39876,5.735051 -1.16287,1.644048 -2.49154,3.392036 -3.92689,5.2064 v 8.101315 c 0.57244,-0.0021 1.13835,-0.0048 1.66553,-0.01447 v -2.569869 c 0,-0.302866 0.0419,-0.538676 0.12609,-0.706933 0.0841,-0.168259 0.22753,-0.286164 0.42943,-0.353467 0.21874,-0.08414 0.51298,-0.134596 0.88315,-0.151412 0.37017,-0.01681 0.84977,-0.02481 1.43867,-0.02481 v 3.659725 c 0.59488,-0.051 1.19843,-0.10196 1.6831,-0.152962 0.18298,-0.871475 0.42081,-1.579948 0.71469,-2.118734 0.31969,-0.572078 0.68987,-0.984228 1.11052,-1.236617 0.42064,-0.269212 0.87476,-0.40411 1.36271,-0.40411 0.33652,0 0.63077,0.04195 0.88315,0.126091 0.25239,0.08414 0.45474,0.193545 0.60617,0.328145 v -4.896342 c 0,-0.302865 0.0335,-0.538158 0.10077,-0.706416 0.0841,-0.168259 0.22701,-0.286162 0.42891,-0.353467 0.20191,-0.08414 0.48818,-0.134595 0.85835,-0.151412 0.37015,-0.01681 0.84976,-0.02532 1.43867,-0.02532 v 18.045927 c -0.43747,0.185083 -0.95904,0.353447 -1.56477,0.504879 -0.58889,0.168259 -1.29581,0.252181 -2.12028,0.252181 -0.53843,0 -1.05149,-0.05896 -1.53944,-0.176733 -0.48795,-0.117777 -0.92559,-0.387049 -1.31258,-0.807703 -0.15477,-0.175879 -0.29509,-0.3897 -0.42633,-0.627352 h -2.22364 v 0.854728 c 0,0.134609 -0.017,0.235525 -0.0506,0.302824 -0.0336,0.0673 -0.14307,0.117758 -0.32815,0.151412 -0.16826,0.01681 -0.45401,0.0338 -0.85783,0.05064 h -1.18132 c -0.0586,-0.100815 -0.167,-0.147981 -0.37,-0.09457 l -0.0894,0.0057 v -1.270724 h -1.66553 v 0.854728 c 0,0.134609 -0.017,0.235525 -0.0507,0.302824 -0.0337,0.0673 -0.14307,0.117758 -0.32814,0.151412 -0.16826,0.01681 -0.44603,0.0338 -0.83303,0.05064 h -1.6154 V 40.65437 h -2.190049 c -0.01935,0.03135 -0.03587,0.06729 -0.05581,0.09767 -0.336519,0.521599 -0.765661,0.908266 -1.28726,1.160652 -0.521604,0.235564 -1.119106,0.353467 -1.792139,0.353467 -0.15554,0 -0.30499,-0.0059 -0.451135,-0.01447 -0.355672,-0.232186 -0.784356,-0.177213 -1.173055,-0.191203 -0.05561,-0.01595 -0.114422,-0.02867 -0.167949,-0.04651 -0.487947,-0.151433 -0.900098,-0.454693 -1.236617,-0.908988 -0.09046,-0.133308 -0.172813,-0.286326 -0.251147,-0.450619 h -2.008663 c -0.163372,0.239803 -0.357916,0.459127 -0.592212,0.652673 -0.757163,0.639383 -1.78329,0.959115 -3.078882,0.959115 -0.403821,0 -0.791002,-0.02497 -1.161169,-0.07545 -0.353344,-0.05048 -0.664583,-0.126422 -0.933793,-0.227376 -0.25239,-0.117776 -0.462711,-0.269147 -0.63097,-0.454236 -0.151431,-0.201912 -0.227376,-0.446213 -0.227376,-0.732255 0,-0.201909 0.03399,-0.437206 0.101286,-0.706417 0.0673,-0.28604 0.185204,-0.580283 0.353467,-0.88315 0.35334,0.185087 0.715034,0.32796 1.085205,0.428915 0.386991,0.08414 0.757185,0.12609 1.110526,0.12609 0.437474,0 0.757204,-0.09242 0.959115,-0.277502 0.08625,-0.07961 0.15033,-0.171308 0.202571,-0.269235 0.08025,-0.150423 0.125574,-0.319515 0.125574,-0.513147 0,-0.185084 -0.03399,-0.395405 -0.101286,-0.630969 -0.0033,-0.01529 -0.01086,-0.03152 -0.01499,-0.04702 -0.05945,-0.223334 -0.203243,-0.467883 -0.43925,-0.735356 L 85.521381,34.94671 c -0.437474,-0.47112 -0.748709,-0.942229 -0.933793,-1.41335 -0.185086,-0.471126 -0.277503,-0.891768 -0.277503,-1.261939 0,-0.437468 0.06693,-0.849619 0.201538,-1.236617 0.151431,-0.386992 0.387242,-0.715221 0.706934,-0.984436 0.319692,-0.286039 0.740335,-0.504343 1.261938,-0.655774 0.538427,-0.168259 1.202863,-0.252698 1.993677,-0.252698 0.706688,0 1.262228,0.05896 1.666048,0.176734 0.420645,0.100955 0.731882,0.235333 0.933794,0.403593 0.09616,0.06657 0.169419,0.137765 0.23306,0.21084 0.679811,-1.099818 1.376817,-2.157337 2.094446,-3.162598 -0.158652,-0.09146 -0.303747,-0.188521 -0.42478,-0.296106 -0.286041,-0.269214 -0.479889,-0.571957 -0.580843,-0.908472 -0.100955,-0.336519 -0.151412,-0.664748 -0.151412,-0.984436 0,-0.588906 0.151369,-1.127451 0.454236,-1.615405 0.319687,-0.471119 0.732359,-0.883272 1.237133,-1.236617 -0.437468,-0.134614 -0.782693,-0.319969 -1.035079,-0.555522 -0.235562,-0.235562 -0.336474,-0.529805 -0.302824,-0.88315 0.01681,-0.353342 0.143214,-0.723531 0.378789,-1.110526 0.252388,-0.386996 0.647549,-0.799147 1.185974,-1.236617 -0.538425,-0.370172 -0.925609,-0.866758 -1.16117,-1.489315 -0.218735,-0.639383 -0.327628,-1.36277 -0.327628,-2.17041 0,-0.891771 0.09242,-1.640641 0.277502,-2.246375 0.20191,-0.605729 0.487659,-1.08533 0.857829,-1.438672 0.37017,-0.370169 0.816302,-0.6309473 1.337903,-0.7823809 0.538428,-0.1514308 1.135927,-0.2268596 1.792139,-0.2268596 0.403817,0 0.824464,0.075431 1.261938,0.2268596 h 3.003443 c 0.0841,0.1514336 0.15105,0.3452829 0.20153,0.5808429 0.0673,0.218738 0.10129,0.487496 0.10129,0.807186 0,0.370171 -0.0844,0.639444 -0.2527,0.807703 -0.16826,0.151434 -0.37858,0.227376 -0.63097,0.227376 h -0.25218 c -0.0841,-0.01682 -0.17655,-0.03381 -0.2775,-0.05064 0.18509,0.286041 0.32795,0.614267 0.42891,0.984436 0.11778,0.370169 0.17674,0.799312 0.17674,1.28726 0,1.362897 -0.31973,2.389024 -0.959122,3.078882 -0.622554,0.689858 -1.665672,1.035079 -3.129525,1.035079 H 96.25769 c -0.100953,0 -0.210364,-0.0085 -0.328145,-0.02532 -0.201912,0.28604 -0.302824,0.52185 -0.302824,0.706934 0,0.20191 0.210324,0.319297 0.630969,0.35295 0.420646,0.01681 0.933712,0.07577 1.539441,0.176733 0.272548,0.04684 0.528216,0.102825 0.768429,0.166915 0.195041,-0.255694 0.438261,-0.575271 0.627869,-0.823722 1.368931,-1.793766 2.501881,-3.469853 3.398761,-5.0276 0.89689,-1.604952 1.34514,-3.138965 1.34514,-4.6023032 0,-1.2273166 -0.37748,-2.1479328 -1.13275,-2.7615886 -0.75527,-0.6608636 -1.77026,-0.9911539 -3.044778,-0.9911539 -0.566451,0 -1.251146,0.047181 -2.053621,0.1415934 -0.802475,0.09441 -1.652314,0.2359647 -2.549199,0.4247803 -0.849681,0.1888186 -1.699001,0.4252563 -2.548681,0.7084839 -0.802473,0.2360204 -1.510761,0.5191281 -2.124418,0.8495605 v 0.070797 C 90.011755,6.9031323 89.728731,5.8409675 89.634322,4.7552653 89.539914,3.622359 89.492729,2.7489277 89.492729,2.1352702 c 0,-0.5664534 0.353881,-1.0854835 1.06195,-1.55752769 0.755269,-0.47204404 1.723074,-0.87362983 2.903182,-1.20406087 1.227316,-0.37763534 2.596184,-0.66074284 4.106726,-0.84956054 1.510541,-0.2360223 3.068153,-0.3539836 4.673103,-0.3539836 z M 80.760962,9.5895955 c 0.706686,0 1.261714,0.058951 1.665531,0.1767334 0.420649,0.1009558 0.731883,0.2353341 0.933793,0.4035931 0.218734,0.151434 0.353633,0.319794 0.40411,0.504879 0.06731,0.185084 0.100769,0.353447 0.100769,0.504878 0,0.218735 -0.05046,0.45403 -0.151412,0.706417 -0.100952,0.25239 -0.235333,0.471206 -0.403593,0.656291 -0.336513,-0.185084 -0.689714,-0.319464 -1.059883,-0.403593 -0.353344,-0.08413 -0.723531,-0.126607 -1.110527,-0.126607 -0.790814,0 -1.186491,0.252802 -1.186491,0.757576 0,0.134608 0.03347,0.294474 0.100769,0.479557 0.08413,0.185085 0.294453,0.445862 0.63097,0.782382 l 1.868103,1.892907 c 0.252385,0.286039 0.454215,0.554797 0.605647,0.807186 0.168257,0.252387 0.30264,0.496694 0.403593,0.732255 0.100957,0.235559 0.168403,0.487846 0.202055,0.75706 0.03365,0.25239 0.05064,0.538656 0.05064,0.858346 0,1.144158 -0.387179,2.035905 -1.161169,2.675288 -0.757166,0.639383 -1.783807,0.959115 -3.079399,0.959115 -0.403821,0 -0.790484,-0.02549 -1.160653,-0.07596 -0.353337,-0.05048 -0.664578,-0.125901 -0.933793,-0.22686 -0.252388,-0.117775 -0.46271,-0.269664 -0.630969,-0.454752 -0.151432,-0.201911 -0.227376,-0.4457 -0.227376,-0.731739 0,-0.201911 0.03398,-0.437204 0.101285,-0.706417 0.0673,-0.28604 0.18469,-0.580803 0.352951,-0.883667 0.353342,0.185086 0.715035,0.327961 1.085205,0.428915 0.386993,0.08414 0.757183,0.126607 1.110526,0.126607 0.437474,0 0.757204,-0.09293 0.959115,-0.278019 0.218736,-0.201911 0.328145,-0.462691 0.328145,-0.782381 0,-0.185086 -0.03347,-0.395407 -0.100769,-0.63097 -0.05047,-0.235561 -0.201844,-0.496342 -0.454236,-0.782381 l -2.195731,-2.321822 c -0.437473,-0.471122 -0.74871,-0.942226 -0.933794,-1.41335 -0.185083,-0.471123 -0.278019,-0.891771 -0.278019,-1.261939 0,-0.437473 0.06745,-0.849623 0.202055,-1.236617 0.151433,-0.386995 0.387242,-0.715224 0.706934,-0.984436 0.31969,-0.28604 0.740337,-0.5048577 1.261938,-0.6562905 0.538428,-0.1682586 1.202862,-0.252181 1.993677,-0.252181 z m 6.738607,0.252181 0.454236,3.6344035 c 0.0673,0.538428 0.126252,1.160898 0.176733,1.867586 0.0673,0.68986 0.126254,1.346314 0.176733,1.968872 0.0673,0.723513 0.117758,1.455395 0.151412,2.195732 h 0.05064 c 0.03366,-0.740337 0.08412,-1.472219 0.151412,-2.195732 0.03365,-0.622558 0.07562,-1.279012 0.126091,-1.968872 0.0673,-0.706688 0.134748,-1.329158 0.202054,-1.867586 l 0.353467,-3.078882 c 0.01683,-0.134606 0.0418,-0.23604 0.07545,-0.30334 0.05047,-0.08413 0.168378,-0.1425661 0.353467,-0.1762171 0.185084,-0.03365 0.471353,-0.050643 0.858345,-0.050643 0.403822,-0.01682 0.967343,-0.025322 1.690853,-0.025322 L 89.796586,22.461161 c -0.286039,0.05047 -0.631257,0.08446 -1.035079,0.101286 -0.403819,0.01681 -0.740028,0.02481 -1.009241,0.02481 -0.370168,0 -0.639442,-0.117388 -0.807702,-0.35295 -0.168265,-0.252385 -0.294661,-0.555646 -0.378788,-0.908989 L 84.420687,10.674801 c -0.05049,-0.201911 -0.06748,-0.361779 -0.05064,-0.479558 0.01682,-0.117782 0.117732,-0.2022196 0.302824,-0.2526974 0.20191,-0.05047 0.521641,-0.075448 0.959114,-0.075448 0.437472,-0.01683 1.059945,-0.025322 1.867587,-0.025322 z m 9.313126,1.7414955 c -0.336514,0 -0.61377,0.185353 -0.832507,0.555522 -0.201911,0.353344 -0.302824,1.026272 -0.302824,2.018998 0,0.891772 0.07543,1.50575 0.22686,1.842265 0.151432,0.319694 0.429202,0.479557 0.833024,0.479557 0.185086,0 0.344949,-0.03347 0.479557,-0.100769 0.151434,-0.08414 0.269339,-0.227528 0.353467,-0.429431 0.100955,-0.201909 0.167879,-0.479165 0.201538,-0.832507 0.05047,-0.370171 0.07596,-0.841272 0.07596,-1.413351 0,-0.807642 -0.07594,-1.36318 -0.227376,-1.666048 -0.151432,-0.302863 -0.420706,-0.454236 -0.807703,-0.454236 z M 96.1316,22.032247 c -0.28604,0.218738 -0.521848,0.479518 -0.706934,0.782381 -0.168254,0.319694 -0.25218,0.664393 -0.252181,1.034562 0,0.169416 0.03011,0.316494 0.08682,0.443384 0.585008,-0.768611 1.093925,-1.43586 1.64176,-2.154907 -0.219151,-0.038 -0.46534,-0.07396 -0.769462,-0.10542 z m 11.59981,1.708423 c 0.5216,0 0.87532,0.134896 1.0604,0.404109 0.18509,0.269212 0.2775,0.74881 0.2775,1.438672 0,0.689861 -0.13438,1.227896 -0.40359,1.614889 -0.25239,0.370169 -0.62257,0.555521 -1.11053,0.555521 -0.42064,0 -0.75738,-0.142874 -1.00976,-0.428914 -0.23557,-0.286041 -0.35346,-0.824593 -0.35346,-1.615405 0,-0.588907 0.11789,-1.060009 0.35346,-1.413351 0.25238,-0.370169 0.64755,-0.555521 1.18598,-0.555521 z m -6.15828,5.105631 c -0.57595,0.811309 -1.14796,1.644916 -1.712559,2.51871 0.109855,0.315629 0.202479,0.666304 0.274399,1.057816 0.0497,0.243661 0.0895,0.513511 0.12454,0.796851 h 1.31362 z m -12.720156,2.718697 c -0.790817,0 -1.18649,0.252286 -1.18649,0.75706 0,0.134612 0.03399,0.29448 0.101285,0.479557 0.08413,0.185083 0.294452,0.445864 0.63097,0.782382 l 0.587561,0.595829 c 0.02868,-0.06047 0.05142,-0.120919 0.08165,-0.181384 0.236019,-0.519251 0.542722,-1.132648 0.920358,-1.840715 0.07498,-0.133026 0.152937,-0.25837 0.228409,-0.390157 -0.08454,-0.02513 -0.166838,-0.05685 -0.253214,-0.07648 -0.353344,-0.08413 -0.723532,-0.126091 -1.110527,-0.126091 z m 25.919866,0 c -0.13447,8.2e-5 -0.27715,0.03355 -0.4284,0.100769 -0.13461,0.0673 -0.26102,0.244157 -0.37879,0.530201 -0.11778,0.286038 -0.21868,0.723159 -0.30282,1.312064 -0.0162,0.110392 -0.0236,0.271522 -0.0367,0.399459 3.3e-4,-0.03261 7.5e-4,-0.06333 10e-4,-0.09612 -0.0593,0.543811 -0.0904,1.243707 -0.0904,2.119767 0,0.383931 0.005,0.720228 0.0145,1.031462 -3.2e-4,0.01 -8.3e-4,0.01923 -0.001,0.02946 0.001,0.04875 0.005,0.08406 0.006,0.131258 8e-5,0.0022 -7e-5,0.004 0,0.0062 -1e-5,5.12e-4 2e-5,9.5e-4 0,0.0016 0.008,0.239587 0.017,0.471992 0.0305,0.667659 0.0337,0.48795 0.0841,0.883626 0.15141,1.186491 0.0841,0.286037 0.18556,0.487866 0.30334,0.605648 0.11777,0.117776 0.26066,0.176733 0.42892,0.176733 0.33652,0 0.61429,-0.08444 0.83302,-0.252697 V 31.69114 c -0.13449,-0.08407 -0.3112,-0.126018 -0.52968,-0.126091 z M 93.588603,43.543079 v 7.001639 c 0,0.05225 -0.0066,0.09121 -0.01964,0.117306 -0.01307,0.0261 -0.05585,0.04584 -0.127641,0.05891 -0.06528,0.0065 -0.172823,0.0131 -0.322978,0.01964 h -0.626835 v -6.717936 c 0,-0.117507 0.01317,-0.208605 0.03927,-0.273885 0.03263,-0.06528 0.08805,-0.110827 0.166398,-0.136943 0.08487,-0.03263 0.198997,-0.05237 0.342615,-0.05891 0.143623,-0.0065 0.326842,-0.0098 0.548804,-0.0098 z m 5.326806,0 v 7.001639 c -0.169731,0.07181 -0.372178,0.137095 -0.607198,0.195854 -0.228488,0.06528 -0.502804,0.09767 -0.822689,0.09767 -0.208903,0 -0.407543,-0.02302 -0.596862,-0.06873 -0.189324,-0.04571 -0.35938,-0.149957 -0.50953,-0.313159 -0.143618,-0.163203 -0.261037,-0.394748 -0.352433,-0.695048 -0.08487,-0.306831 -0.127124,-0.721591 -0.127124,-1.243852 0,-0.502677 0.03239,-0.930083 0.09767,-1.282609 0.07181,-0.352526 0.166714,-0.636715 0.284221,-0.852144 0.124039,-0.221962 0.267262,-0.381635 0.430464,-0.479558 0.163207,-0.104454 0.339848,-0.157096 0.529167,-0.157096 0.130565,0 0.244692,0.01646 0.342615,0.04909 0.09793,0.03263 0.176374,0.07489 0.235127,0.127124 v -1.899626 c 0,-0.117507 0.01317,-0.208605 0.03927,-0.273885 0.03263,-0.06528 0.08805,-0.111344 0.166398,-0.137459 0.07834,-0.03263 0.189173,-0.05185 0.332796,-0.05839 0.143624,-0.0065 0.32962,-0.0098 0.558105,-0.0098 z m 6.051831,0 v 2.477368 c 0.13056,-0.07181 0.28417,-0.133808 0.46043,-0.186035 0.17626,-0.05876 0.36884,-0.08837 0.57775,-0.08837 0.1632,0 0.29656,0.0263 0.401,0.07855 0.11098,0.05225 0.19601,0.117535 0.25477,0.195854 0.0587,0.07834 0.0982,0.166661 0.11782,0.264583 0.0261,0.09793 0.0388,0.1956 0.0388,0.293522 0,0.182793 -0.0193,0.352337 -0.0584,0.509013 -0.0391,0.156675 -0.088,0.297123 -0.14676,0.421163 -0.0523,0.124039 -0.11097,0.232099 -0.17621,0.323494 -0.0653,0.0914 -0.12778,0.16604 -0.18655,0.224793 0.2546,0.189319 0.43453,0.447186 0.53898,0.773596 0.10445,0.326416 0.15987,0.685758 0.1664,1.077454 0,0.221962 -0.01,0.443631 -0.0295,0.665592 -0.007,0.03917 -0.0198,0.07208 -0.0393,0.09819 -0.0131,0.01961 -0.0586,0.03607 -0.13694,0.04909 -0.0783,0.0065 -0.20233,0.0131 -0.37207,0.01964 h -0.70539 c 0.0131,-0.16974 0.0229,-0.336508 0.0295,-0.499711 0.0131,-0.169734 0.0196,-0.332694 0.0196,-0.489376 0,-0.378637 -0.0357,-0.675982 -0.10749,-0.891418 -0.0653,-0.221961 -0.19255,-0.316347 -0.38189,-0.283704 -0.0718,0.01961 -0.1371,0.0454 -0.19585,0.07803 -0.0261,0.01956 -0.0491,0.0393 -0.0687,0.05891 v 1.831412 c 0,0.05225 -0.007,0.09121 -0.0196,0.117306 -0.007,0.0261 -0.0456,0.04584 -0.11731,0.05891 -0.0653,0.0065 -0.17332,0.0131 -0.32349,0.01964 h -0.64596 v -6.717936 c 0,-0.117507 0.0126,-0.208605 0.0388,-0.273885 0.0326,-0.06528 0.0918,-0.111344 0.17673,-0.137459 0.0849,-0.03263 0.1957,-0.05185 0.3328,-0.05839 0.14362,-0.0065 0.32962,-0.0098 0.55811,-0.0098 z m 13.48393,0 v 7.001639 c -0.16974,0.07181 -0.37218,0.137095 -0.6072,0.195854 -0.22849,0.06528 -0.50229,0.09767 -0.82217,0.09767 -0.20891,0 -0.40806,-0.02302 -0.59738,-0.06873 -0.18932,-0.04571 -0.35938,-0.149957 -0.50953,-0.313159 -0.14363,-0.163203 -0.26105,-0.394748 -0.35243,-0.695048 -0.0849,-0.306831 -0.12713,-0.721591 -0.12713,-1.243852 0,-0.502677 0.0324,-0.930083 0.0977,-1.282609 0.0718,-0.352526 0.16671,-0.636715 0.28422,-0.852144 0.12404,-0.221962 0.26726,-0.381635 0.43046,-0.479558 0.16322,-0.104454 0.33985,-0.157096 0.52917,-0.157096 0.13057,0 0.2447,0.01646 0.34262,0.04909 0.0979,0.03263 0.17637,0.07489 0.23512,0.127124 v -1.899626 c 0,-0.117507 0.0132,-0.208605 0.0393,-0.273885 0.0326,-0.06528 0.088,-0.111344 0.1664,-0.137459 0.0783,-0.03263 0.18917,-0.05185 0.33279,-0.05839 0.14363,-0.0065 0.32961,-0.0098 0.55811,-0.0098 z m -23.57014,0.107487 c 0.202377,0 0.339533,0.05212 0.411345,0.156579 0.07181,0.104449 0.107487,0.290443 0.107487,0.558106 0,0.267656 -0.05213,0.476685 -0.15658,0.626835 -0.09792,0.143623 -0.241662,0.21549 -0.430981,0.21549 -0.163208,0 -0.293785,-0.05542 -0.391708,-0.166398 -0.0914,-0.11098 -0.136942,-0.320003 -0.136942,-0.626835 0,-0.228488 0.04555,-0.411195 0.136942,-0.548287 0.09792,-0.143624 0.251534,-0.21549 0.460437,-0.21549 z m 17.57722,0.430981 v 1.762683 h 0.80305 c 0,0.208903 -0.003,0.375161 -0.01,0.499194 0,0.124039 -0.007,0.218936 -0.0196,0.284221 -0.0131,0.06528 -0.0361,0.10754 -0.0687,0.127124 -0.0261,0.01307 -0.0651,0.01964 -0.11731,0.01964 h -0.58756 v 2.663403 c 0,0.110981 0.01,0.219039 0.0295,0.323495 0.0195,0.09792 0.0881,0.146761 0.20567,0.146761 0.16321,0 0.33275,-0.04225 0.50901,-0.127124 0.0131,0.07181 0.0262,0.149741 0.0393,0.234611 0.0195,0.08486 0.0289,0.183058 0.0289,0.294039 0,0.117507 -0.0291,0.212409 -0.0879,0.28422 -0.0588,0.06528 -0.13396,0.117405 -0.22531,0.15658 -0.0849,0.03917 -0.17926,0.06168 -0.28371,0.06821 -0.10445,0.01307 -0.20264,0.01964 -0.29404,0.01964 -0.21542,0 -0.39155,-0.03239 -0.52865,-0.09767 -0.13056,-0.05875 -0.23204,-0.147071 -0.30385,-0.264583 -0.0718,-0.117508 -0.12064,-0.261248 -0.14676,-0.430982 -0.0261,-0.176265 -0.0393,-0.372131 -0.0393,-0.587561 l 5.2e-4,-2.68304 h -0.58756 v -0.499194 c 0.007,-0.124039 0.0165,-0.215649 0.0294,-0.274402 0.0131,-0.06528 0.0361,-0.10754 0.0687,-0.127124 0.0326,-0.01955 0.0748,-0.02946 0.12713,-0.02946 h 0.36225 V 44.42416 c 0,-0.08487 0.0165,-0.150159 0.0491,-0.195854 0.0327,-0.04571 0.0881,-0.07809 0.1664,-0.09767 0.0849,-0.0261 0.19571,-0.03927 0.3328,-0.03927 0.14362,-0.0065 0.32632,-0.0098 0.54828,-0.0098 z m -28.613239,0.783415 c 0.554904,0 0.943342,0.117419 1.165304,0.352433 0.221961,0.235019 0.332796,0.577911 0.332796,1.028361 0,0.293773 -0.062,0.571377 -0.186035,0.832507 -0.124034,0.261131 -0.280415,0.52506 -0.469739,0.792717 -0.189318,0.267656 -0.404926,0.551844 -0.646472,0.852144 -0.235014,0.293773 -0.463784,0.623502 -0.685746,0.989087 h 0.72502 c 0.202377,0 0.385085,-0.0033 0.548287,-0.0098 0.169735,-0.01307 0.313469,-0.02625 0.430982,-0.03928 0.137091,-0.01955 0.257797,-0.03877 0.362251,-0.05839 0,0.228488 -0.0033,0.417775 -0.0098,0.567924 0,0.143624 -0.0099,0.257745 -0.02946,0.342615 -0.01307,0.08486 -0.03937,0.143574 -0.07855,0.176216 -0.03263,0.03263 -0.07817,0.04909 -0.136942,0.04909 h -3.231328 c -0.01961,-0.05875 -0.03279,-0.12075 -0.03927,-0.186035 v -0.117822 c 0,-0.08487 0.0033,-0.16003 0.0098,-0.22531 0.0065,-0.07181 0.01971,-0.137099 0.03927,-0.195853 0.01961,-0.06528 0.0454,-0.130569 0.07803,-0.195854 0.03263,-0.07181 0.07541,-0.156325 0.127641,-0.254248 0.202377,-0.359058 0.417468,-0.685501 0.645955,-0.979268 0.228489,-0.300305 0.437517,-0.574617 0.626835,-0.822689 0.18932,-0.248072 0.346217,-0.479612 0.470256,-0.695048 0.124039,-0.221961 0.186035,-0.434282 0.186035,-0.636654 0,-0.169739 -0.05213,-0.297024 -0.156579,-0.381889 -0.104449,-0.0914 -0.244897,-0.136942 -0.421163,-0.136942 -0.07834,0 -0.17324,0.0066 -0.284221,0.01964 -0.11098,0.01307 -0.228394,0.03229 -0.352433,0.05839 -0.117507,0.0261 -0.234926,0.059 -0.352433,0.09819 -0.110981,0.03263 -0.209169,0.0716 -0.294039,0.117306 v 0.0098 c -0.06528,-0.143623 -0.104248,-0.29065 -0.117306,-0.4408 -0.01307,-0.156676 -0.01964,-0.277382 -0.01964,-0.362251 0,-0.07834 0.04883,-0.150206 0.146761,-0.215491 0.10445,-0.06528 0.238319,-0.120702 0.401526,-0.166398 0.169735,-0.05225 0.35902,-0.09121 0.567924,-0.117306 0.208903,-0.03263 0.424511,-0.04909 0.646472,-0.04909 z m -10.242785,0.881083 c 0.274188,0 0.489279,0.02302 0.645955,0.06873 0.163207,0.03917 0.28443,0.0913 0.362769,0.156579 0.08487,0.05875 0.136995,0.124042 0.156579,0.195854 0.0261,0.07181 0.03876,0.1371 0.03876,0.195854 0,0.08487 -0.01922,0.176479 -0.0584,0.274401 -0.03917,0.09792 -0.0913,0.182954 -0.156579,0.254765 -0.130566,-0.07181 -0.267727,-0.124454 -0.411345,-0.157096 -0.137097,-0.03263 -0.280831,-0.04858 -0.430981,-0.04858 -0.306826,0 -0.460437,0.09768 -0.460437,0.293522 0,0.05225 0.01317,0.114243 0.03927,0.186035 0.03263,0.07181 0.114366,0.173293 0.244946,0.303858 l 0.724504,0.734322 c 0.09792,0.11098 0.176374,0.215236 0.235128,0.313159 0.06528,0.09792 0.117405,0.192824 0.156579,0.28422 0.03917,0.0914 0.06548,0.189068 0.07855,0.293522 0.01307,0.09792 0.01964,0.208758 0.01964,0.332797 0,0.443917 -0.150318,0.790101 -0.450618,1.038179 -0.293773,0.248073 -0.692088,0.372071 -1.194759,0.372071 -0.156681,0 -0.306996,-0.0099 -0.450619,-0.02946 -0.137091,-0.01961 -0.257797,-0.0487 -0.362252,-0.08785 -0.09792,-0.04571 -0.179149,-0.104415 -0.244429,-0.176217 -0.05875,-0.07834 -0.08837,-0.173239 -0.08837,-0.28422 0,-0.07834 0.01317,-0.169436 0.03927,-0.273885 0.0261,-0.11098 0.07165,-0.225618 0.136943,-0.343132 0.137092,0.07181 0.277539,0.127746 0.421163,0.166915 0.150149,0.03263 0.293889,0.04858 0.430981,0.04858 0.169735,0 0.293728,-0.03567 0.372071,-0.107487 0.08486,-0.07834 0.127124,-0.179818 0.127124,-0.303857 0,-0.07181 -0.01318,-0.153034 -0.03928,-0.24443 -0.01961,-0.0914 -0.07832,-0.192877 -0.176216,-0.303857 l -0.851628,-0.90072 c -0.169734,-0.182793 -0.29044,-0.365495 -0.362252,-0.548287 -0.07181,-0.182792 -0.108003,-0.346269 -0.108003,-0.489893 0,-0.169734 0.0263,-0.329407 0.07855,-0.479557 0.05875,-0.150151 0.149846,-0.27744 0.273885,-0.381889 0.124034,-0.110981 0.287516,-0.196012 0.489893,-0.254765 0.208909,-0.06528 0.46677,-0.09767 0.773596,-0.09767 z m 6.276619,0 c 0.156677,0 0.320158,0.02961 0.489893,0.08837 h 1.165303 c 0.03263,0.05876 0.05842,0.133918 0.07803,0.225309 0.0261,0.08487 0.03927,0.189125 0.03927,0.313159 0,0.143623 -0.03239,0.248391 -0.09767,0.313676 -0.06528,0.05876 -0.147023,0.08785 -0.244946,0.08785 h -0.09767 c -0.03263,-0.0065 -0.06883,-0.0131 -0.108004,-0.01964 0.07181,0.110981 0.127229,0.238266 0.166398,0.381889 0.04571,0.143618 0.06873,0.310386 0.06873,0.499711 0,0.528787 -0.123993,0.927103 -0.372071,1.194759 -0.24154,0.267662 -0.646434,0.401009 -1.214396,0.401009 H 79.61477 c -0.03917,0 -0.08195,-0.0033 -0.127641,-0.0098 -0.07834,0.11098 -0.117306,0.202589 -0.117306,0.274401 0,0.07834 0.08174,0.123885 0.244947,0.136943 0.163207,0.0065 0.362359,0.02956 0.597379,0.06873 0.417807,0.07181 0.73767,0.195804 0.959632,0.37207 0.221961,0.176261 0.332796,0.457157 0.332796,0.842326 0,0.241545 -0.03567,0.466507 -0.107487,0.675411 -0.06528,0.215435 -0.173339,0.401429 -0.323495,0.558105 -0.15015,0.156676 -0.342728,0.280675 -0.577742,0.37207 -0.23502,0.0914 -0.518685,0.13746 -0.851628,0.13746 -0.332941,0 -0.603966,-0.03619 -0.81287,-0.108004 -0.208903,-0.06528 -0.372385,-0.149793 -0.489893,-0.254248 -0.11098,-0.104449 -0.185623,-0.222385 -0.224792,-0.35295 -0.03917,-0.130566 -0.05891,-0.25785 -0.05891,-0.381889 0,-0.228488 0.05871,-0.436999 0.176216,-0.626318 0.124034,-0.182793 0.283707,-0.342978 0.479558,-0.480074 -0.169734,-0.05225 -0.303603,-0.124119 -0.401526,-0.215491 -0.0914,-0.0914 -0.130358,-0.205518 -0.117306,-0.342615 0.0065,-0.137092 0.05537,-0.280831 0.146761,-0.430981 0.09792,-0.15015 0.251534,-0.309823 0.460437,-0.479557 -0.208903,-0.143623 -0.359222,-0.336197 -0.450618,-0.577743 -0.08487,-0.248072 -0.127124,-0.528969 -0.127124,-0.842326 0,-0.345995 0.03567,-0.636245 0.107487,-0.871264 0.07834,-0.23502 0.189694,-0.421532 0.333313,-0.558623 0.143623,-0.143623 0.316455,-0.244586 0.518831,-0.30334 0.208904,-0.05876 0.440444,-0.08837 0.695048,-0.08837 z m 7.53029,0 c 0.274188,0 0.489796,0.02302 0.646472,0.06873 0.163208,0.03917 0.283914,0.0913 0.362252,0.156579 0.08487,0.05875 0.136995,0.124042 0.156579,0.195854 0.0261,0.07181 0.03928,0.1371 0.03928,0.195854 0,0.08487 -0.01922,0.176479 -0.0584,0.274401 -0.03917,0.09792 -0.09182,0.182954 -0.157096,0.254765 -0.130565,-0.07181 -0.267721,-0.124454 -0.411345,-0.157096 -0.137091,-0.03263 -0.280308,-0.04858 -0.430464,-0.04858 -0.306826,0 -0.460437,0.09768 -0.460437,0.293522 0,0.05225 0.01317,0.114243 0.03927,0.186035 0.03263,0.07181 0.114372,0.173293 0.244946,0.303858 l 0.724504,0.734322 c 0.09792,0.11098 0.176374,0.215236 0.235127,0.313159 0.06528,0.09792 0.117406,0.192824 0.15658,0.28422 0.03917,0.0914 0.06496,0.189068 0.07803,0.293522 0.01307,0.09792 0.01964,0.208758 0.01964,0.332797 0,0.443917 -0.149797,0.790101 -0.450102,1.038179 -0.293769,0.248073 -0.692083,0.372071 -1.194759,0.372071 -0.156681,0 -0.307,-0.0099 -0.450619,-0.02946 -0.137096,-0.01961 -0.257802,-0.0487 -0.362252,-0.08785 -0.09792,-0.04571 -0.179661,-0.104415 -0.244946,-0.176217 -0.05875,-0.07834 -0.08785,-0.173239 -0.08785,-0.28422 0,-0.07834 0.01317,-0.169436 0.03927,-0.273885 0.0261,-0.11098 0.07165,-0.225618 0.136943,-0.343132 0.137098,0.07181 0.277545,0.127746 0.421163,0.166915 0.150149,0.03263 0.293367,0.04858 0.430464,0.04858 0.169735,0 0.294249,-0.03567 0.372587,-0.107487 0.08486,-0.07834 0.127125,-0.179818 0.127125,-0.303857 0,-0.07181 -0.01317,-0.153034 -0.03927,-0.24443 -0.01956,-0.0914 -0.07827,-0.192877 -0.176216,-0.303857 l -0.852145,-0.90072 c -0.169734,-0.182793 -0.29044,-0.365495 -0.362251,-0.548287 -0.07181,-0.182792 -0.107487,-0.346269 -0.107487,-0.489893 0,-0.169734 0.0263,-0.329407 0.07855,-0.479557 0.05875,-0.150151 0.149846,-0.27744 0.273885,-0.381889 0.124039,-0.110981 0.287516,-0.196012 0.489893,-0.254765 0.208903,-0.06528 0.466769,-0.09767 0.773596,-0.09767 z m 3.094901,0 c 0.261131,0 0.486093,0.03948 0.675411,0.117822 0.195846,0.07181 0.356036,0.202389 0.480074,0.391708 0.124039,0.189319 0.215132,0.443888 0.273886,0.763777 0.06528,0.319885 0.09819,0.728071 0.09819,1.224215 0,0.470039 -0.0362,0.871124 -0.108004,1.204061 -0.06528,0.326415 -0.166243,0.594148 -0.303341,0.803052 -0.130565,0.202376 -0.297334,0.352695 -0.499711,0.450618 -0.202377,0.0914 -0.433917,0.136943 -0.695048,0.136943 -0.267656,0 -0.499197,-0.03239 -0.695048,-0.09767 -0.189319,-0.05875 -0.349509,-0.176684 -0.480074,-0.35295 -0.124038,-0.182793 -0.21894,-0.440654 -0.28422,-0.773596 -0.05875,-0.339469 -0.08785,-0.78333 -0.08785,-1.331702 0,-0.887846 0.140447,-1.530859 0.421163,-1.929081 0.280715,-0.404754 0.682317,-0.607198 1.204577,-0.607198 z m 12.279354,0 c 0.26765,0 0.44378,0.03948 0.52865,0.117822 0.0849,0.07834 0.12764,0.202331 0.12764,0.37207 0,0.06528 -0.007,0.156378 -0.0196,0.273886 -0.0131,0.117511 -0.0426,0.238734 -0.0884,0.362768 -0.0718,-0.03263 -0.1371,-0.05237 -0.19586,-0.05891 -0.0587,-0.01307 -0.11415,-0.01964 -0.16639,-0.01964 -0.0587,0 -0.12732,0.01317 -0.20568,0.03927 -0.0783,0.0261 -0.15021,0.06507 -0.21549,0.117306 l -0.01,3.594095 c 0,0.05225 -0.007,0.09121 -0.0196,0.117306 -0.0131,0.0261 -0.0553,0.04584 -0.12713,0.05891 -0.0653,0.0065 -0.17332,0.0131 -0.32349,0.01964 h -0.64596 v -4.553727 c 0.16974,-0.117507 0.3689,-0.218471 0.59738,-0.303341 0.23502,-0.0914 0.48959,-0.137459 0.76378,-0.137459 z m 6.20841,0 c 0.24807,0 0.46039,0.01974 0.63665,0.05891 0.17626,0.03917 0.32,0.107748 0.43098,0.205672 0.11752,0.09792 0.20203,0.228499 0.25425,0.391708 0.0588,0.163202 0.0884,0.365653 0.0884,0.607198 v 3.535184 c 0,0.05225 -0.007,0.09121 -0.0196,0.117306 -0.0131,0.0261 -0.0586,0.04584 -0.13694,0.05891 -0.0718,0.0065 -0.18645,0.0131 -0.34313,0.01964 h -0.63614 v -3.388424 c 0,-0.254598 -0.0198,-0.427434 -0.0589,-0.518831 -0.0391,-0.09792 -0.12694,-0.146761 -0.26407,-0.146761 -0.14361,0 -0.26813,0.03897 -0.37259,0.117305 v 3.740857 c 0,0.05225 -0.006,0.09121 -0.0191,0.117306 -0.0131,0.0261 -0.0558,0.04584 -0.12764,0.05891 -0.0653,0.0065 -0.17281,0.0131 -0.32297,0.01964 h -0.62684 v -4.671033 c 0.0783,-0.03917 0.17601,-0.07536 0.29352,-0.108003 0.12404,-0.03917 0.25462,-0.07485 0.39171,-0.107487 0.14363,-0.03263 0.28737,-0.05894 0.43098,-0.07855 0.14363,-0.01955 0.27749,-0.02945 0.40153,-0.02945 z m 11.74088,0 h 5.2e-4 c 0.39143,1.14e-4 0.69849,0.124112 0.92036,0.37207 0.22196,0.248078 0.33279,0.656259 0.33279,1.224215 0,0.23502 -0.01,0.479724 -0.0294,0.734322 -0.0196,0.248078 -0.0553,0.466972 -0.10749,0.656291 -0.11751,0.0261 -0.25138,0.04912 -0.40153,0.06873 -0.14362,0.01307 -0.29394,0.02573 -0.45061,0.03876 -0.15016,0.01307 -0.29996,0.02292 -0.45011,0.02945 -0.14362,0.0065 -0.2742,0.0098 -0.3917,0.0098 0.0131,0.313357 0.0619,0.542122 0.14676,0.685746 0.0914,0.137092 0.25435,0.205672 0.48937,0.205672 0.17626,0 0.34961,-0.02302 0.51935,-0.06873 0.17626,-0.05225 0.3491,-0.120829 0.51883,-0.205673 0.0326,0.09792 0.0556,0.218628 0.0687,0.362252 0.0131,0.137091 0.0196,0.261089 0.0196,0.37207 0,0.09793 -0.0362,0.186247 -0.108,0.264584 -0.0718,0.07181 -0.17278,0.133813 -0.30334,0.186035 -0.12404,0.05225 -0.27106,0.09121 -0.4408,0.117305 -0.16973,0.0261 -0.34915,0.03927 -0.53847,0.03927 -0.22196,0 -0.4277,-0.03239 -0.61702,-0.09767 -0.1828,-0.06528 -0.34299,-0.18321 -0.48007,-0.35295 -0.13057,-0.176261 -0.23483,-0.414381 -0.31316,-0.714685 -0.0718,-0.3003 -0.10749,-0.68216 -0.10749,-1.145666 0,-0.594068 0.0455,-1.070829 0.13694,-1.429887 0.0979,-0.36558 0.22522,-0.645959 0.38189,-0.841809 0.15669,-0.202378 0.33939,-0.336246 0.54829,-0.401526 0.20874,-0.07176 0.42748,-0.107949 0.65577,-0.108004 z m -44.516144,0.09819 0.176217,1.41025 c 0.0261,0.208904 0.04912,0.450316 0.06873,0.724504 0.0261,0.267657 0.04912,0.522231 0.06873,0.763777 0.0261,0.280715 0.04532,0.564898 0.05839,0.852145 h 0.01964 c 0.01307,-0.287247 0.03281,-0.57143 0.05891,-0.852145 0.01307,-0.241546 0.02953,-0.49612 0.04909,-0.763777 0.0261,-0.274188 0.05188,-0.5156 0.07803,-0.724504 l 0.137459,-1.194759 c 0.0065,-0.05225 0.01638,-0.09173 0.02946,-0.117822 0.01961,-0.03263 0.06516,-0.05514 0.136942,-0.06821 0.07181,-0.01307 0.182647,-0.01964 0.332797,-0.01964 0.156676,-0.0065 0.375575,-0.0098 0.65629,-0.0098 l -0.979268,4.896342 c -0.110981,0.01955 -0.24485,0.03221 -0.401526,0.03876 -0.156676,0.0065 -0.287253,0.0098 -0.391707,0.0098 -0.143624,0 -0.247879,-0.04555 -0.31316,-0.136943 -0.06528,-0.09792 -0.114629,-0.215342 -0.147277,-0.352433 l -0.832508,-4.132564 c -0.01955,-0.07834 -0.02612,-0.140335 -0.01964,-0.186035 0.0065,-0.04571 0.04602,-0.07809 0.117823,-0.09767 0.07834,-0.01956 0.20233,-0.02945 0.37207,-0.02945 0.169734,-0.0065 0.41115,-0.0098 0.724503,-0.0098 z m 19.134233,0 5.17e-4,4.700488 c 0,0.05225 -0.0066,0.09121 -0.01964,0.117306 -0.01307,0.0261 -0.05585,0.04584 -0.127641,0.05891 -0.06528,0.0065 -0.176114,0.0131 -0.332796,0.01964 h -0.636654 v -4.416268 c 0,-0.117512 0.01646,-0.209121 0.04909,-0.274402 0.03263,-0.06528 0.08805,-0.110826 0.166398,-0.136942 0.08487,-0.03263 0.198996,-0.05237 0.342615,-0.05891 0.143622,-0.0065 0.329617,-0.0098 0.558105,-0.0098 z m -15.5205,0.675411 c -0.130565,0 -0.238625,0.07187 -0.323494,0.215491 -0.07834,0.137098 -0.117306,0.39825 -0.117306,0.783415 0,0.345999 0.0291,0.584636 0.08785,0.715201 0.05875,0.12404 0.166814,0.186036 0.323495,0.186036 0.07181,0 0.133814,-0.01317 0.186035,-0.03927 0.05876,-0.03263 0.104307,-0.08805 0.136943,-0.166398 0.03917,-0.07834 0.06547,-0.186402 0.07855,-0.323494 0.01956,-0.143623 0.02945,-0.326325 0.02945,-0.548287 0,-0.313358 -0.02961,-0.528448 -0.08837,-0.645955 -0.05875,-0.117508 -0.16301,-0.176217 -0.31316,-0.176217 z m 10.634493,0.166915 c -0.05225,0 -0.104377,0.01922 -0.156579,0.05839 -0.04571,0.03263 -0.08519,0.104506 -0.117822,0.215491 -0.03263,0.11098 -0.05842,0.271165 -0.07803,0.480074 -0.01961,0.208904 -0.02945,0.485996 -0.02945,0.831991 0,0.385169 0.0066,0.689094 0.01964,0.911055 0.01961,0.21543 0.04212,0.378395 0.06821,0.489376 0.03263,0.110981 0.07212,0.182848 0.117823,0.215491 0.05225,0.0261 0.107664,0.03927 0.166398,0.03927 0.04571,0 0.09125,-0.01317 0.136942,-0.03927 0.04571,-0.03263 0.08519,-0.1045 0.117823,-0.215491 0.03263,-0.117507 0.05842,-0.283765 0.07803,-0.499194 0.0261,-0.221962 0.03927,-0.522594 0.03927,-0.901237 0,-0.352527 -0.0066,-0.632906 -0.01964,-0.841809 -0.0065,-0.208904 -0.02627,-0.369094 -0.05891,-0.480074 -0.0261,-0.110981 -0.06177,-0.182849 -0.107487,-0.215491 -0.04571,-0.03263 -0.104411,-0.04858 -0.176217,-0.04858 z m 7.148401,0 c -0.05225,0 -0.107669,0.01266 -0.166398,0.03876 -0.05225,0.0261 -0.101596,0.09468 -0.147278,0.205673 -0.04571,0.11098 -0.08467,0.281036 -0.117305,0.509529 -0.03263,0.221962 -0.04909,0.535246 -0.04909,0.939994 0,0.293773 0.0066,0.535185 0.01964,0.724504 0.01307,0.189318 0.03281,0.342924 0.05891,0.460437 0.03263,0.110981 0.0716,0.188915 0.117306,0.234611 0.04571,0.04571 0.101641,0.06873 0.166915,0.06873 0.130566,0 0.238108,-0.03239 0.322977,-0.09767 v -3.03599 c -0.05225,-0.03263 -0.120822,-0.04858 -0.205672,-0.04858 z m 19.535757,0 c -0.0522,0 -0.10762,0.01266 -0.1664,0.03876 -0.0523,0.0261 -0.1011,0.09468 -0.14676,0.205673 -0.0457,0.11098 -0.0852,0.281036 -0.11782,0.509529 -0.0326,0.221962 -0.0486,0.535246 -0.0486,0.939994 0,0.293773 0.007,0.535185 0.0196,0.724504 0.0131,0.189318 0.0323,0.342924 0.0584,0.460437 0.0326,0.110981 0.0716,0.188915 0.1173,0.234611 0.0457,0.04571 0.10166,0.06873 0.16692,0.06873 0.13056,0 0.23811,-0.03239 0.32297,-0.09767 v -3.03599 c -0.0523,-0.03263 -0.12084,-0.04858 -0.20567,-0.04858 z m 3.437,0.0093 c -0.15015,0 -0.2577,0.108059 -0.32298,0.323494 -0.0653,0.21543 -0.10423,0.548456 -0.1173,0.998906 0.13709,0 0.27373,-0.0066 0.41083,-0.01964 0.13709,-0.01307 0.24186,-0.0361 0.31367,-0.06873 0.0195,-0.05875 0.0327,-0.137205 0.0393,-0.235128 0.007,-0.104454 0.01,-0.195547 0.01,-0.273885 0,-0.156676 -0.007,-0.280674 -0.0196,-0.37207 -0.0131,-0.09793 -0.0329,-0.173088 -0.0589,-0.225309 -0.0261,-0.05225 -0.0618,-0.08515 -0.10749,-0.09819 -0.0391,-0.01961 -0.088,-0.02945 -0.14676,-0.02945 z m -15.19752,0.02945 c -0.0849,0 -0.16332,0.0263 -0.23513,0.07855 -0.0653,0.04571 -0.12727,0.110996 -0.18603,0.195854 v 0.979269 c 0.20237,-0.110981 0.35598,-0.241558 0.46043,-0.391708 0.10446,-0.156681 0.15658,-0.355838 0.15658,-0.597379 0,-0.176267 -0.0653,-0.264584 -0.19585,-0.264584 z m -5.2095,2.673739 c 0.26766,0 0.45036,0.06529 0.54829,0.195854 0.0979,0.130564 0.14676,0.303401 0.14676,0.518831 0,0.189319 -0.062,0.352279 -0.18604,0.489376 -0.11751,0.137092 -0.28705,0.205672 -0.50901,0.205672 -0.27418,0 -0.460691,-0.05871 -0.558624,-0.176217 -0.09139,-0.124038 -0.136943,-0.296869 -0.136943,-0.518831 0,-0.189319 0.0587,-0.356089 0.176217,-0.499711 0.124033,-0.143619 0.29739,-0.214974 0.51935,-0.214974 z m 14.30662,0 c 0.26765,0 0.45036,0.06529 0.54829,0.195854 0.0979,0.130564 0.14676,0.303401 0.14676,0.518831 0,0.189319 -0.062,0.352279 -0.18604,0.489376 -0.11751,0.137092 -0.28705,0.205672 -0.50901,0.205672 -0.27419,0 -0.46018,-0.05871 -0.55811,-0.176217 -0.0914,-0.124038 -0.13746,-0.296869 -0.13746,-0.518831 0,-0.189319 0.0587,-0.356089 0.17622,-0.499711 0.12404,-0.143619 0.29739,-0.214974 0.51935,-0.214974 z m -34.919834,1.175122 c -0.110981,0.08486 -0.202596,0.185833 -0.274402,0.303341 -0.06528,0.124039 -0.09767,0.257903 -0.09767,0.401526 0,0.124033 0.03897,0.218418 0.117305,0.283703 0.07834,0.06528 0.228662,0.09819 0.450619,0.09819 0.117512,0 0.215184,-0.01974 0.293522,-0.05891 0.08486,-0.03917 0.150153,-0.08801 0.195854,-0.146761 0.05225,-0.05875 0.08844,-0.124042 0.108003,-0.195854 0.01961,-0.06528 0.02946,-0.127275 0.02946,-0.186035 0,-0.07834 -0.0098,-0.143626 -0.02946,-0.195853 -0.01307,-0.05225 -0.04926,-0.0978 -0.108003,-0.136943 -0.05225,-0.03917 -0.133469,-0.07208 -0.24443,-0.09819 -0.104449,-0.0261 -0.251476,-0.04861 -0.4408,-0.06821 z" /><path
         style="font-weight:bold;font-size:40px;line-height:1.25;font-family:'Yanone Kaffeesatz';-inkscape-font-specification:'Yanone Kaffeesatz Bold';white-space:pre;fill:#e01b24;stroke-width:0.307171"
         d="m 100.25931,33.219522 c 0.0835,0.675393 0.12764,1.457147 0.12764,2.357996 0,1.211466 -0.0924,2.246597 -0.27751,3.10472 -0.15876,0.79382 -0.403017,1.447799 -0.726567,1.971972 h 2.190047 v -7.434688 z"
         id="path8" /><path
         style="font-weight:bold;font-size:40px;line-height:1.25;font-family:'Yanone Kaffeesatz';-inkscape-font-specification:'Yanone Kaffeesatz Bold';white-space:pre;fill:#e01b24;stroke-width:0.307171"
         d="m 106.06567,33.200919 c -0.52717,0.0096 -1.09309,0.01238 -1.66553,0.01447 v 7.438822 h 1.66553 z"
         id="path7" /><path
         style="font-weight:bold;font-size:40px;line-height:1.25;font-family:'Yanone Kaffeesatz';-inkscape-font-specification:'Yanone Kaffeesatz Bold';white-space:pre;fill:#e01b24;stroke-width:0.307171"
         d="m 110.6256,32.904813 c -0.5009,0.05242 -1.06522,0.104678 -1.68259,0.157096 v 7.592301 h 2.22364 c -0.18265,-0.330735 -0.34507,-0.713895 -0.48214,-1.16427 -0.21874,-0.790818 -0.32815,-1.859414 -0.32815,-3.205489 0,-1.295597 0.0839,-2.397661 0.25219,-3.306258 0.005,-0.02571 0.0117,-0.04795 0.0171,-0.07338 z"
         id="path6" /><path
         style="font-weight:bold;font-size:40px;line-height:1.25;font-family:'Yanone Kaffeesatz';-inkscape-font-specification:'Yanone Kaffeesatz Bold';white-space:pre;fill:#e01b24;stroke-width:0.307171"
         d="m 96.34895,31.564843 c -0.134607,0 -0.269503,0.05046 -0.40411,0.151412 -0.117781,0.08414 -0.218694,0.268972 -0.302824,0.555004 -0.08413,0.286041 -0.151575,0.698705 -0.202055,1.237134 -0.05047,0.53843 -0.07545,1.253315 -0.07545,2.145089 0,0.992728 0.01647,1.775061 0.05013,2.347144 0.05047,0.555256 0.109425,0.975899 0.176733,1.261938 0.08413,0.286042 0.18504,0.471392 0.302824,0.555522 0.134608,0.0673 0.277999,0.100769 0.429431,0.100769 0.117782,0 0.235169,-0.03347 0.35295,-0.100769 0.117781,-0.08414 0.219211,-0.269487 0.303341,-0.555522 0.08413,-0.302866 0.151056,-0.732004 0.201538,-1.28726 0.0673,-0.572081 0.101286,-1.345919 0.101286,-2.321822 0,-0.9086 -0.01698,-1.631981 -0.05064,-2.17041 -0.01683,-0.53843 -0.06729,-0.950575 -0.151412,-1.236617 -0.0673,-0.28604 -0.159716,-0.471393 -0.277502,-0.555522 -0.11778,-0.08414 -0.26915,-0.12609 -0.454236,-0.12609 z"
         id="path5" /><path
         style="font-weight:bold;font-size:40px;line-height:1.25;font-family:'Yanone Kaffeesatz';-inkscape-font-specification:'Yanone Kaffeesatz Bold';white-space:pre;fill:#e01b24;stroke-width:0.307171"
         d="m 96.900854,22.137511 c -0.547838,0.71905 -1.056749,1.386293 -1.64176,2.154907 0.0503,0.112552 0.121098,0.209779 0.216007,0.288872 0.201911,0.168257 0.589088,0.252181 1.16117,0.252181 0.302867,0 0.55515,-0.05046 0.75706,-0.151412 0.218736,-0.100955 0.387096,-0.226837 0.504878,-0.378272 0.134612,-0.151433 0.227031,-0.319793 0.277503,-0.504879 0.05049,-0.168257 0.07545,-0.328124 0.07545,-0.479557 0,-0.201909 -0.02497,-0.370269 -0.07545,-0.504879 -0.03366,-0.134612 -0.126077,-0.252519 -0.277503,-0.353466 -0.134613,-0.100955 -0.344932,-0.184875 -0.630969,-0.252181 -0.101423,-0.02535 -0.233917,-0.04835 -0.366386,-0.07131 z"
         id="path4" /><path
         style="font-weight:bold;font-size:40px;line-height:1.25;font-family:'Yanone Kaffeesatz';-inkscape-font-specification:'Yanone Kaffeesatz Bold';white-space:pre;fill:#e01b24;stroke-width:0.307171"
         d="m 102.23748,-1.8300184 c -1.60495,0 -3.162555,0.1179607 -4.6731,0.3539836 -1.510547,0.1888183 -2.879408,0.471924 -4.106727,0.8495605 -1.180114,0.330432 -2.147911,0.7320154 -2.903181,1.2040609 -0.708071,0.4720457 -1.061951,0.9910728 -1.061951,1.5575277 0,0.6136593 0.04718,1.4870855 0.141593,2.6199951 0.09441,1.0857054 0.377515,2.1478684 0.849561,3.1863684 v -0.0708 c 0.61366,-0.330433 1.321942,-0.61354 2.124418,-0.849561 0.849683,-0.283228 1.698999,-0.519665 2.548682,-0.708484 0.896886,-0.188816 1.74672,-0.330369 2.549198,-0.42478 0.802478,-0.09441 1.487167,-0.141593 2.053621,-0.141593 1.274526,0 2.289506,0.330289 3.044776,0.991154 0.75527,0.613658 1.13275,1.534268 1.13275,2.761588 0,1.4633412 -0.44825,2.9973472 -1.34514,4.6023032 -0.89689,1.557752 -2.02982,3.233828 -3.398759,5.0276 -0.18955,0.248376 -0.432372,0.568106 -0.627352,0.823723 0.708766,0.189127 1.277051,0.452923 1.704291,0.792199 0.57208,0.454299 0.85834,1.17768 0.85834,2.17041 0,0.622558 -0.0924,1.203066 -0.2775,1.741496 -0.16826,0.555256 -0.44603,1.03485 -0.83302,1.438672 -0.387,0.403822 -0.883069,0.723552 -1.488801,0.959115 -0.605735,0.235562 -1.338129,0.353466 -2.196249,0.353466 -0.858121,0 -1.556016,-0.09242 -2.094446,-0.277502 -0.323259,-0.101018 -0.598806,-0.222777 -0.837158,-0.360185 -0.717017,1.004402 -1.412925,2.061524 -2.092379,3.160014 0.08202,0.0937 0.13999,0.192215 0.168466,0.296623 0.0673,0.185086 0.101285,0.353445 0.101285,0.504879 0,0.218735 -0.05046,0.454543 -0.151412,0.706933 -0.100955,0.252389 -0.235849,0.470689 -0.404109,0.655774 -0.257925,-0.141859 -0.525875,-0.253344 -0.803569,-0.335897 -0.07676,0.133971 -0.155272,0.263681 -0.23151,0.398942 -0.377636,0.708069 -0.684337,1.321464 -0.920357,1.840715 -0.03023,0.06047 -0.05297,0.120925 -0.08165,0.181384 l 1.280025,1.297079 c 0.252389,0.28604 0.454215,0.555312 0.605648,0.807702 0.168259,0.252389 0.303154,0.496175 0.40411,0.731739 0.100955,0.235562 0.167886,0.487844 0.201538,0.757059 0.03365,0.252389 0.05064,0.538653 0.05064,0.858346 0,0.797813 -0.192632,1.470232 -0.568957,2.022615 h 2.008663 C 92.769249,40.237869 92.607817,39.72646 92.487167,39.111148 92.335734,38.2362 92.259791,37.092177 92.259791,35.678799 c 0,-2.288325 0.362207,-3.945926 1.085722,-4.972306 0.723515,-1.043209 1.758128,-1.564762 3.104203,-1.564762 0.673036,0 1.253543,0.100913 1.741496,0.302824 0.504779,0.185085 0.916926,0.521806 1.236617,1.009757 0.167879,0.256238 0.311051,0.561504 0.432531,0.910539 0.56475,-0.873977 1.13643,-1.707758 1.71256,-2.519226 v -4.146 c 0,-0.302868 0.034,-0.538159 0.10128,-0.706417 0.0841,-0.168259 0.22701,-0.286163 0.42892,-0.353467 0.21873,-0.08414 0.51298,-0.134595 0.88315,-0.151412 0.37017,-0.01681 0.84178,-0.02532 1.41387,-0.02532 v 1.663981 c 1.44361,-1.824017 2.75839,-3.567302 3.92689,-5.21932 1.36893,-1.935389 2.50187,-3.84687 3.39876,-5.73505 0.89688,-1.888186 1.34513,-3.89455 1.34513,-6.0187542 0,-3.2571159 -0.80213,-5.7353245 -2.40708,-7.4346888 -1.60495,-1.6993613 -4.41397,-2.5491954 -8.42636,-2.5491954 z"
         id="text1-5" /><path
         style="font-weight:bold;font-size:40px;line-height:1.25;font-family:'Yanone Kaffeesatz';-inkscape-font-specification:'Yanone Kaffeesatz Bold';white-space:pre;stroke-width:0.30717"
         d="m 88.474139,29.141801 q 1.060035,0 1.665768,0.176665 0.630972,0.151433 0.93384,0.403823 0.328106,0.227151 0.403823,0.504776 0.10095,0.27763 0.10095,0.504781 0,0.328104 -0.151434,0.706689 -0.151433,0.378584 -0.403823,0.656212 -0.504778,-0.277628 -1.060033,-0.403823 -0.530017,-0.126201 -1.110513,-0.126201 -1.186229,0 -1.186229,0.757168 0,0.201918 0.10095,0.479537 0.126196,0.277629 0.630973,0.782406 l 1.867681,1.892919 q 0.378584,0.429061 0.605733,0.807646 0.252389,0.378583 0.403823,0.731929 0.151434,0.353344 0.201912,0.757168 0.05048,0.378583 0.05048,0.858122 0,1.716247 -1.16099,2.675324 -1.135752,0.959079 -3.079147,0.959079 -0.605735,0 -1.160992,-0.07572 -0.530016,-0.07572 -0.933838,-0.227151 -0.378585,-0.176665 -0.630973,-0.454302 -0.227151,-0.302867 -0.227151,-0.73193 0,-0.302867 0.10095,-0.706687 0.10095,-0.429063 0.353345,-0.883364 0.530017,0.27763 1.085274,0.429063 0.580494,0.126206 1.110512,0.126206 0.656211,0 0.959078,-0.277629 0.328106,-0.302866 0.328106,-0.782404 0,-0.277629 -0.100949,-0.630975 -0.07571,-0.353341 -0.454299,-0.782402 l -2.195781,-2.321971 q -0.656211,-0.706688 -0.933838,-1.413377 -0.277629,-0.706689 -0.277629,-1.261946 0,-0.65621 0.201912,-1.236707 0.227151,-0.580496 0.70669,-0.984318 0.479539,-0.429062 1.261946,-0.656212 0.807645,-0.252388 1.993873,-0.252388 z m 3.785856,6.536878 q 0,-3.432491 1.085273,-4.972063 1.085274,-1.564815 3.104388,-1.564815 1.009555,0 1.741485,0.302867 0.757169,0.277629 1.236706,1.009556 0.479539,0.73193 0.706693,1.968634 0.25239,1.236708 0.25239,3.154866 0,1.817202 -0.27763,3.104387 -0.252391,1.261944 -0.782409,2.069591 -0.504778,0.782406 -1.287184,1.160989 -0.782407,0.353345 -1.791963,0.353345 -1.034795,0 -1.791963,-0.252389 -0.731928,-0.22715 -1.236707,-0.908599 -0.479539,-0.706692 -0.731929,-1.993877 -0.22715,-1.312424 -0.22715,-3.432492 z m 3.104386,-0.02522 q 0,1.489094 0.05049,2.347219 0.07571,0.832885 0.176672,1.261944 0.12619,0.429063 0.302866,0.555258 0.201912,0.10095 0.429061,0.10095 0.176673,0 0.353346,-0.10095 0.176671,-0.126205 0.302866,-0.555258 0.126191,-0.4543 0.201914,-1.287184 0.100949,-0.858123 0.100949,-2.321979 0,-1.362901 -0.05049,-2.170546 -0.02525,-0.807645 -0.151433,-1.236709 -0.10095,-0.42906 -0.27763,-0.555253 -0.176669,-0.126207 -0.454299,-0.126207 -0.201911,0 -0.403822,0.151433 -0.176672,0.126207 -0.302867,0.555256 -0.126192,0.429061 -0.201912,1.236706 -0.07571,0.807645 -0.07571,2.145308 z m 9.035529,5.855428 q 0,0.201918 -0.0505,0.302867 -0.0505,0.10095 -0.3281,0.151432 -0.25239,0.02522 -0.83289,0.05048 -0.55525,0 -1.61529,0 V 24.699767 q 0,-0.454302 0.10095,-0.70669 0.12621,-0.252389 0.42907,-0.353345 0.3281,-0.126207 0.88336,-0.151432 0.55525,-0.02522 1.41338,-0.02522 z m 4.543,0 q 0,0.201918 -0.0505,0.302867 -0.0505,0.10095 -0.32811,0.151432 -0.25239,0.02522 -0.85812,0.05048 -0.5805,0 -1.64053,0 V 30.630914 q 0,-0.454301 0.12621,-0.70669 0.1262,-0.252389 0.42906,-0.353344 0.3281,-0.126208 0.88336,-0.151432 0.55525,-0.02522 1.43862,-0.02522 z m -2.75105,-15.79957 q 0,-0.883364 0.35335,-1.413381 0.37858,-0.555256 1.18623,-0.555256 0.7824,0 1.06003,0.403822 0.27763,0.403822 0.27763,1.438619 0,1.034796 -0.40382,1.615289 -0.37859,0.555257 -1.11051,0.555257 -0.63098,0 -1.00956,-0.42906 -0.35335,-0.429065 -0.35335,-1.61529 z m 9.11126,5.981622 q -0.20192,-0.126207 -0.53002,-0.126207 -0.20192,0 -0.42906,0.10095 -0.20192,0.10095 -0.37858,0.530017 -0.17667,0.429061 -0.30287,1.312422 -0.12621,0.858124 -0.12621,2.422936 0,1.135751 0.0505,1.867681 0.0505,0.731929 0.15143,1.186229 0.12621,0.42906 0.30287,0.605734 0.17666,0.176664 0.42906,0.176664 0.50478,0 0.83289,-0.252387 z m 0,-6.991181 q 0,-0.4543 0.10095,-0.70669 0.12621,-0.252388 0.42906,-0.353345 0.30287,-0.126207 0.85812,-0.151433 0.55526,-0.02522 1.43862,-0.02522 v 18.045824 q -0.65621,0.277629 -1.56481,0.504778 -0.88336,0.252389 -2.12007,0.252389 -0.80764,0 -1.53957,-0.176664 -0.73193,-0.176665 -1.31243,-0.807647 -0.55525,-0.630971 -0.9086,-1.791962 -0.3281,-1.186229 -0.3281,-3.205343 0,-1.943398 0.25239,-3.306295 0.27762,-1.362903 0.73192,-2.195787 0.47954,-0.858125 1.11051,-1.236708 0.63098,-0.403822 1.36291,-0.403822 0.50478,0 0.88336,0.126206 0.37858,0.126206 0.60573,0.328105 z"
         id="text1-2"
         aria-label="solid" /><path
         style="font-weight:bold;font-size:40px;line-height:1.25;font-family:'Yanone Kaffeesatz';-inkscape-font-specification:'Yanone Kaffeesatz Bold';white-space:pre;stroke-width:0.30717"
         d="m 80.760726,9.5892758 q 1.060035,0 1.665768,0.176671 0.630974,0.151434 0.933842,0.4038232 0.328105,0.227151 0.403821,0.504778 0.100961,0.277629 0.100961,0.504778 0,0.328106 -0.151435,0.70669 -0.151432,0.378584 -0.403822,0.656212 -0.504776,-0.277627 -1.060033,-0.403821 -0.530017,-0.126197 -1.110513,-0.126197 -1.186228,0 -1.186228,0.757168 0,0.201912 0.100949,0.479539 0.126196,0.277628 0.630973,0.782408 l 1.867679,1.892917 q 0.378584,0.429063 0.605735,0.807646 0.252389,0.378585 0.403823,0.731929 0.151435,0.353343 0.201913,0.757168 0.05048,0.378585 0.05048,0.858121 0,1.716248 -1.160992,2.675326 -1.135752,0.959079 -3.079148,0.959079 -0.605734,0 -1.16099,-0.07571 -0.530015,-0.07571 -0.933838,-0.227152 -0.378584,-0.176666 -0.630973,-0.454301 -0.22715,-0.302866 -0.22715,-0.731929 0,-0.302866 0.100954,-0.706689 0.100954,-0.429063 0.353345,-0.883363 0.530017,0.27763 1.085273,0.429062 0.580495,0.126206 1.110511,0.126206 0.656213,0 0.959081,-0.277629 0.328105,-0.302867 0.328105,-0.782406 0,-0.277629 -0.10095,-0.630974 -0.07571,-0.353345 -0.454301,-0.782408 L 77.807773,15.39422 q -0.656211,-0.70669 -0.933839,-1.41338 -0.277628,-0.706689 -0.277628,-1.261945 0,-0.656212 0.201912,-1.236707 0.22715,-0.580496 0.706689,-0.984318 0.479539,-0.429062 1.261946,-0.6562122 0.807644,-0.252388 1.993873,-0.252388 z m 3.659663,1.0852732 q -0.07573,-0.302867 -0.05048,-0.47954 0.02523,-0.176672 0.302868,-0.2523892 0.302866,-0.07571 0.959078,-0.07571 0.656212,-0.02525 1.867679,-0.02525 l 0.454302,3.6344032 q 0.100951,0.807646 0.176672,1.867681 0.10095,1.034794 0.176672,1.968634 0.10095,1.085274 0.151432,2.195787 h 0.05048 q 0.05049,-1.110513 0.151431,-2.195787 0.05048,-0.93384 0.126191,-1.968634 0.10095,-1.060035 0.201912,-1.867681 l 0.353344,-3.079147 q 0.02525,-0.201913 0.07572,-0.302867 0.07571,-0.1261952 0.353344,-0.1766722 0.277629,-0.05048 0.858124,-0.05048 0.605733,-0.02523 1.691006,-0.02523 L 89.796278,22.461125 q -0.429063,0.07571 -1.034796,0.10095 -0.605735,0.02522 -1.009558,0.02522 -0.555255,0 -0.807645,-0.353343 -0.252398,-0.378578 -0.378592,-0.908596 z M 96.938878,9.5892758 q 0.605732,0 1.261947,0.22715 h 3.003425 q 0.12621,0.2271512 0.20192,0.5804952 0.10095,0.328106 0.10095,0.807645 0,0.555257 -0.25239,0.807645 -0.25238,0.227151 -0.63097,0.227151 -0.12621,0 -0.25239,0 -0.12621,-0.02523 -0.27762,-0.05048 0.27762,0.429062 0.42905,0.984319 0.17667,0.555254 0.17667,1.287183 0,2.044353 -0.959081,3.079148 -0.933838,1.034794 -3.129625,1.034794 -0.201919,0 -0.353347,0 -0.151432,0 -0.328103,-0.02522 -0.302868,0.429064 -0.302868,0.706691 0,0.302865 0.630971,0.353345 0.630973,0.02522 1.539574,0.176664 1.615293,0.277629 2.473419,0.95908 0.85812,0.681449 0.85812,2.170547 0,0.933838 -0.27763,1.741485 -0.25239,0.832884 -0.83288,1.438618 -0.580497,0.605734 -1.489098,0.959078 -0.908603,0.353345 -2.195786,0.353345 -1.287185,0 -2.09483,-0.277629 -0.807645,-0.252388 -1.261947,-0.65621 -0.429062,-0.403825 -0.580494,-0.908601 -0.151433,-0.504781 -0.151433,-0.984317 0,-0.883363 0.454301,-1.615294 0.479538,-0.706685 1.236706,-1.236703 -0.65621,-0.201921 -1.034793,-0.555255 -0.353346,-0.353346 -0.302868,-0.883363 0.02522,-0.530017 0.378583,-1.110513 0.378585,-0.580495 1.186227,-1.236707 -0.807642,-0.555258 -1.160988,-1.4891 -0.328105,-0.959078 -0.328105,-2.170546 0,-1.337663 0.277627,-2.246264 0.302865,-0.908601 0.858124,-1.438618 0.555255,-0.555257 1.337661,-0.7824072 0.807646,-0.22715 1.791964,-0.22715 z M 96.812687,11.58315 q -0.504778,0 -0.832884,0.555257 -0.302867,0.530016 -0.302867,2.019113 0,1.337662 0.227149,1.842439 0.227151,0.479541 0.832884,0.479541 0.277629,0 0.479542,-0.10095 0.227151,-0.126206 0.353343,-0.42906 0.151432,-0.302867 0.20192,-0.832884 0.07571,-0.555257 0.07571,-1.41338 0,-1.211467 -0.227151,-1.665769 -0.227149,-0.454299 -0.807644,-0.454299 z m 1.438619,11.736094 q 0,-0.302864 -0.07571,-0.504778 -0.05049,-0.20192 -0.277629,-0.353343 -0.20192,-0.151432 -0.630976,-0.252391 -0.40382,-0.10095 -1.13575,-0.176665 -0.42906,0.328107 -0.706689,0.782406 -0.252388,0.479541 -0.252388,1.034797 0,0.479538 0.302867,0.73193 0.302866,0.252388 1.160989,0.252388 0.454301,0 0.757166,-0.151432 0.328107,-0.151432 0.504781,-0.378584 0.201918,-0.22715 0.277625,-0.504779 0.07573,-0.252388 0.07573,-0.479538 z"
         id="text1"
         aria-label="svg" /><path
         style="font-weight:bold;font-size:12.2835px;line-height:1.25;font-family:'Yanone Kaffeesatz';-inkscape-font-specification:'Yanone Kaffeesatz Bold';white-space:pre;stroke-width:0.307171"
         d="m 73.602092,45.746279 q 0.411283,0 0.646298,0.06856 0.244811,0.05876 0.362319,0.156674 0.127305,0.08813 0.156682,0.195848 0.03915,0.107717 0.03915,0.195848 0,0.127305 -0.05876,0.274188 -0.05876,0.146885 -0.156681,0.254602 -0.195848,-0.107717 -0.411275,-0.156681 -0.205646,-0.04895 -0.430871,-0.04895 -0.460239,0 -0.460239,0.293768 0,0.07837 0.03915,0.186058 0.04894,0.107718 0.244811,0.303566 l 0.724639,0.734428 q 0.146884,0.166471 0.235015,0.313355 0.09792,0.146884 0.156681,0.283979 0.05876,0.137094 0.07837,0.293776 0.01961,0.146884 0.01961,0.332942 0,0.665877 -0.45045,1.037994 -0.44066,0.372109 -1.194668,0.372109 -0.235022,0 -0.450457,-0.02934 -0.205637,-0.02942 -0.362319,-0.08814 -0.146884,-0.06856 -0.244804,-0.176262 -0.08813,-0.117515 -0.08813,-0.283986 0,-0.117507 0.03915,-0.274181 0.03915,-0.16647 0.137094,-0.34274 0.205638,0.107718 0.421074,0.166472 0.225224,0.04895 0.430862,0.04895 0.254602,0 0.372116,-0.107719 0.127297,-0.117506 0.127297,-0.303565 0,-0.10771 -0.03915,-0.244804 -0.02942,-0.137095 -0.176268,-0.303566 l -0.851935,-0.900899 q -0.254602,-0.274189 -0.36232,-0.548378 -0.107718,-0.274188 -0.107718,-0.489624 0,-0.254601 0.07837,-0.479826 0.08813,-0.225226 0.274189,-0.381899 0.186051,-0.166471 0.489616,-0.254601 0.313364,-0.09792 0.773603,-0.09792 z M 75.022,46.167352 q -0.02933,-0.117508 -0.01961,-0.186058 0.0098,-0.06856 0.117507,-0.09792 0.117507,-0.02934 0.372117,-0.02934 0.254601,-0.0098 0.724631,-0.0098 l 0.176268,1.410102 q 0.03915,0.313356 0.06856,0.724638 0.03915,0.401487 0.06856,0.763806 0.03915,0.421073 0.05876,0.851944 h 0.01961 q 0.01961,-0.430871 0.05876,-0.851944 0.01961,-0.362319 0.04895,-0.763806 0.03915,-0.411282 0.07837,-0.724638 l 0.137095,-1.194675 q 0.0098,-0.07837 0.02942,-0.117508 0.02942,-0.04895 0.137094,-0.06856 0.107717,-0.01961 0.332942,-0.01961 0.235015,-0.0098 0.656088,-0.0098 l -0.979241,4.896202 q -0.166471,0.02933 -0.401485,0.03915 -0.235015,0.0098 -0.391696,0.0098 -0.215435,0 -0.313356,-0.137094 -0.09792,-0.146885 -0.146892,-0.352522 z m 4.857027,-0.421073 q 0.235015,0 0.489617,0.08813 h 1.165297 q 0.04895,0.08814 0.07837,0.225226 0.03915,0.127304 0.03915,0.313355 0,0.215435 -0.09792,0.313363 -0.09792,0.08814 -0.244804,0.08814 -0.04895,0 -0.09792,0 -0.04895,-0.0098 -0.107717,-0.01961 0.107717,0.166472 0.16647,0.381907 0.06856,0.215427 0.06856,0.499414 0,0.793182 -0.372117,1.194667 -0.362311,0.401494 -1.214254,0.401494 -0.07837,0 -0.137094,0 -0.05876,0 -0.127298,-0.0098 -0.117515,0.166471 -0.117515,0.274189 0,0.117507 0.244813,0.137094 0.244811,0.0098 0.597341,0.06856 0.626711,0.107718 0.959653,0.372117 0.332943,0.264392 0.332943,0.842146 0,0.362319 -0.107718,0.675675 -0.09792,0.323153 -0.323153,0.558167 -0.225225,0.235014 -0.577746,0.372108 -0.35253,0.137096 -0.851944,0.137096 -0.499413,0 -0.812769,-0.107718 -0.313355,-0.09792 -0.489616,-0.254602 -0.166471,-0.156674 -0.225224,-0.352521 -0.05876,-0.195849 -0.05876,-0.381907 0,-0.342732 0.176261,-0.626711 0.186051,-0.274189 0.479827,-0.479834 -0.254601,-0.07837 -0.401486,-0.215428 -0.137094,-0.137094 -0.117515,-0.342739 0.0098,-0.205638 0.146892,-0.430863 0.146884,-0.225225 0.46024,-0.479827 -0.313356,-0.215434 -0.450451,-0.577754 -0.127305,-0.372109 -0.127305,-0.842145 0,-0.518994 0.107718,-0.871524 0.117515,-0.35253 0.332943,-0.558167 0.215435,-0.215435 0.519,-0.303566 0.313356,-0.08814 0.695262,-0.08814 z m -0.04895,0.773603 q -0.195848,0 -0.323152,0.215426 -0.117508,0.205647 -0.117508,0.783394 0,0.519 0.08813,0.714848 0.08813,0.186059 0.323152,0.186059 0.107719,0 0.186051,-0.03915 0.08814,-0.04895 0.137094,-0.166472 0.05876,-0.117506 0.07837,-0.323144 0.02934,-0.215435 0.02934,-0.548378 0,-0.470037 -0.08814,-0.646298 -0.08813,-0.176261 -0.313355,-0.176261 z m 0.558168,4.553461 q 0,-0.117508 -0.02942,-0.195849 -0.01961,-0.07837 -0.107719,-0.137085 -0.07837,-0.05876 -0.244811,-0.09792 -0.156674,-0.03915 -0.44066,-0.06856 -0.166472,0.127296 -0.274181,0.303557 -0.09792,0.186059 -0.09792,0.401493 0,0.186051 0.117507,0.283979 0.117515,0.09792 0.45045,0.09792 0.176269,0 0.293776,-0.05876 0.127297,-0.05876 0.195848,-0.146884 0.07837,-0.08813 0.107718,-0.195848 0.02942,-0.09792 0.02942,-0.186059 z m 1.831175,-4.857027 q -0.09792,-0.215436 -0.117507,-0.44066 -0.01961,-0.235015 -0.01961,-0.362319 0,-0.117507 0.146892,-0.215435 0.156674,-0.09792 0.401485,-0.166464 0.254602,-0.07837 0.567958,-0.117515 0.313355,-0.04895 0.646297,-0.04895 0.832356,0 1.165299,0.352522 0.332942,0.352529 0.332942,1.028204 0,0.44066 -0.186058,0.832356 -0.186051,0.391696 -0.470037,0.793182 -0.283978,0.401485 -0.646298,0.851935 -0.352521,0.44066 -0.685464,0.989038 h 0.724639 q 0.303565,0 0.548369,-0.0098 0.254602,-0.01961 0.430871,-0.03915 0.205637,-0.02933 0.362319,-0.05876 0,0.342732 -0.0098,0.567956 0,0.215436 -0.02934,0.342741 -0.01961,0.127296 -0.07837,0.17626 -0.04894,0.04895 -0.137094,0.04895 h -3.231497 q -0.02942,-0.08813 -0.03915,-0.186058 0,-0.09792 0,-0.117508 0,-0.127305 0.0098,-0.225224 0.0098,-0.107717 0.03914,-0.195849 0.02942,-0.09792 0.07837,-0.195847 0.04895,-0.107718 0.127304,-0.254602 0.303566,-0.538588 0.646298,-0.97924 0.342733,-0.450458 0.626711,-0.822567 0.283979,-0.372108 0.470037,-0.695262 0.186058,-0.332942 0.186058,-0.6365 0,-0.254609 -0.156681,-0.381906 -0.156673,-0.137094 -0.421073,-0.137094 -0.117507,0 -0.283979,0.01961 -0.166471,0.01961 -0.352529,0.05876 -0.176261,0.03915 -0.352522,0.09792 -0.166471,0.04895 -0.293776,0.117515 z m 5.189969,-0.470037 q 0.411283,0 0.646298,0.06856 0.244812,0.05876 0.362319,0.156674 0.127305,0.08813 0.156682,0.195848 0.03915,0.107717 0.03915,0.195848 0,0.127305 -0.05876,0.274188 -0.05876,0.146885 -0.156674,0.254602 -0.195847,-0.107717 -0.411283,-0.156681 -0.205637,-0.04895 -0.430871,-0.04895 -0.460239,0 -0.460239,0.293768 0,0.07837 0.03915,0.186058 0.04895,0.107718 0.244811,0.303566 l 0.724639,0.734428 q 0.146885,0.166471 0.235015,0.313355 0.09792,0.146884 0.156681,0.283979 0.05876,0.137094 0.07837,0.293776 0.01961,0.146884 0.01961,0.332942 0,0.665877 -0.450458,1.037994 -0.440653,0.372109 -1.194668,0.372109 -0.235022,0 -0.45045,-0.02934 -0.205645,-0.02942 -0.362319,-0.08814 -0.146883,-0.06856 -0.244811,-0.176262 -0.08813,-0.117515 -0.08813,-0.283986 0,-0.117507 0.03915,-0.274181 0.03915,-0.16647 0.137094,-0.34274 0.205647,0.107718 0.421074,0.166472 0.225224,0.04895 0.43087,0.04895 0.254602,0 0.37211,-0.107719 0.127296,-0.117506 0.127296,-0.303565 0,-0.10771 -0.03915,-0.244804 -0.02934,-0.137095 -0.17626,-0.303566 l -0.851944,-0.900899 q -0.254602,-0.274189 -0.362319,-0.548378 -0.10771,-0.274188 -0.10771,-0.489624 0,-0.254601 0.07837,-0.479826 0.08813,-0.225226 0.274188,-0.381899 0.186059,-0.166471 0.489624,-0.254601 0.313356,-0.09792 0.773596,-0.09792 z m 1.468872,2.536235 q 0,-1.33177 0.421074,-1.929104 0.421073,-0.607131 1.204465,-0.607131 0.391696,0 0.675674,0.117507 0.293769,0.107718 0.479827,0.391696 0.186058,0.283979 0.274189,0.763813 0.09792,0.479827 0.09792,1.224044 0,0.70506 -0.107708,1.204466 -0.09792,0.489624 -0.303566,0.80298 -0.195849,0.303565 -0.499414,0.450449 -0.303566,0.137094 -0.695262,0.137094 -0.401485,0 -0.695262,-0.09792 -0.283979,-0.08813 -0.479826,-0.352529 -0.186058,-0.27419 -0.283979,-0.773603 -0.08813,-0.509204 -0.08813,-1.331762 z m 1.204466,-0.0098 q 0,0.577755 0.01961,0.910697 0.02942,0.323145 0.06856,0.489616 0.04895,0.166472 0.117508,0.215436 0.07837,0.03915 0.166471,0.03915 0.06856,0 0.137094,-0.03915 0.06856,-0.04895 0.117508,-0.215436 0.04895,-0.17626 0.07837,-0.499405 0.03915,-0.332943 0.03915,-0.900908 0,-0.528791 -0.01961,-0.842146 -0.0098,-0.313355 -0.05876,-0.479826 -0.03915,-0.166471 -0.107718,-0.215435 -0.06856,-0.04895 -0.176268,-0.04895 -0.07837,0 -0.156674,0.05876 -0.06856,0.04895 -0.117508,0.215428 -0.04895,0.16647 -0.07837,0.479834 -0.02942,0.313356 -0.02942,0.832348 z m 3.505677,2.271844 q 0,0.07837 -0.01961,0.117508 -0.01961,0.03915 -0.127298,0.05876 -0.09792,0.0098 -0.323153,0.01961 -0.215435,0 -0.626711,0 v -6.717562 q 0,-0.17626 0.03915,-0.27418 0.04895,-0.09792 0.166472,-0.137094 0.127305,-0.04895 0.342732,-0.05876 0.215435,-0.0098 0.548378,-0.0098 z m 1.762625,0 q 0,0.07837 -0.01961,0.117508 -0.01961,0.03915 -0.127297,0.05876 -0.09792,0.0098 -0.332943,0.01961 -0.225224,0 -0.636507,0 v -4.416375 q 0,-0.176268 0.04895,-0.274189 0.04895,-0.09792 0.16647,-0.137094 0.127305,-0.04895 0.342733,-0.05876 0.215434,-0.0098 0.558166,-0.0098 z m -1.067367,-6.130093 q 0,-0.342732 0.137094,-0.54837 0.146885,-0.215436 0.46024,-0.215436 0.303566,0 0.411283,0.156683 0.107718,0.156673 0.107718,0.558167 0,0.401485 -0.156682,0.62671 -0.146884,0.215435 -0.430863,0.215435 -0.244811,0 -0.391696,-0.166471 -0.137094,-0.16647 -0.137094,-0.626718 z m 3.535062,2.3208 q -0.07837,-0.04895 -0.205645,-0.04895 -0.07837,0 -0.166463,0.03915 -0.07837,0.03915 -0.146892,0.205637 -0.06856,0.166471 -0.117507,0.509211 -0.04895,0.332943 -0.04895,0.940066 0,0.44066 0.01961,0.724639 0.01961,0.283978 0.05876,0.460247 0.04895,0.166471 0.117507,0.235015 0.06856,0.06856 0.16647,0.06856 0.195849,0 0.323154,-0.09792 z m 0,-2.712496 q 0,-0.176261 0.03915,-0.274182 0.04895,-0.09792 0.166471,-0.137094 0.117508,-0.04895 0.332943,-0.05876 0.215436,-0.0098 0.558164,-0.0098 v 7.001574 q -0.254598,0.10771 -0.607128,0.195849 -0.342732,0.09792 -0.822559,0.09792 -0.313355,0 -0.597334,-0.06856 -0.283986,-0.06856 -0.509211,-0.313363 -0.215427,-0.244804 -0.352521,-0.695255 -0.127305,-0.460247 -0.127305,-1.243639 0,-0.754016 0.09792,-1.282806 0.107717,-0.52879 0.283977,-0.851935 0.18606,-0.332943 0.430864,-0.479827 0.244811,-0.156682 0.52879,-0.156682 0.195848,0 0.342732,0.04895 0.146892,0.04895 0.235022,0.127297 z m 1.664698,6.090876 q 0,-0.283979 0.17627,-0.499413 0.18605,-0.215428 0.518988,-0.215428 0.40149,0 0.54838,0.195849 0.14689,0.195847 0.14689,0.518992 0,0.283979 -0.18605,0.489624 -0.17627,0.205638 -0.50922,0.205638 -0.411268,0 -0.558168,-0.176261 -0.13709,-0.186058 -0.13709,-0.519001 z m 1.938888,-3.92675 q 0.25461,-0.176261 0.59734,-0.303566 0.35253,-0.137094 0.76382,-0.137094 0.40148,0 0.52878,0.117507 0.1273,0.117507 0.1273,0.372117 0,0.09792 -0.0196,0.274181 -0.0196,0.176268 -0.0882,0.362319 -0.10771,-0.04895 -0.19585,-0.05876 -0.0881,-0.01961 -0.16647,-0.01961 -0.0881,0 -0.20563,0.03915 -0.11752,0.03915 -0.21544,0.117507 l -0.01,3.593817 q 0,0.07837 -0.0196,0.117506 -0.0196,0.03915 -0.12729,0.05876 -0.0979,0.0098 -0.32316,0.01961 -0.22521,0 -0.64629,0 z m 2.43832,-2.164126 q 0,-0.176261 0.0392,-0.274182 0.0489,-0.09792 0.17626,-0.137094 0.1273,-0.04895 0.33295,-0.05876 0.21543,-0.0098 0.55816,-0.0098 v 2.477482 q 0.19585,-0.107718 0.46025,-0.186059 0.26439,-0.08814 0.57775,-0.08814 0.24481,0 0.40148,0.07837 0.16647,0.07837 0.25461,0.195849 0.0881,0.117507 0.11751,0.264391 0.0392,0.146892 0.0392,0.293776 0,0.274189 -0.0587,0.509204 -0.0587,0.235013 -0.14688,0.421073 -0.0784,0.186058 -0.17627,0.323152 -0.0979,0.137095 -0.18606,0.225225 0.38191,0.283979 0.53859,0.773594 0.15668,0.489624 0.16647,1.077169 0,0.332943 -0.0294,0.665885 -0.01,0.05876 -0.0392,0.09792 -0.0196,0.02942 -0.13709,0.04895 -0.11751,0.0098 -0.37212,0.01961 -0.2448,0 -0.70504,0 0.0196,-0.254611 0.0294,-0.499415 0.0196,-0.254601 0.0196,-0.489624 0,-0.567956 -0.10771,-0.89111 -0.0979,-0.332942 -0.38191,-0.283978 -0.10772,0.02942 -0.19585,0.07837 -0.0391,0.02934 -0.0686,0.05876 v 1.831184 q 0,0.07837 -0.0196,0.117507 -0.01,0.03915 -0.11751,0.05876 -0.0979,0.0098 -0.32316,0.01961 -0.22521,0 -0.64628,0 z m 1.72347,2.967105 q 0,-0.2644 -0.19585,-0.2644 -0.1273,0 -0.23502,0.07837 -0.0979,0.06856 -0.18605,0.195848 v 0.97924 q 0.30356,-0.166471 0.46024,-0.391696 0.15668,-0.235022 0.15668,-0.597334 z m 1.88993,-0.920487 q 0.1175,-0.05876 0.29377,-0.107717 0.18606,-0.05876 0.39169,-0.107718 0.21544,-0.04895 0.43086,-0.07837 0.21544,-0.02933 0.4015,-0.02933 0.37211,0 0.6365,0.05876 0.26439,0.05876 0.43086,0.205647 0.17627,0.146883 0.2546,0.391696 0.0882,0.244804 0.0882,0.607122 v 3.535063 q 0,0.07837 -0.0196,0.117507 -0.0196,0.03915 -0.13709,0.05876 -0.10772,0.0098 -0.34274,0.01961 -0.22523,0 -0.63651,0 v -3.388178 q 0,-0.381898 -0.0587,-0.518993 -0.0587,-0.146883 -0.2644,-0.146883 -0.21542,0 -0.3721,0.117506 v 3.740701 q 0,0.07837 -0.0196,0.117507 -0.0196,0.03915 -0.1273,0.05876 -0.0979,0.0098 -0.32315,0.01961 -0.22523,0 -0.62671,0 z m 3.88758,0.705051 h -0.58754 q 0,-0.313354 0,-0.499413 0.01,-0.186058 0.0294,-0.274188 0.0196,-0.09792 0.0686,-0.127297 0.0489,-0.02933 0.12731,-0.02933 h 0.36231 v -1.419901 q 0,-0.127304 0.0489,-0.195847 0.049,-0.06856 0.16648,-0.09792 0.12729,-0.03915 0.33292,-0.03915 0.21544,-0.0098 0.54839,-0.0098 v 1.762633 h 0.80298 q 0,0.313355 -0.01,0.499406 0,0.186058 -0.0196,0.283986 -0.0196,0.09792 -0.0686,0.127296 -0.0392,0.01961 -0.11751,0.01961 h -0.58754 v 2.663531 q 0,0.166471 0.0294,0.323154 0.0293,0.146883 0.20564,0.146883 0.24481,0 0.5092,-0.127305 0.0196,0.107718 0.0392,0.235023 0.0293,0.127297 0.0293,0.293768 0,0.176261 -0.0881,0.283978 -0.0882,0.09792 -0.22523,0.156682 -0.1273,0.05876 -0.28397,0.06856 -0.15668,0.01961 -0.29378,0.01961 -0.32314,0 -0.52879,-0.09792 -0.19584,-0.08813 -0.30356,-0.264399 -0.10771,-0.176262 -0.14689,-0.430863 -0.0392,-0.264399 -0.0392,-0.587544 z m 2.42851,3.339207 q 0,-0.283979 0.17627,-0.499413 0.18606,-0.215428 0.519,-0.215428 0.40148,0 0.54837,0.195849 0.14688,0.195847 0.14688,0.518992 0,0.283979 -0.18605,0.489624 -0.17626,0.205638 -0.5092,0.205638 -0.41128,0 -0.55817,-0.176261 -0.1371,-0.186058 -0.1371,-0.519001 z m 3.56444,-3.37838 q -0.0784,-0.04895 -0.20565,-0.04895 -0.0783,0 -0.16647,0.03915 -0.0784,0.03915 -0.14688,0.205637 -0.0686,0.166471 -0.11751,0.509211 -0.0489,0.332943 -0.0489,0.940066 0,0.44066 0.0196,0.724639 0.0196,0.283978 0.0587,0.460247 0.0489,0.166471 0.1175,0.235015 0.0686,0.06856 0.16648,0.06856 0.19585,0 0.32315,-0.09792 z m 0,-2.712496 q 0,-0.176261 0.0391,-0.274182 0.0489,-0.09792 0.16647,-0.137094 0.11751,-0.04895 0.33294,-0.05876 0.21544,-0.0098 0.55818,-0.0098 v 7.001574 q -0.25461,0.10771 -0.60714,0.195849 -0.34273,0.09792 -0.82255,0.09792 -0.31336,0 -0.59735,-0.06856 -0.28398,-0.06856 -0.5092,-0.313363 -0.21544,-0.244804 -0.35252,-0.695255 -0.12731,-0.460247 -0.12731,-1.243639 0,-0.754016 0.0979,-1.282806 0.1077,-0.52879 0.28397,-0.851935 0.18606,-0.332943 0.43086,-0.479827 0.24482,-0.156682 0.5288,-0.156682 0.19585,0 0.34273,0.04895 0.14689,0.04895 0.23502,0.127297 z m 3.37836,1.723466 q 0.58754,0 0.92049,0.372109 0.33294,0.372117 0.33294,1.224052 0,0.35253 -0.0293,0.734428 -0.0294,0.372117 -0.10772,0.656096 -0.17627,0.03915 -0.40149,0.06856 -0.21543,0.01961 -0.45044,0.03915 -0.22523,0.01961 -0.45045,0.02942 -0.21544,0.0098 -0.3917,0.0098 0.0196,0.470036 0.14688,0.685472 0.13709,0.205638 0.48962,0.205638 0.26439,0 0.519,-0.06856 0.26439,-0.07837 0.51899,-0.205636 0.0489,0.146883 0.0686,0.362319 0.0196,0.205637 0.0196,0.372109 0,0.146892 -0.10771,0.264398 -0.10773,0.107718 -0.30357,0.186051 -0.18606,0.07837 -0.44067,0.117515 -0.25459,0.03915 -0.53857,0.03915 -0.33294,0 -0.61692,-0.09792 -0.2742,-0.09792 -0.47983,-0.35253 -0.19585,-0.264392 -0.31335,-0.714849 -0.10773,-0.45045 -0.10773,-1.145711 0,-0.891102 0.1371,-1.42969 0.14689,-0.54837 0.3819,-0.842146 0.23503,-0.303566 0.54838,-0.401486 0.31336,-0.107718 0.65608,-0.107718 z m -0.14688,0.949863 q -0.22523,0 -0.32315,0.323153 -0.0979,0.323145 -0.11751,0.99882 0.20564,0 0.41128,-0.01961 0.20564,-0.01961 0.31336,-0.06856 0.0293,-0.08813 0.0392,-0.235014 0.01,-0.156682 0.01,-0.274189 0,-0.235014 -0.0196,-0.372109 -0.0196,-0.146892 -0.0587,-0.225225 -0.0392,-0.07837 -0.10771,-0.09792 -0.0587,-0.02942 -0.14689,-0.02942 z"
         id="text2"
         aria-label="svg2solid.rknt.de" /></g></g></svg>
