<?xml version="1.0" encoding="UTF-8" standalone="no"?>
<!-- Created with Inkscape (http://www.inkscape.org/) -->

<svg
   width="50mm"
   height="50mm"
   viewBox="0 0 50 50"
   version="1.1"
   id="svg1"
   xml:space="preserve"
   xmlns="http://www.w3.org/2000/svg"
   xmlns:svg="http://www.w3.org/2000/svg"><defs
     id="defs1"><rect
       x="277.44387"
       y="173.21234"
       width="206.40939"
       height="45.40159"
       id="rect3" /><rect
       x="-45.516754"
       y="0.88342857"
       width="87.795021"
       height="63.975796"
       id="rect2" /><rect
       x="199.40019"
       y="292.48999"
       width="362.56128"
       height="149.03877"
       id="rect1" /><rect
       x="199.40019"
       y="292.48999"
       width="362.56128"
       height="149.03877"
       id="rect1-4" /><rect
       x="199.40019"
       y="292.48999"
       width="362.56128"
       height="149.03877"
       id="rect1-6" /></defs><path
     style="font-weight:bold;font-size:12.2835px;line-height:1.25;font-family:'Yanone Kaffeesatz';-inkscape-font-specification:'Yanone Kaffeesatz Bold';white-space:pre;fill:#9a9996;stroke-width:0.264583"
     d="m 28.454004,0.01178569 c -3.487673,0.248893 -7.143423,0.635057 -10.186065,2.50289401 -1.067693,0.769163 -1.631215,2.142099 -1.390101,3.4389764 0.0523,1.38124 0.205088,2.777255 0.673462,4.0857309 -0.802638,-0.03702 -1.604297,0.05849 -2.40853,0.01246 -0.538823,-0.01492 -1.084797,0.190457 -1.589513,0.236357 -1.748421,-0.7181059 -3.7833577,-0.5713519 -5.5145557,0.114844 -1.79932,0.841756 -2.74208,3.068192 -2.12366,4.952374 0.31705,1.123934 1.05931,2.065441 1.85792,2.892818 -0.45012,-0.362556 -0.78954,-0.361589 -0.9521,0.232795 -0.73797,1.260425 -1.47376,2.867859 -0.74602,4.297163 0.75881,1.435112 2.553193,1.767759 4.0358787,1.707915 1.681635,0.06607 3.406179,-0.702149 4.397758,-2.078253 0.265073,1.215567 1.464007,2.059602 2.688509,1.995906 0.680335,-0.0034 1.357353,-0.104486 2.033741,-0.164249 -0.04267,0.763755 0.132037,1.542398 0.510549,2.208227 -0.110062,0.481148 -0.441903,0.44161 -0.834595,0.316479 -1.68535,-0.256866 -3.547404,-0.04956 -4.969734,0.944539 -1.663164,1.273386 -2.015309,3.804956 -0.93074,5.562185 0.371868,0.673119 0.882012,1.256656 1.412357,1.808956 -0.444282,-0.369213 -0.777328,-0.356953 -0.944094,0.230571 -0.745553,1.262345 -1.487458,2.878739 -0.753583,4.312741 0.214169,0.401441 0.513101,0.709961 0.858631,0.954332 l -1.773793,0.262619 c -0.344242,0.152104 -0.53842,0.668604 -0.943648,0.502983 -0.750339,-0.141547 -1.4747077,0.112189 -2.2144577,0.01425 -0.909989,0.110094 -1.812799,-0.04964 -2.723229,0.05119 -0.8947,-0.182367 -1.89065,-0.233798 -2.6983,0.280423 -1.20982,0.62986 -1.47814,2.336902 -0.68993,3.400696 -0.70515,0.97669 -0.55784,2.704986 0.72287,3.117156 0.91543,0.331193 1.98978,0.266794 2.82516,-0.250601 0.34831,0.358565 0.9162,0.394342 1.34559,0.452684 0.5123,1.440654 2.314547,1.871239 3.6472887,1.419925 0.742316,-0.242035 1.424579,-0.771662 1.714591,-1.512509 0.870888,0.02788 1.747569,0.02483 2.609278,-0.05564 0.802457,0.276771 1.719283,0.169241 2.462834,-0.231906 0.755934,0.471527 1.747436,0.501168 2.558979,0.158016 0.844224,0.350766 1.771836,0.0079 2.651118,0.139322 0.391393,0.05172 0.797108,-0.137186 1.145731,-0.155346 0.824944,0.408535 1.793165,0.192851 2.626193,0.04629 0.770732,0.320095 1.598313,0.0155 2.3974,0.114395 0.665155,-0.09063 1.316546,0.03335 1.990116,-0.0035 1.761013,-0.0378 3.524818,0.01546 5.282653,-0.02671 0.352138,-0.01627 0.649952,-0.280081 0.969023,-0.0067 0.582853,0.22686 1.236802,0.08531 1.796493,-0.03694 0.561207,0.205808 1.190245,0.133135 1.729281,-0.104603 0.927291,0.435458 2.005336,0.25239 2.935996,-0.07567 1.139942,0.576981 2.80426,0.439347 3.600108,-0.64097 0.554213,-0.828321 0.04918,-1.816135 0.304902,-2.713434 0.217397,-1.203955 -0.148764,-2.656694 -1.341137,-3.213302 -0.512773,-0.238218 -1.122319,-0.30512 -1.665627,-0.163357 v -1.179116 c 0.01249,-0.0047 0.02489,-0.0096 0.03738,-0.01425 V 21.671191 c -1.608959,0.322193 -3.431628,-0.279388 -4.87003,0.722871 -1.063876,0.781589 -0.965457,2.250731 -0.914276,3.425177 -0.07261,0.331748 0.202737,0.987164 -0.321819,0.924508 -0.658497,0.133524 -1.281058,0.439191 -1.796932,0.868869 -0.02274,-0.364809 -0.269836,-0.647029 -0.07968,-1.001959 0.360261,-1.415022 0.278278,-3.23153 -1.023324,-4.151608 -0.490894,-0.155492 -0.302292,-0.410159 -0.01516,-0.731328 2.138906,-3.026722 4.229241,-6.338946 4.587823,-10.11707 C 40.733912,8.7444381 40.247273,5.6582287 38.499386,3.3043177 36.999225,1.3764537 34.589138,0.40406669 32.21255,0.16178969 c -1.244537,-0.170778 -2.504759,-0.176456 -3.758572,-0.150004 z"
     id="path16" /><path
     id="path31"
     style="font-weight:bold;font-size:12.2835px;line-height:1.25;font-family:'Yanone Kaffeesatz';-inkscape-font-specification:'Yanone Kaffeesatz Bold';white-space:pre;fill:#ffffff;stroke-width:0.264583"
     d="m 28.454004,0.01178548 c -3.487673,0.24889294 -7.143423,0.63505718 -10.186065,2.50289432 -1.067693,0.7691631 -1.631215,2.1420988 -1.390101,3.438976 0.0523,1.3812399 0.205088,2.7772545 0.673462,4.0857312 -0.802638,-0.03702 -1.604297,0.05849 -2.40853,0.01246 -0.538823,-0.01492 -1.084797,0.190457 -1.589513,0.236357 C 11.804836,9.5700978 9.7698988,9.7168511 8.0386995,10.403048 6.2393774,11.244804 5.2966249,13.47124 5.9150447,15.355422 6.2320878,16.479356 6.9743531,17.420863 7.7729639,18.24824 7.322845,17.885684 6.9834206,17.886651 6.8208589,18.481035 6.08289,19.74146 5.3471003,21.348894 6.0748423,22.778198 c 0.7588128,1.435112 2.5531916,1.767759 4.0358777,1.707915 1.681635,0.06607 3.406179,-0.702149 4.397758,-2.078253 0.265073,1.215567 1.464007,2.059602 2.688509,1.995906 0.680335,-0.0034 1.357353,-0.104486 2.033741,-0.164249 -0.04267,0.763755 0.132037,1.542398 0.510549,2.208227 -0.110062,0.481148 -0.441903,0.44161 -0.834595,0.316479 -1.68535,-0.256866 -3.547404,-0.04956 -4.969734,0.944539 -1.663164,1.273386 -2.015309,3.804956 -0.93074,5.562185 0.371868,0.673119 0.882012,1.256656 1.412357,1.808956 -0.444282,-0.369213 -0.777328,-0.356953 -0.944094,0.230571 -0.745553,1.262345 -1.487458,2.878739 -0.753583,4.312741 0.214169,0.401441 0.513101,0.709961 0.858631,0.954332 l -1.773793,0.262619 c -0.344242,0.152104 -0.53842,0.668604 -0.943648,0.502983 -0.750339,-0.141547 -1.4747085,0.112189 -2.2144586,0.01425 -0.9099917,0.110094 -1.8127963,-0.04964 -2.7232273,0.05119 -0.8947018,-0.182367 -1.8906515,-0.233798 -2.6983005,0.280423 -1.2098231,0.62986 -1.4781368,2.336902 -0.689932,3.400696 -0.7051452,0.97669 -0.5578347,2.704986 0.7228702,3.117156 0.9154303,0.331193 1.9897822,0.266794 2.82516,-0.250601 0.3483153,0.358565 0.9162037,0.394342 1.3455889,0.452684 0.5122992,1.440654 2.3145491,1.871239 3.6472913,1.419925 0.742316,-0.242035 1.424579,-0.771662 1.714591,-1.512509 0.870888,0.02788 1.747569,0.02483 2.609278,-0.05564 0.802457,0.276771 1.719283,0.169241 2.462834,-0.231906 0.755934,0.471527 1.747436,0.501168 2.558979,0.158016 0.844224,0.350766 1.771836,0.0079 2.651118,0.139322 0.391393,0.05172 0.797108,-0.137186 1.145731,-0.155346 0.824944,0.408535 1.793165,0.192851 2.626193,0.04629 0.770732,0.320095 1.598313,0.0155 2.3974,0.114395 0.665155,-0.09063 1.316546,0.03335 1.990116,-0.0035 1.761013,-0.0378 3.524818,0.01546 5.282653,-0.02671 0.352138,-0.01627 0.649952,-0.280081 0.969023,-0.0067 0.582853,0.22686 1.236802,0.08531 1.796493,-0.03694 0.561207,0.205808 1.190245,0.133135 1.729281,-0.104603 0.927291,0.435458 2.005336,0.25239 2.935996,-0.07567 1.139942,0.576981 2.80426,0.439347 3.600108,-0.64097 0.554213,-0.828321 0.04918,-1.816135 0.304902,-2.713434 0.217397,-1.203955 -0.148764,-2.656694 -1.341137,-3.213302 -0.512773,-0.238218 -1.122319,-0.30512 -1.665627,-0.163357 v -1.179116 c 0.01249,-0.0047 0.02489,-0.0096 0.03738,-0.01425 V 21.671191 c -1.608959,0.322193 -3.431628,-0.279388 -4.87003,0.722871 -1.063876,0.781589 -0.965457,2.250731 -0.914276,3.425177 -0.07261,0.331748 0.202737,0.987164 -0.321819,0.924508 -0.658497,0.133524 -1.281058,0.439191 -1.796932,0.868869 -0.02274,-0.364809 -0.269836,-0.647029 -0.07968,-1.001959 0.360261,-1.415022 0.278278,-3.23153 -1.023324,-4.151608 -0.490894,-0.155492 -0.302292,-0.410159 -0.01516,-0.731328 2.138906,-3.026722 4.229241,-6.338946 4.587823,-10.11707 C 40.733912,8.7444369 40.247273,5.6582289 38.499386,3.3043178 36.999225,1.3764536 34.589138,0.40406732 32.21255,0.16179001 30.968013,-0.00898806 29.707791,-0.01466603 28.453978,0.01178548 Z m 1.058044,1.66162272 c 3.456064,0 5.875652,0.7320128 7.258083,2.1957634 1.382414,1.4637506 2.073349,3.5983786 2.073349,6.4039024 0,1.829686 -0.386093,3.557887 -1.158634,5.18428 -0.77254,1.626387 -1.748403,3.272861 -2.927537,4.939912 -1.001643,1.416108 -2.146099,2.921745 -3.382444,4.484556 v 6.978103 c 0.493074,-0.0018 0.980523,-0.0041 1.434612,-0.01246 v -2.213569 c 0,-0.260875 0.03609,-0.463991 0.108608,-0.608919 0.07244,-0.144931 0.195984,-0.246489 0.369891,-0.304461 0.188413,-0.07247 0.441858,-0.115935 0.760706,-0.130419 0.318847,-0.01448 0.731953,-0.02137 1.239204,-0.02137 v 3.15232 c 0.512403,-0.04393 1.032273,-0.08782 1.449746,-0.131754 0.157611,-0.750649 0.362467,-1.360896 0.615602,-1.824981 0.275366,-0.492762 0.594222,-0.84777 0.956551,-1.065166 0.36232,-0.231887 0.753478,-0.348082 1.173776,-0.348082 0.289863,0 0.543317,0.03613 0.760705,0.108609 0.217398,0.07247 0.391693,0.166711 0.522128,0.282649 v -4.217486 c 0,-0.260874 0.02886,-0.463545 0.0868,-0.608474 0.07244,-0.144931 0.195536,-0.246487 0.369444,-0.304461 0.173916,-0.07247 0.420496,-0.115934 0.739343,-0.130419 0.318831,-0.01448 0.731945,-0.02181 1.239205,-0.02181 v 15.54394 c -0.376816,0.159422 -0.826073,0.304443 -1.347821,0.43488 -0.507243,0.14493 -1.116152,0.217217 -1.826313,0.217217 -0.463779,0 -0.905706,-0.05079 -1.326003,-0.15223 -0.420298,-0.101447 -0.797262,-0.333386 -1.130597,-0.695718 -0.133312,-0.151494 -0.254177,-0.33567 -0.367221,-0.540373 h -1.915343 v 0.736224 c 0,0.115946 -0.01464,0.202871 -0.04358,0.260839 -0.02894,0.05797 -0.123234,0.101431 -0.282654,0.130419 -0.144931,0.01448 -0.391063,0.02911 -0.738895,0.04362 h -1.017536 c -0.05047,-0.08684 -0.143846,-0.127464 -0.318701,-0.08146 l -0.077,0.0049 V 38.267394 H 31.3749 v 0.736224 c 0,0.115946 -0.01464,0.20287 -0.04367,0.260838 -0.02903,0.05797 -0.123234,0.101432 -0.282645,0.13042 -0.144931,0.01448 -0.38419,0.02911 -0.717534,0.04362 H 28.939619 V 38.267392 H 27.05321 c -0.01667,0.027 -0.0309,0.05796 -0.04807,0.08413 -0.289862,0.449281 -0.659505,0.782339 -1.108787,0.999733 -0.449286,0.202904 -0.963947,0.30446 -1.543667,0.30446 -0.133975,0 -0.262704,-0.0051 -0.388587,-0.01246 -0.30636,-0.199994 -0.675608,-0.152643 -1.010416,-0.164693 -0.0479,-0.01374 -0.09856,-0.02469 -0.144664,-0.04006 C 22.388724,39.308065 22.033716,39.04685 21.743854,38.655541 21.665934,38.540716 21.595,38.408913 21.527527,38.267398 h -1.730171 c -0.140721,0.206556 -0.308292,0.395472 -0.510104,0.562183 -0.652186,0.550736 -1.536045,0.826138 -2.652009,0.826138 -0.347833,0 -0.681333,-0.02151 -1.000178,-0.06499 -0.304354,-0.04348 -0.572442,-0.108894 -0.804327,-0.195851 -0.217397,-0.101447 -0.398558,-0.231831 -0.543489,-0.391258 -0.130435,-0.173918 -0.195851,-0.384348 -0.195851,-0.630732 0,-0.173915 0.02928,-0.376589 0.08724,-0.608475 0.05797,-0.246382 0.159527,-0.499829 0.304461,-0.760705 0.304351,0.159425 0.615897,0.28249 0.934746,0.369448 0.333336,0.07247 0.652204,0.108608 0.956556,0.108608 0.37682,0 0.652221,-0.07961 0.826138,-0.239028 0.07429,-0.06857 0.129488,-0.147557 0.174486,-0.231907 0.06912,-0.129567 0.108163,-0.275215 0.108163,-0.442001 0,-0.159423 -0.02928,-0.340584 -0.08724,-0.543488 -0.0028,-0.01317 -0.0094,-0.02715 -0.01291,-0.0405 -0.05121,-0.19237 -0.175065,-0.403013 -0.37835,-0.633402 l -1.891303,-2.000357 c -0.37682,-0.405801 -0.644904,-0.811593 -0.804327,-1.217395 -0.159424,-0.405807 -0.239028,-0.768129 -0.239028,-1.086977 0,-0.376815 0.05765,-0.731823 0.173595,-1.065166 0.130436,-0.333337 0.333553,-0.616059 0.608921,-0.847948 0.275368,-0.246381 0.637691,-0.434418 1.086976,-0.564854 0.463777,-0.144931 1.036091,-0.217663 1.717263,-0.217663 0.608709,0 1.087225,0.05079 1.435058,0.152231 0.362324,0.08696 0.630409,0.202705 0.804327,0.347637 0.08283,0.05734 0.14593,0.118664 0.200747,0.181608 0.585559,-0.947333 1.185928,-1.858232 1.804061,-2.724118 -0.136656,-0.07878 -0.261634,-0.162384 -0.365886,-0.255052 -0.246383,-0.231889 -0.413355,-0.492658 -0.500312,-0.782517 -0.08696,-0.289862 -0.130419,-0.572583 -0.130419,-0.847948 0,-0.507257 0.130382,-0.971135 0.391258,-1.391436 0.275364,-0.405801 0.63082,-0.760811 1.06561,-1.065166 -0.376815,-0.11595 -0.674176,-0.275607 -0.89157,-0.478501 -0.202902,-0.202903 -0.289823,-0.45635 -0.260839,-0.760706 0.01448,-0.304352 0.123358,-0.623216 0.326272,-0.956556 0.217395,-0.333341 0.557769,-0.688349 1.021544,-1.065166 -0.463775,-0.318849 -0.797278,-0.746586 -1.000179,-1.282828 -0.188409,-0.550735 -0.282204,-1.173828 -0.282204,-1.869492 0,-0.768131 0.07961,-1.413174 0.239027,-1.934925 0.173917,-0.521748 0.420048,-0.934854 0.738895,-1.239207 0.318848,-0.318846 0.703126,-0.543469 1.152409,-0.673907 0.463777,-0.130436 0.978436,-0.195407 1.543667,-0.195407 0.34783,0 0.710156,0.06497 1.086976,0.195407 h 2.587029 c 0.07244,0.130438 0.130107,0.297411 0.173589,0.500312 0.05797,0.188411 0.08725,0.419906 0.08725,0.695273 0,0.318848 -0.0727,0.550788 -0.217664,0.695718 -0.144932,0.130439 -0.326092,0.195852 -0.543489,0.195852 h -0.217216 c -0.07244,-0.01449 -0.152072,-0.02912 -0.239026,-0.04362 0.159428,0.246382 0.282481,0.529101 0.369443,0.847948 0.101451,0.318847 0.152236,0.688491 0.152236,1.108787 0,1.173938 -0.275401,2.057797 -0.826144,2.652009 -0.536239,0.594212 -1.434734,0.89157 -2.69563,0.89157 h -0.304448 c -0.08696,0 -0.181198,-0.0073 -0.28265,-0.02181 -0.173917,0.246382 -0.260838,0.449498 -0.260838,0.608921 0,0.173916 0.181163,0.275028 0.543488,0.304015 0.362325,0.01448 0.804257,0.06527 1.326004,0.15223 0.23476,0.04035 0.454981,0.08857 0.66189,0.143773 0.167999,-0.220243 0.377498,-0.495512 0.540817,-0.709517 1.179135,-1.545068 2.155007,-2.988773 2.927538,-4.330545 0.772541,-1.382433 1.158643,-2.703762 1.158643,-3.964215 0,-1.057154 -0.325144,-1.8501312 -0.9757,-2.3787064 -0.650555,-0.5692378 -1.524821,-0.8537348 -2.622633,-0.8537348 -0.487915,0 -1.07768,0.04064 -1.768895,0.1219621 -0.691216,0.08132 -1.423228,0.2032492 -2.195764,0.3658864 -0.731885,0.1626327 -1.46345,0.3662894 -2.195326,0.6102487 -0.691214,0.2032973 -1.301301,0.4471534 -1.829877,0.731773 v 0.06098 C 18.981185,9.1956122 18.737401,8.2807118 18.656081,7.3455374 18.574762,6.3697035 18.534119,5.6173695 18.534119,5.0887929 c 0,-0.4879172 0.304817,-0.934986 0.914716,-1.3415834 0.650554,-0.4065973 1.484177,-0.752505 2.500668,-1.0371232 1.057155,-0.3252779 2.236235,-0.5691338 3.537347,-0.7317728 1.301111,-0.2032988 2.642767,-0.3049053 4.025198,-0.3049053 z M 11.012973,11.509609 c 0.608707,0 1.086783,0.05078 1.434612,0.15223 0.362328,0.08696 0.630411,0.202706 0.804327,0.347637 0.188408,0.130438 0.304603,0.275456 0.348082,0.43488 0.05798,0.159423 0.0868,0.304443 0.0868,0.434879 0,0.188408 -0.04346,0.391081 -0.130419,0.608475 -0.08696,0.217397 -0.202706,0.405876 -0.347637,0.565299 -0.289857,-0.159423 -0.594088,-0.275171 -0.912935,-0.347636 -0.304355,-0.07247 -0.623217,-0.109054 -0.956557,-0.109054 -0.681172,0 -1.02199,0.217752 -1.02199,0.652542 0,0.115945 0.02883,0.253646 0.0868,0.413068 0.07247,0.159424 0.253628,0.384045 0.543489,0.673908 l 1.609099,1.630464 c 0.217393,0.246381 0.39124,0.477877 0.521676,0.695274 0.144929,0.217394 0.260681,0.427829 0.347637,0.630731 0.08696,0.2029 0.145055,0.420208 0.174041,0.652097 0.02898,0.217397 0.04362,0.463974 0.04362,0.73934 0,0.985526 -0.333498,1.753636 -1.000178,2.304371 -0.652188,0.550736 -1.53649,0.826138 -2.6524541,0.826138 -0.347833,0 -0.6808869,-0.02196 -0.9997336,-0.06543 C 8.6868989,22.705342 8.4188101,22.640378 8.1869205,22.553417 7.969525,22.451971 7.7883632,22.321141 7.6434325,22.161714 7.5129959,21.987797 7.4475812,21.777808 7.4475812,21.531427 c 0,-0.173916 0.029269,-0.376587 0.087242,-0.608475 0.057969,-0.246382 0.1590836,-0.500277 0.3040159,-0.76115 0.3043527,0.159424 0.6158986,0.28249 0.9347462,0.369447 0.3333381,0.07248 0.6522029,0.109054 0.9565565,0.109054 0.3768202,0 0.6522212,-0.08005 0.8261382,-0.239473 0.188409,-0.173917 0.282649,-0.398541 0.282649,-0.673907 0,-0.159425 -0.02883,-0.340586 -0.0868,-0.543489 -0.04347,-0.202902 -0.173859,-0.427527 -0.391258,-0.673908 L 8.4695705,16.509615 C 8.0927512,16.103812 7.8246658,15.698024 7.6652429,15.292219 7.5058208,14.886415 7.42577,14.524088 7.42577,14.205243 c 0,-0.37682 0.058098,-0.731827 0.174041,-1.065166 0.1304375,-0.33334 0.3335526,-0.616061 0.6089207,-0.847948 C 8.4840981,12.045747 8.8464243,11.857267 9.2957077,11.72683 9.759485,11.5819 10.331798,11.509613 11.01297,11.509613 Z m 5.804329,0.217217 0.391258,3.13051 c 0.05797,0.463778 0.108748,0.999945 0.15223,1.608654 0.05797,0.594214 0.108749,1.159653 0.15223,1.695896 0.05797,0.623202 0.101431,1.253611 0.130419,1.891304 h 0.04362 c 0.02899,-0.637693 0.07246,-1.268102 0.13042,-1.891304 0.02898,-0.536243 0.06513,-1.101682 0.108609,-1.695896 0.05797,-0.608709 0.116065,-1.144876 0.17404,-1.608654 l 0.30446,-2.652009 c 0.0145,-0.115943 0.036,-0.203314 0.06499,-0.261283 0.04347,-0.07247 0.145033,-0.1228 0.304461,-0.151785 0.159423,-0.02899 0.406002,-0.04362 0.739339,-0.04362 0.347834,-0.01449 0.833225,-0.02181 1.456424,-0.02181 L 18.795848,22.59659 c -0.246381,0.04347 -0.543736,0.07275 -0.89157,0.08724 -0.347831,0.01448 -0.637426,0.02137 -0.869314,0.02137 -0.318846,0 -0.550787,-0.101113 -0.695718,-0.304015 -0.144936,-0.217393 -0.253808,-0.478608 -0.326271,-0.782962 l -1.847682,-9.17387 c -0.04349,-0.173917 -0.05812,-0.31162 -0.04362,-0.41307 0.01449,-0.101452 0.101409,-0.174182 0.260839,-0.217662 0.173916,-0.04347 0.449318,-0.06499 0.826137,-0.06499 0.376819,-0.0145 0.912989,-0.02181 1.608655,-0.02181 z m 8.021903,1.500045 c -0.289858,0 -0.528674,0.159655 -0.717084,0.478502 -0.173917,0.304354 -0.260839,0.883984 -0.260839,1.739073 0,0.768131 0.06497,1.296984 0.195407,1.586843 0.130437,0.27537 0.369695,0.413068 0.717529,0.413068 0.159425,0 0.297123,-0.02883 0.413069,-0.0868 0.130438,-0.07248 0.231996,-0.195983 0.30446,-0.369893 0.08696,-0.173915 0.144603,-0.412731 0.173596,-0.717083 0.04347,-0.318849 0.06543,-0.724634 0.06543,-1.217397 0,-0.695666 -0.06541,-1.174181 -0.195851,-1.435057 -0.130437,-0.260873 -0.362377,-0.391259 -0.695719,-0.391259 z m -0.586665,9.000272 c -0.246381,0.188411 -0.449496,0.413035 -0.60892,0.673907 -0.144927,0.27537 -0.217217,0.572278 -0.217218,0.891125 0,0.145927 0.02594,0.272613 0.07478,0.38191 0.503899,-0.662046 0.942257,-1.236784 1.414138,-1.856138 -0.188767,-0.03273 -0.400823,-0.06371 -0.66278,-0.0908 z m 9.991548,1.471557 c 0.449283,0 0.753961,0.116194 0.913381,0.348081 0.159428,0.231887 0.239026,0.644991 0.239026,1.239207 0,0.594215 -0.115749,1.057654 -0.347634,1.390992 -0.217398,0.318847 -0.536254,0.4785 -0.95656,0.4785 -0.362321,0 -0.652373,-0.123065 -0.869762,-0.369447 -0.202909,-0.246382 -0.304454,-0.710266 -0.304454,-1.391436 0,-0.507258 0.101545,-0.913043 0.304454,-1.217396 0.217389,-0.318847 0.55777,-0.478501 1.021549,-0.478501 z m -5.304461,4.397758 c -0.496098,0.698825 -0.988801,1.416856 -1.475121,2.169503 0.09462,0.271868 0.174406,0.573923 0.236355,0.911154 0.04281,0.209879 0.07709,0.442315 0.107273,0.686371 h 1.131493 z M 17.983063,30.43822 c -0.681173,0 -1.021988,0.217308 -1.021988,0.652097 0,0.115949 0.02928,0.253652 0.08724,0.413069 0.07247,0.159422 0.253628,0.384047 0.543489,0.673908 l 0.506098,0.51322 c 0.0247,-0.05209 0.04429,-0.104154 0.07033,-0.156236 0.203296,-0.447259 0.467476,-0.975611 0.792754,-1.585508 0.06459,-0.114583 0.131733,-0.222548 0.196742,-0.336063 -0.07282,-0.02165 -0.143707,-0.04897 -0.218107,-0.06588 -0.304355,-0.07247 -0.623218,-0.108609 -0.956558,-0.108609 z m 22.326193,0 c -0.115827,7.1e-5 -0.238725,0.0289 -0.369005,0.0868 -0.115947,0.05797 -0.22483,0.210306 -0.326272,0.456691 -0.10145,0.24638 -0.188361,0.622896 -0.260835,1.130152 -0.01395,0.09509 -0.02033,0.233877 -0.03161,0.344076 2.84e-4,-0.02809 6.46e-4,-0.05455 8.61e-4,-0.08279 -0.05108,0.468414 -0.07787,1.071272 -0.07787,1.82587 0,0.330701 0.0043,0.620372 0.01249,0.888455 -2.75e-4,0.0086 -7.15e-4,0.01656 -8.61e-4,0.02538 8.61e-4,0.04199 0.0043,0.07241 0.0052,0.11306 6.9e-5,0.0019 -6e-5,0.0034 0,0.0053 -8e-6,4.41e-4 1.7e-5,8.19e-4 0,0.0014 0.0069,0.20637 0.01464,0.406553 0.02627,0.575092 0.02903,0.420297 0.07244,0.761115 0.130418,1.021989 0.07244,0.246379 0.159833,0.420225 0.261283,0.521677 0.101442,0.101447 0.224521,0.15223 0.369453,0.15223 0.289863,0 0.529121,-0.07273 0.717525,-0.217661 V 30.546873 C 40.65043,30.474459 40.49822,30.438327 40.310031,30.438264 Z M 22.062119,40.755594 v 6.030893 c 0,0.045 -0.0057,0.07856 -0.01692,0.101042 -0.01126,0.02248 -0.04811,0.03948 -0.109945,0.05074 -0.05623,0.0056 -0.148861,0.01128 -0.278198,0.01692 h -0.539927 v -5.786524 c 0,-0.101215 0.01134,-0.179683 0.03382,-0.235912 0.02811,-0.05623 0.07584,-0.09546 0.143328,-0.117957 0.0731,-0.02811 0.171407,-0.04511 0.295113,-0.05074 0.12371,-0.0056 0.281527,-0.0084 0.472715,-0.0084 z m 4.588268,0 v 6.030893 c -0.146199,0.06185 -0.320577,0.118087 -0.523013,0.168699 -0.196809,0.05623 -0.433092,0.08413 -0.708627,0.08413 -0.179939,0 -0.351039,-0.01983 -0.51411,-0.0592 -0.163075,-0.03937 -0.309553,-0.129166 -0.438886,-0.269741 -0.123706,-0.140576 -0.224845,-0.340018 -0.303569,-0.598683 -0.0731,-0.26429 -0.109499,-0.621545 -0.109499,-1.071397 0,-0.432983 0.0279,-0.801131 0.08413,-1.104781 0.06185,-0.30365 0.1436,-0.548437 0.244815,-0.733998 0.106842,-0.191188 0.230208,-0.328723 0.370783,-0.41307 0.140579,-0.08997 0.292729,-0.135315 0.4558,-0.135315 0.112463,0 0.210766,0.01418 0.295113,0.04228 0.08435,0.02811 0.15192,0.06451 0.202528,0.109499 v -1.636251 c 0,-0.101216 0.01134,-0.179683 0.03382,-0.235913 0.02811,-0.05623 0.07584,-0.09591 0.143328,-0.1184 0.06748,-0.02811 0.162945,-0.04466 0.286655,-0.0503 0.123711,-0.0056 0.28392,-0.0084 0.480726,-0.0084 z m 5.212771,0 v 2.133892 c 0.112459,-0.06185 0.244771,-0.115256 0.396594,-0.160242 0.151822,-0.05061 0.317702,-0.07612 0.497647,-0.07612 0.140573,0 0.255444,0.02265 0.345403,0.06766 0.09559,0.04501 0.168835,0.101239 0.219448,0.1687 0.05056,0.06748 0.08459,0.143554 0.101484,0.2279 0.02248,0.08435 0.03342,0.16848 0.03342,0.252826 0,0.15745 -0.01662,0.303487 -0.0503,0.438441 -0.03368,0.134952 -0.0758,0.255928 -0.126412,0.36277 -0.04505,0.106842 -0.09558,0.19992 -0.15178,0.278643 -0.05625,0.07873 -0.110064,0.14302 -0.160685,0.193627 0.2193,0.163071 0.374284,0.385185 0.464252,0.66634 0.08997,0.28116 0.137705,0.590681 0.14333,0.92807 0,0.191188 -0.0086,0.382123 -0.02541,0.573311 -0.006,0.03374 -0.01705,0.06209 -0.03385,0.08458 -0.01128,0.01689 -0.05048,0.03107 -0.117954,0.04228 -0.06744,0.0056 -0.174278,0.01128 -0.320484,0.01692 H 32.47027 c 0.01128,-0.146206 0.01973,-0.289853 0.02541,-0.430428 0.01128,-0.146202 0.01688,-0.286568 0.01688,-0.421527 0,-0.32614 -0.03075,-0.58226 -0.09259,-0.767827 -0.05625,-0.191187 -0.165853,-0.272486 -0.328942,-0.244369 -0.06185,0.01689 -0.118092,0.0391 -0.168697,0.06721 -0.02248,0.01685 -0.04229,0.03385 -0.05917,0.05074 v 1.577495 c 0,0.04501 -0.006,0.07856 -0.01688,0.101042 -0.006,0.02248 -0.03928,0.03948 -0.101046,0.05074 -0.05625,0.0056 -0.14929,0.01128 -0.278639,0.01692 H 30.91019 v -5.786524 c 0,-0.101215 0.01085,-0.179683 0.03342,-0.235912 0.02808,-0.05623 0.07907,-0.09591 0.152227,-0.118401 0.07313,-0.02811 0.168567,-0.04466 0.286659,-0.05029 0.123707,-0.0056 0.283919,-0.0084 0.48073,-0.0084 z m 11.614444,0 v 6.030893 c -0.146207,0.06185 -0.320579,0.118087 -0.523015,0.168699 -0.196811,0.05623 -0.43265,0.08413 -0.70818,0.08413 -0.179945,0 -0.351484,-0.01983 -0.514556,-0.0592 -0.163071,-0.03937 -0.309553,-0.129166 -0.438886,-0.269741 -0.123716,-0.140576 -0.224856,-0.340018 -0.303567,-0.598683 -0.07313,-0.26429 -0.109504,-0.621545 -0.109504,-1.071397 0,-0.432983 0.02791,-0.801131 0.08416,-1.104781 0.06184,-0.30365 0.143596,-0.548437 0.244814,-0.733998 0.106842,-0.191188 0.230205,-0.328723 0.370778,-0.41307 0.140591,-0.08997 0.292732,-0.135315 0.455803,-0.135315 0.112467,0 0.210774,0.01418 0.295118,0.04228 0.08433,0.02811 0.151917,0.06451 0.202521,0.109499 v -1.636251 c 0,-0.101216 0.01137,-0.179683 0.03385,-0.235913 0.02808,-0.05623 0.0758,-0.09591 0.143329,-0.1184 0.06744,-0.02811 0.162942,-0.04466 0.28665,-0.0503 0.123716,-0.0056 0.283911,-0.0084 0.480731,-0.0084 z m -20.302246,0.09258 c 0.174319,0 0.292459,0.04489 0.354314,0.13487 0.06185,0.08997 0.09258,0.250174 0.09258,0.480727 0,0.230547 -0.0449,0.410595 -0.134871,0.539927 -0.08434,0.123711 -0.208157,0.185614 -0.371228,0.185614 -0.14058,0 -0.253053,-0.04774 -0.337399,-0.143328 -0.07873,-0.09559 -0.117956,-0.275636 -0.117956,-0.539927 0,-0.196809 0.03924,-0.354185 0.117956,-0.47227 0.08434,-0.123711 0.21666,-0.185613 0.396599,-0.185613 z m 15.140217,0.371228 V 42.7377 h 0.691711 c 0,0.17994 -0.0026,0.323147 -0.0086,0.429983 0,0.106842 -0.006,0.188582 -0.01688,0.244815 -0.01128,0.05623 -0.0311,0.09263 -0.05918,0.109499 -0.02248,0.01126 -0.05607,0.01692 -0.101046,0.01692 H 38.31547 v 2.294134 c 0,0.09559 0.0086,0.18867 0.02541,0.278644 0.0168,0.08434 0.07588,0.126413 0.177155,0.126413 0.140581,0 0.286615,-0.03639 0.438438,-0.109498 0.01128,0.06185 0.02257,0.12898 0.03385,0.202083 0.0168,0.07309 0.02489,0.157678 0.02489,0.253272 0,0.101215 -0.02506,0.182959 -0.07571,0.244814 -0.05065,0.05623 -0.115387,0.101127 -0.194072,0.134871 -0.07313,0.03374 -0.154406,0.05313 -0.244375,0.05875 -0.08997,0.01126 -0.174545,0.01692 -0.253272,0.01692 -0.185553,0 -0.337264,-0.0279 -0.455355,-0.08413 -0.112459,-0.0506 -0.199869,-0.12668 -0.261723,-0.2279 -0.06184,-0.101216 -0.103914,-0.225027 -0.126412,-0.371228 -0.02248,-0.151827 -0.03385,-0.320537 -0.03385,-0.506098 l 4.48e-4,-2.311049 H 36.864794 V 43.10893 c 0.006,-0.106841 0.01421,-0.18575 0.02532,-0.236357 0.01128,-0.05623 0.0311,-0.09263 0.05917,-0.109499 0.02808,-0.01684 0.06443,-0.02538 0.109504,-0.02538 h 0.312025 v -1.223182 c 0,-0.0731 0.01421,-0.12934 0.04229,-0.1687 0.02817,-0.03937 0.07588,-0.06726 0.143329,-0.08413 0.07313,-0.02248 0.168576,-0.03383 0.286659,-0.03383 0.123708,-0.0056 0.281077,-0.0084 0.472263,-0.0084 z M 13.669432,41.8942 c 0.477969,0 0.812552,0.101139 1.00374,0.303569 0.191187,0.202435 0.286655,0.497786 0.286655,0.885784 0,0.253042 -0.0534,0.492158 -0.160242,0.717083 -0.106837,0.224927 -0.241536,0.452263 -0.404612,0.682811 -0.163069,0.230546 -0.348784,0.475333 -0.556841,0.733998 -0.20243,0.253042 -0.399483,0.537056 -0.59067,0.851954 h 0.624499 c 0.174318,0 0.331694,-0.0028 0.472269,-0.0084 0.146202,-0.01126 0.270008,-0.02261 0.371228,-0.03383 0.118084,-0.01684 0.222055,-0.03339 0.312027,-0.05029 0,0.196809 -0.0028,0.359853 -0.0084,0.489184 0,0.123711 -0.0085,0.22201 -0.02538,0.295113 -0.01126,0.0731 -0.03391,0.123668 -0.06766,0.151785 -0.02811,0.02811 -0.06733,0.04228 -0.117956,0.04228 H 12.02477 c -0.01689,-0.0506 -0.02824,-0.104008 -0.03383,-0.160242 V 46.69347 c 0,-0.0731 0.0028,-0.137843 0.0084,-0.194072 0.0056,-0.06185 0.01698,-0.118091 0.03383,-0.168699 0.01689,-0.05623 0.03911,-0.112466 0.06721,-0.168699 0.02811,-0.06185 0.06496,-0.134652 0.109944,-0.218998 0.174319,-0.309276 0.359588,-0.590459 0.556397,-0.843497 0.19681,-0.258669 0.376857,-0.494949 0.539927,-0.708627 0.163071,-0.213678 0.298215,-0.413116 0.405057,-0.598683 0.106841,-0.191187 0.160242,-0.37407 0.160242,-0.548384 0,-0.146206 -0.0449,-0.255843 -0.13487,-0.328942 -0.08997,-0.07873 -0.210943,-0.117956 -0.362771,-0.117956 -0.06748,0 -0.149221,0.0057 -0.244815,0.01692 -0.09559,0.01126 -0.196728,0.02781 -0.30357,0.05029 -0.101215,0.02248 -0.202354,0.05082 -0.303569,0.08458 -0.09559,0.02811 -0.180169,0.06167 -0.253272,0.101042 v 0.0084 c -0.05623,-0.123711 -0.0898,-0.250353 -0.101042,-0.379686 -0.01126,-0.134953 -0.01692,-0.238924 -0.01692,-0.312026 0,-0.06748 0.04206,-0.129381 0.126413,-0.185614 0.08997,-0.05623 0.205277,-0.103967 0.345856,-0.143328 0.146202,-0.04501 0.309244,-0.07856 0.489184,-0.101042 0.17994,-0.02811 0.365655,-0.04228 0.556842,-0.04228 z m -8.8226684,0.758924 c 0.2361731,0 0.4214427,0.01983 0.5563963,0.0592 0.140579,0.03374 0.244995,0.07864 0.3124726,0.13487 0.073103,0.0506 0.1180013,0.106844 0.1348701,0.1687 0.022481,0.06185 0.033386,0.118092 0.033386,0.1687 0,0.0731 -0.016555,0.152011 -0.050303,0.236356 -0.033739,0.08434 -0.078642,0.157588 -0.1348701,0.219443 -0.1124636,-0.06185 -0.2306078,-0.107199 -0.3543138,-0.135315 -0.1180891,-0.02811 -0.241895,-0.04185 -0.3712274,-0.04185 -0.264286,0 -0.3965995,0.08414 -0.3965995,0.252827 0,0.045 0.011344,0.0984 0.033825,0.160242 0.028106,0.06185 0.09851,0.149266 0.2109853,0.261729 l 0.6240548,0.632512 c 0.084344,0.09559 0.1519205,0.185394 0.2025285,0.269741 0.056229,0.08434 0.1011274,0.166089 0.1348701,0.244814 0.033739,0.07873 0.056402,0.162854 0.067659,0.252826 0.011258,0.08434 0.016917,0.179815 0.016917,0.286656 0,0.38237 -0.1294771,0.680557 -0.3881419,0.894241 -0.2530426,0.213678 -0.596133,0.320485 -1.029111,0.320485 -0.1349578,0 -0.2644323,-0.0085 -0.3881426,-0.02538 -0.118084,-0.01689 -0.2220546,-0.04195 -0.3120274,-0.07567 -0.084344,-0.03937 -0.1543108,-0.08994 -0.21054,-0.151785 -0.050605,-0.06748 -0.076118,-0.14922 -0.076118,-0.244814 0,-0.06748 0.011344,-0.145945 0.033825,-0.235912 0.022481,-0.09559 0.061716,-0.194338 0.1179564,-0.295559 0.1180848,0.06185 0.2390595,0.110035 0.3627707,0.143773 0.1293315,0.02811 0.2531426,0.04185 0.3712274,0.04185 0.146202,0 0.2530039,-0.03073 0.320485,-0.09258 0.073094,-0.06748 0.1094988,-0.154887 0.1094988,-0.261728 0,-0.06185 -0.011353,-0.131817 -0.033834,-0.210541 -0.01689,-0.07872 -0.06746,-0.166131 -0.1517831,-0.261725 L 3.8599262,44.593391 C 3.7137251,44.435942 3.6097544,44.27857 3.5478988,44.121122 3.486045,43.963673 3.45487,43.822861 3.45487,43.69915 c 0,-0.146201 0.022654,-0.283736 0.067659,-0.413068 0.050605,-0.129334 0.1290706,-0.238974 0.2359121,-0.328942 0.1068372,-0.09559 0.2476532,-0.168836 0.4219715,-0.219443 0.1799447,-0.05623 0.4020545,-0.08413 0.6663404,-0.08413 z m 5.4063934,0 c 0.134955,0 0.27577,0.0255 0.421972,0.07612 h 1.003739 c 0.02811,0.05061 0.05032,0.115351 0.06721,0.194071 0.02248,0.0731 0.03383,0.162904 0.03383,0.269741 0,0.12371 -0.0279,0.213953 -0.08413,0.270186 -0.05623,0.05061 -0.126639,0.07567 -0.210985,0.07567 h -0.08413 c -0.02811,-0.0056 -0.05929,-0.01128 -0.09303,-0.01692 0.06185,0.09559 0.109589,0.205232 0.143327,0.328942 0.03937,0.123706 0.0592,0.267352 0.0592,0.430428 0,0.455473 -0.106802,0.798565 -0.320485,1.029111 -0.208051,0.230552 -0.556809,0.345411 -1.046025,0.345411 h -0.117956 c -0.033739,0 -0.070588,-0.0028 -0.1099439,-0.0084 -0.067478,0.09559 -0.1010421,0.174501 -0.1010421,0.236356 0,0.06748 0.070407,0.106709 0.210986,0.117957 0.140579,0.0056 0.31212,0.02546 0.514555,0.0592 0.35988,0.06185 0.635396,0.168656 0.826584,0.320484 0.191187,0.151823 0.286655,0.393774 0.286655,0.725541 0,0.208056 -0.03073,0.401828 -0.09258,0.581768 -0.05623,0.185566 -0.149307,0.345773 -0.278644,0.480727 -0.129333,0.134953 -0.295211,0.24176 -0.497641,0.320484 -0.202436,0.07873 -0.446772,0.118402 -0.733554,0.118402 -0.2867798,0 -0.5202284,-0.03117 -0.7001688,-0.09303 -0.1799395,-0.05623 -0.3207555,-0.129025 -0.4219715,-0.218998 -0.095593,-0.08997 -0.1598872,-0.191552 -0.1936256,-0.304015 -0.033739,-0.112463 -0.050742,-0.2221 -0.050742,-0.328942 0,-0.196809 0.05057,-0.376411 0.1517845,-0.539481 C 8.9431828,46.966487 9.0807178,46.828511 9.249415,46.710423 9.1032104,46.665382 8.9879018,46.603477 8.9035554,46.524774 8.8248276,46.446046 8.7912709,46.34775 8.8025133,46.229661 8.8081121,46.111576 8.8502065,45.987766 8.9289266,45.858433 9.0132704,45.729101 9.1455865,45.591566 9.325526,45.445365 9.1455865,45.321654 9.0161085,45.15578 8.9373842,44.947723 8.864281,44.734045 8.8278854,44.492093 8.8278854,44.222182 c 0,-0.298024 0.030724,-0.548033 0.092584,-0.750467 0.067478,-0.202436 0.1633938,-0.363089 0.2871006,-0.481173 0.1237103,-0.12371 0.2725799,-0.210675 0.4468974,-0.261283 0.1799404,-0.05061 0.3793786,-0.07612 0.5986836,-0.07612 z m 6.486249,0 c 0.236173,0 0.421888,0.01983 0.556842,0.0592 0.14058,0.03374 0.24455,0.07864 0.312027,0.13487 0.0731,0.0506 0.118001,0.106844 0.13487,0.1687 0.02248,0.06185 0.03383,0.118092 0.03383,0.1687 0,0.0731 -0.01656,0.152011 -0.0503,0.236356 -0.03374,0.08434 -0.07909,0.157588 -0.135315,0.219443 -0.112463,-0.06185 -0.230603,-0.107199 -0.354314,-0.135315 -0.118084,-0.02811 -0.241445,-0.04185 -0.370782,-0.04185 -0.264286,0 -0.3966,0.08414 -0.3966,0.252827 0,0.045 0.01134,0.0984 0.03383,0.160242 0.02811,0.06185 0.09851,0.149266 0.210985,0.261729 l 0.624055,0.632512 c 0.08434,0.09559 0.15192,0.185394 0.202528,0.269741 0.05623,0.08434 0.101128,0.166089 0.13487,0.244814 0.03374,0.07873 0.05595,0.162854 0.06721,0.252826 0.01126,0.08434 0.01692,0.179815 0.01692,0.286656 0,0.38237 -0.129028,0.680557 -0.387697,0.894241 -0.25304,0.213678 -0.596129,0.320485 -1.029111,0.320485 -0.134958,0 -0.264436,-0.0085 -0.388143,-0.02538 -0.118088,-0.01689 -0.222059,-0.04195 -0.312028,-0.07567 -0.08434,-0.03937 -0.154751,-0.08994 -0.210985,-0.151785 -0.0506,-0.06748 -0.07567,-0.14922 -0.07567,-0.244814 0,-0.06748 0.01134,-0.145945 0.03383,-0.235912 0.02248,-0.09559 0.06172,-0.194338 0.117956,-0.295559 0.11809,0.06185 0.239065,0.110035 0.362771,0.143773 0.129331,0.02811 0.252693,0.04185 0.370782,0.04185 0.146202,0 0.253452,-0.03073 0.320929,-0.09258 0.07309,-0.06748 0.1095,-0.154887 0.1095,-0.261728 0,-0.06185 -0.01134,-0.131817 -0.03383,-0.210541 -0.01685,-0.07873 -0.06742,-0.166135 -0.151785,-0.261729 l -0.733999,-0.775839 c -0.146201,-0.157449 -0.250172,-0.314821 -0.312026,-0.472269 -0.06185,-0.157449 -0.09258,-0.298261 -0.09258,-0.421972 0,-0.146201 0.02265,-0.283736 0.06766,-0.413068 0.0506,-0.129334 0.12907,-0.238974 0.235912,-0.328942 0.106841,-0.09559 0.247653,-0.168836 0.421971,-0.219443 0.17994,-0.05623 0.402054,-0.08413 0.666341,-0.08413 z m 2.665807,0 c 0.224926,0 0.418698,0.03401 0.581768,0.101487 0.168693,0.06185 0.306674,0.174328 0.413514,0.337399 0.106842,0.163071 0.185305,0.382345 0.235913,0.657883 0.05623,0.275534 0.08458,0.627127 0.08458,1.054483 0,0.40487 -0.03118,0.750347 -0.09303,1.037123 -0.05623,0.281159 -0.143194,0.511772 -0.261284,0.691713 -0.112463,0.174317 -0.25611,0.303795 -0.430429,0.388142 -0.174318,0.07873 -0.373756,0.117956 -0.598682,0.117956 -0.230547,0 -0.429986,-0.0279 -0.598683,-0.08413 -0.163071,-0.0506 -0.301051,-0.152188 -0.413514,-0.304016 -0.106841,-0.157449 -0.188585,-0.379559 -0.244814,-0.66634 -0.05061,-0.292403 -0.07567,-0.674725 -0.07567,-1.147067 0,-0.76475 0.120975,-1.318613 0.362771,-1.661623 0.241795,-0.348637 0.587716,-0.523013 1.037567,-0.523013 z m 10.576876,0 c 0.230542,0 0.382252,0.03401 0.455355,0.101487 0.07313,0.06748 0.109944,0.174279 0.109944,0.320484 0,0.05623 -0.006,0.134697 -0.01688,0.235913 -0.01128,0.101218 -0.03669,0.205634 -0.07614,0.312472 -0.06184,-0.02811 -0.118091,-0.04511 -0.168704,-0.05074 -0.05056,-0.01126 -0.09832,-0.01692 -0.143321,-0.01692 -0.05056,0 -0.109668,0.01134 -0.177164,0.03383 -0.06744,0.02248 -0.129384,0.05605 -0.185613,0.101042 l -0.0086,3.09579 c 0,0.04501 -0.006,0.07856 -0.01688,0.101042 -0.01128,0.02248 -0.04763,0.03948 -0.109504,0.05074 -0.05625,0.0056 -0.14929,0.01128 -0.27864,0.01692 h -0.5564 V 43.03281 c 0.146206,-0.101215 0.317754,-0.188181 0.514556,-0.261284 0.202435,-0.07873 0.42171,-0.118401 0.657885,-0.118401 z m 5.347642,0 c 0.213676,0 0.396559,0.017 0.548381,0.05074 0.151823,0.03374 0.275634,0.09281 0.371227,0.177156 0.101226,0.08434 0.174019,0.196819 0.218999,0.3374 0.05065,0.140574 0.07614,0.314956 0.07614,0.523012 v 3.045047 c 0,0.04501 -0.006,0.07856 -0.01688,0.101042 -0.01128,0.02248 -0.05047,0.03948 -0.117953,0.05074 -0.06185,0.0056 -0.1606,0.01128 -0.295557,0.01692 h -0.547942 v -2.918634 c 0,-0.219299 -0.01705,-0.368172 -0.05073,-0.446897 -0.03368,-0.08434 -0.10934,-0.126414 -0.227458,-0.126414 -0.123699,0 -0.230955,0.03357 -0.320932,0.101042 v 3.222204 c 0,0.04501 -0.0052,0.07856 -0.01645,0.101042 -0.01128,0.02248 -0.04806,0.03948 -0.109943,0.05074 -0.05625,0.0056 -0.148851,0.01128 -0.278192,0.01692 H 34.02251 v -4.023415 c 0.06744,-0.03374 0.151607,-0.06491 0.252825,-0.09303 0.106842,-0.03374 0.219318,-0.06447 0.337401,-0.09258 0.123716,-0.02811 0.247527,-0.05077 0.371227,-0.06766 0.123716,-0.01684 0.239017,-0.02537 0.345859,-0.02537 z m 10.113059,0 h 4.48e-4 c 0.33716,9.8e-5 0.601648,0.106905 0.792756,0.320484 0.191187,0.213684 0.286651,0.565272 0.286651,1.054483 0,0.202436 -0.0086,0.413213 -0.02532,0.632512 -0.01688,0.213683 -0.04763,0.402228 -0.09259,0.565299 -0.101218,0.02248 -0.216527,0.04231 -0.34586,0.0592 -0.123708,0.01126 -0.253186,0.02216 -0.388135,0.03339 -0.129341,0.01126 -0.258372,0.01974 -0.387704,0.02537 -0.123708,0.0056 -0.236183,0.0084 -0.337393,0.0084 0.01128,0.269912 0.05332,0.46696 0.126413,0.590671 0.07873,0.118085 0.219085,0.177156 0.421521,0.177156 0.151822,0 0.301138,-0.01983 0.447344,-0.0592 0.151823,-0.045 0.300699,-0.104076 0.446897,-0.177157 0.02808,0.08434 0.04789,0.188316 0.05918,0.312027 0.01128,0.118084 0.01688,0.224891 0.01688,0.320485 0,0.08435 -0.03118,0.160424 -0.09303,0.2279 -0.06185,0.06185 -0.148825,0.115261 -0.261283,0.160242 -0.106843,0.04501 -0.233479,0.07856 -0.379685,0.101041 -0.146198,0.02248 -0.300742,0.03383 -0.463814,0.03383 -0.191186,0 -0.368401,-0.0279 -0.531473,-0.08413 -0.157455,-0.05623 -0.295436,-0.157808 -0.41351,-0.304015 -0.112467,-0.151823 -0.202272,-0.356929 -0.269742,-0.615597 -0.06184,-0.258665 -0.09259,-0.587581 -0.09259,-0.986824 0,-0.511704 0.03919,-0.922364 0.117954,-1.23164 0.08433,-0.314894 0.193994,-0.5564 0.328943,-0.725096 0.134965,-0.174319 0.292335,-0.289627 0.472272,-0.345856 0.179799,-0.06181 0.368212,-0.09298 0.56485,-0.09303 z m -38.3441788,0.08458 0.1517853,1.214725 c 0.022481,0.17994 0.04231,0.387882 0.059201,0.624055 0.022481,0.230547 0.04231,0.449826 0.059201,0.657882 0.022481,0.241795 0.039037,0.486578 0.050294,0.733999 h 0.016917 c 0.011258,-0.247421 0.028261,-0.492204 0.050742,-0.733999 0.011258,-0.208056 0.025436,-0.427335 0.042284,-0.657882 0.022481,-0.236173 0.044687,-0.444115 0.067211,-0.624055 l 0.1184009,-1.029111 c 0.0056,-0.04501 0.014109,-0.07901 0.025375,-0.101487 0.016891,-0.02811 0.056126,-0.04749 0.1179556,-0.05875 0.061854,-0.01126 0.1573238,-0.01692 0.2866562,-0.01692 0.1349535,-0.0056 0.3235032,-0.0084 0.5652983,-0.0084 l -0.8434969,4.217486 c -0.095594,0.01684 -0.2109026,0.02774 -0.3458562,0.03339 -0.1349536,0.0056 -0.2474266,0.0084 -0.3373986,0.0084 -0.1237111,0 -0.2135116,-0.03923 -0.2697417,-0.117956 -0.056229,-0.08434 -0.098736,-0.185486 -0.1268577,-0.30357 L 6.0694985,43.015906 c -0.016839,-0.06748 -0.022499,-0.120878 -0.016917,-0.160242 0.0056,-0.03937 0.03964,-0.06726 0.1014874,-0.08413 0.067478,-0.01685 0.1742778,-0.02537 0.3204841,-0.02537 0.1462012,-0.0056 0.3541459,-0.0084 0.6240539,-0.0084 z m 16.4813568,0 4.45e-4,4.048786 c 0,0.04501 -0.0057,0.07856 -0.01692,0.101042 -0.01126,0.02248 -0.04811,0.03948 -0.109944,0.05074 -0.05623,0.0056 -0.151696,0.01128 -0.286655,0.01692 H 22.618512 V 43.15122 c 0,-0.101219 0.01418,-0.180127 0.04228,-0.236357 0.02811,-0.05623 0.07584,-0.09546 0.143328,-0.117956 0.0731,-0.02811 0.171406,-0.04511 0.295113,-0.05074 0.123709,-0.0056 0.283917,-0.0084 0.480726,-0.0084 z m -13.368652,0.581768 c -0.112462,0 -0.20554,0.06191 -0.2786428,0.185614 -0.067478,0.11809 -0.101042,0.343035 -0.101042,0.674798 0,0.298028 0.025065,0.503579 0.07567,0.616042 0.050605,0.106842 0.1436858,0.160243 0.2786438,0.160243 0.06185,0 0.115261,-0.01134 0.160242,-0.03383 0.05061,-0.02811 0.08985,-0.07584 0.117957,-0.143327 0.03374,-0.06748 0.05639,-0.160559 0.06766,-0.278643 0.01685,-0.123711 0.02537,-0.281082 0.02537,-0.47227 0,-0.269912 -0.0255,-0.455181 -0.07612,-0.556396 -0.05061,-0.101216 -0.140409,-0.151785 -0.269742,-0.151785 z m 9.160068,0.143773 c -0.04501,0 -0.0899,0.01656 -0.13487,0.05029 -0.03937,0.02811 -0.07338,0.09002 -0.101486,0.185615 -0.02811,0.09559 -0.05032,0.233569 -0.06721,0.413513 -0.01689,0.179941 -0.02537,0.418615 -0.02537,0.71664 0,0.331767 0.0057,0.593554 0.01692,0.784741 0.01689,0.185561 0.03628,0.325932 0.05875,0.421526 0.02811,0.09559 0.06212,0.157497 0.101488,0.185614 0.045,0.02248 0.09274,0.03383 0.143327,0.03383 0.03937,0 0.0786,-0.01134 0.117956,-0.03383 0.03937,-0.02811 0.07338,-0.09001 0.101487,-0.185614 0.02811,-0.101215 0.05032,-0.244422 0.06721,-0.429983 0.02248,-0.191188 0.03383,-0.450139 0.03383,-0.776284 0,-0.303651 -0.0057,-0.545157 -0.01692,-0.725096 -0.0056,-0.179941 -0.02263,-0.317921 -0.05074,-0.413514 -0.02248,-0.09559 -0.05321,-0.157498 -0.09258,-0.185614 -0.03937,-0.02811 -0.08993,-0.04184 -0.151785,-0.04184 z m 6.157307,0 c -0.045,0 -0.09274,0.01091 -0.143327,0.03339 -0.04501,0.02248 -0.08751,0.08155 -0.126859,0.177157 -0.03937,0.09559 -0.07293,0.242072 -0.101041,0.438885 -0.02811,0.191188 -0.04228,0.461037 -0.04228,0.809668 0,0.253043 0.0057,0.460984 0.01692,0.624055 0.01126,0.16307 0.02826,0.295379 0.05074,0.3966 0.02811,0.09559 0.06167,0.162722 0.101042,0.202083 0.03937,0.03937 0.08755,0.0592 0.143773,0.0592 0.112464,0 0.205096,-0.0279 0.278198,-0.08413 V 43.50509 c -0.04501,-0.02811 -0.10407,-0.04184 -0.177156,-0.04184 z m 16.827212,0 c -0.04496,0 -0.0927,0.01091 -0.14333,0.03339 -0.04505,0.02248 -0.08708,0.08155 -0.126412,0.177157 -0.03936,0.09559 -0.07339,0.242072 -0.101485,0.438885 -0.02808,0.191188 -0.04186,0.461037 -0.04186,0.809668 0,0.253043 0.006,0.460984 0.01688,0.624055 0.01128,0.16307 0.02782,0.295379 0.0503,0.3966 0.02808,0.09559 0.06167,0.162722 0.101037,0.202083 0.03936,0.03937 0.08756,0.0592 0.143777,0.0592 0.112459,0 0.205097,-0.0279 0.278192,-0.08413 V 43.50509 c -0.04505,-0.02811 -0.104086,-0.04184 -0.177155,-0.04184 z m 2.960475,0.008 c -0.129332,0 -0.221971,0.09308 -0.2782,0.278643 -0.05625,0.185561 -0.08978,0.472415 -0.101037,0.860412 0.118083,0 0.235778,-0.0057 0.35387,-0.01692 0.118083,-0.01126 0.208327,-0.0311 0.270181,-0.0592 0.0168,-0.0506 0.02817,-0.118182 0.03385,-0.202529 0.006,-0.08997 0.0086,-0.168435 0.0086,-0.235912 0,-0.134953 -0.006,-0.24176 -0.01688,-0.320484 -0.01128,-0.08435 -0.02834,-0.14909 -0.05073,-0.194071 -0.02248,-0.04501 -0.05323,-0.07334 -0.09259,-0.08458 -0.03368,-0.01689 -0.0758,-0.02537 -0.126413,-0.02537 z m -13.090452,0.02537 c -0.07313,0 -0.140676,0.02265 -0.20253,0.06766 -0.05625,0.03937 -0.109624,0.09561 -0.160238,0.1687 v 0.843497 c 0.174313,-0.09559 0.306625,-0.208067 0.396594,-0.337399 0.08998,-0.134958 0.134871,-0.306503 0.134871,-0.514555 0,-0.151829 -0.05625,-0.227901 -0.168697,-0.227901 z M 27.7387,45.79966 c 0.23055,0 0.38792,0.05624 0.472272,0.1687 0.08433,0.112462 0.126413,0.261336 0.126413,0.446898 0,0.16307 -0.0534,0.303437 -0.160247,0.421526 -0.101217,0.118085 -0.247251,0.177156 -0.438438,0.177156 -0.236166,0 -0.396818,-0.05057 -0.481173,-0.151785 -0.07872,-0.106841 -0.117956,-0.255709 -0.117956,-0.446897 0,-0.163071 0.05056,-0.306719 0.151785,-0.430429 0.106836,-0.123707 0.256158,-0.185169 0.447344,-0.185169 z m 12.323071,0 c 0.230542,0 0.38792,0.05624 0.472272,0.1687 0.08433,0.112462 0.126413,0.261336 0.126413,0.446898 0,0.16307 -0.0534,0.303437 -0.160247,0.421526 -0.101217,0.118085 -0.247252,0.177156 -0.438438,0.177156 -0.236175,0 -0.396378,-0.05057 -0.48073,-0.151785 -0.07873,-0.106841 -0.118402,-0.255709 -0.118402,-0.446897 0,-0.163071 0.05056,-0.306719 0.151788,-0.430429 0.106842,-0.123707 0.256158,-0.185169 0.447344,-0.185169 z M 9.9834165,46.811857 c -0.095594,0.07309 -0.174507,0.160068 -0.2363574,0.261284 -0.056229,0.106842 -0.084129,0.222146 -0.084129,0.345856 0,0.106837 0.033567,0.188136 0.1010412,0.244369 0.067478,0.05623 0.196959,0.08458 0.3881427,0.08458 0.10122,0 0.18535,-0.017 0.252827,-0.05074 0.07309,-0.03374 0.129335,-0.07581 0.1687,-0.126413 0.045,-0.05061 0.07618,-0.106844 0.09303,-0.1687 0.01689,-0.05623 0.02538,-0.109629 0.02538,-0.160242 0,-0.06748 -0.0084,-0.123713 -0.02538,-0.168699 -0.01126,-0.04501 -0.04243,-0.08424 -0.09303,-0.117956 -0.04501,-0.03374 -0.114965,-0.06209 -0.210541,-0.08458 -0.08997,-0.02248 -0.21661,-0.04187 -0.3796857,-0.05875 z" /><path
     style="font-weight:bold;font-size:40px;line-height:1.25;font-family:'Yanone Kaffeesatz';-inkscape-font-specification:'Yanone Kaffeesatz Bold';white-space:pre;fill:#e01b24;stroke-width:0.264583"
     d="m 27.807962,31.863352 c 0.07192,0.581753 0.109943,1.25512 0.109943,2.03107 0,1.043502 -0.07959,1.935117 -0.239034,2.674265 -0.136749,0.68376 -0.347141,1.247068 -0.625832,1.698567 h 1.886407 v -6.403902 z"
     id="path8" /><path
     style="font-weight:bold;font-size:40px;line-height:1.25;font-family:'Yanone Kaffeesatz';-inkscape-font-specification:'Yanone Kaffeesatz Bold';white-space:pre;fill:#e01b24;stroke-width:0.264583"
     d="m 32.809296,31.847328 c -0.45408,0.0083 -0.941538,0.01066 -1.434612,0.01246 v 6.407462 h 1.434612 z"
     id="path7" /><path
     style="font-weight:bold;font-size:40px;line-height:1.25;font-family:'Yanone Kaffeesatz';-inkscape-font-specification:'Yanone Kaffeesatz Bold';white-space:pre;fill:#e01b24;stroke-width:0.264583"
     d="m 36.737012,31.592276 c -0.431452,0.04515 -0.917532,0.09017 -1.449306,0.135315 v 6.539663 h 1.915342 c -0.157327,-0.284881 -0.297228,-0.614917 -0.415294,-1.00285 -0.188412,-0.681174 -0.282653,-1.601614 -0.282653,-2.761062 0,-1.115968 0.07227,-2.065236 0.217225,-2.84786 0.0043,-0.02214 0.01008,-0.0413 0.01473,-0.06321 z"
     id="path6" /><path
     style="font-weight:bold;font-size:40px;line-height:1.25;font-family:'Yanone Kaffeesatz';-inkscape-font-specification:'Yanone Kaffeesatz Bold';white-space:pre;fill:#e01b24;stroke-width:0.264583"
     d="m 24.439756,30.438087 c -0.115945,0 -0.232138,0.04346 -0.348082,0.130419 -0.101451,0.07247 -0.188373,0.23168 -0.260839,0.478055 -0.07247,0.246383 -0.13056,0.601833 -0.174041,1.065611 -0.04347,0.463779 -0.06499,1.079549 -0.06499,1.847682 0,0.855091 0.01419,1.528957 0.04318,2.021723 0.04347,0.478272 0.09425,0.840595 0.152229,1.086976 0.07247,0.246384 0.159385,0.406036 0.260839,0.478501 0.115945,0.05797 0.239456,0.0868 0.369892,0.0868 0.101452,0 0.202564,-0.02883 0.304015,-0.0868 0.101452,-0.07247 0.188819,-0.232123 0.261285,-0.478501 0.07247,-0.260875 0.130112,-0.630515 0.173595,-1.108787 0.05797,-0.492765 0.08724,-1.159313 0.08724,-1.999912 0,-0.782627 -0.01462,-1.405714 -0.04362,-1.869492 -0.0145,-0.463779 -0.05796,-0.818782 -0.130419,-1.065166 -0.05797,-0.246382 -0.137572,-0.406036 -0.239028,-0.478501 -0.10145,-0.07247 -0.231833,-0.108608 -0.391258,-0.108608 z"
     id="path5" /><path
     style="font-weight:bold;font-size:40px;line-height:1.25;font-family:'Yanone Kaffeesatz';-inkscape-font-specification:'Yanone Kaffeesatz Bold';white-space:pre;fill:#e01b24;stroke-width:0.264583"
     d="m 24.915141,22.317812 c -0.471883,0.619357 -0.910236,1.19409 -1.414138,1.856139 0.04333,0.09695 0.104309,0.180694 0.186059,0.248821 0.173917,0.144929 0.507414,0.217217 1.000179,0.217217 0.260876,0 0.478181,-0.04346 0.652097,-0.130419 0.188409,-0.08696 0.333427,-0.195387 0.434879,-0.325826 0.115949,-0.130438 0.195554,-0.275455 0.239028,-0.43488 0.04349,-0.144929 0.06499,-0.282631 0.06499,-0.413069 0,-0.173915 -0.02151,-0.318932 -0.06499,-0.434879 -0.02899,-0.115949 -0.108597,-0.217509 -0.239028,-0.30446 -0.11595,-0.08696 -0.297109,-0.159243 -0.543488,-0.217217 -0.08736,-0.02183 -0.201485,-0.04165 -0.315588,-0.06142 z"
     id="path4" /><path
     style="font-weight:bold;font-size:40px;line-height:1.25;font-family:'Yanone Kaffeesatz';-inkscape-font-specification:'Yanone Kaffeesatz Bold';white-space:pre;fill:#e01b24;stroke-width:0.264583"
     d="m 29.511867,1.6732739 c -1.38243,0 -2.72408,0.101606 -4.025195,0.3049053 -1.301117,0.1626395 -2.480191,0.4064939 -3.537348,0.7317728 -1.016496,0.284619 -1.850112,0.6305247 -2.500668,1.0371232 -0.6099,0.4065987 -0.914716,0.853665 -0.914716,1.3415834 0,0.5285782 0.04064,1.2809078 0.121962,2.2567445 0.08132,0.9351772 0.325174,1.850076 0.731773,2.7445929 v -0.06098 c 0.528579,-0.2846201 1.138661,-0.5284756 1.829877,-0.7317733 0.731878,-0.2439597 1.46344,-0.4476158 2.195319,-0.6102559 0.772536,-0.1626375 1.504545,-0.2845648 2.195763,-0.3658861 0.691218,-0.081321 1.280978,-0.1219618 1.768895,-0.1219618 1.097819,0 1.972076,0.2844959 2.622632,0.8537349 0.650555,0.5285771 0.975699,1.3215482 0.975699,2.3787062 0,1.260455 -0.386102,2.581778 -1.158642,3.964214 -0.772541,1.341777 -1.748395,2.785473 -2.927537,4.330546 -0.163269,0.21394 -0.372425,0.489341 -0.540372,0.709518 0.610499,0.162905 1.099993,0.390127 1.467999,0.682364 0.492763,0.391312 0.739335,1.0144 0.739335,1.869492 0,0.536243 -0.07959,1.036266 -0.239026,1.500045 -0.144932,0.478273 -0.38419,0.891373 -0.717526,1.239207 -0.333344,0.347834 -0.760635,0.623235 -1.282385,0.826138 -0.521753,0.202902 -1.152604,0.304459 -1.891749,0.304459 -0.739146,0 -1.340281,-0.07961 -1.804061,-0.239027 -0.27844,-0.08701 -0.515784,-0.19189 -0.721089,-0.310247 -0.617606,0.865146 -1.21703,1.775703 -1.80228,2.721892 0.07065,0.08071 0.120581,0.165565 0.145109,0.255498 0.05797,0.159424 0.08724,0.304441 0.08724,0.434879 0,0.188409 -0.04346,0.391523 -0.130419,0.60892 -0.08696,0.217397 -0.20315,0.40543 -0.348082,0.564854 -0.222164,-0.122191 -0.452964,-0.218219 -0.692157,-0.289326 -0.06612,0.115396 -0.133744,0.227122 -0.199412,0.34363 -0.325279,0.609899 -0.589457,1.138249 -0.792754,1.585508 -0.02604,0.05209 -0.04563,0.10416 -0.07033,0.156236 l 1.102556,1.117245 c 0.217396,0.246382 0.39124,0.47832 0.521677,0.695718 0.144931,0.217396 0.261123,0.427382 0.348082,0.630286 0.08696,0.202903 0.14461,0.420207 0.173596,0.652096 0.02898,0.217397 0.04362,0.463972 0.04362,0.739341 0,0.687199 -0.165925,1.26639 -0.490074,1.742188 h 1.730171 c -0.170987,-0.358614 -0.310037,-0.799118 -0.413959,-1.32912 -0.130438,-0.75364 -0.195852,-1.73905 -0.195852,-2.956469 0,-1.971059 0.311989,-3.398841 0.935192,-4.282918 0.623203,-0.898573 1.514371,-1.347815 2.673819,-1.347815 0.579723,0 1.079745,0.08692 1.500045,0.260839 0.434794,0.159424 0.789799,0.44946 1.065166,0.869759 0.144603,0.220712 0.267925,0.483654 0.372562,0.784297 0.48645,-0.752804 0.97887,-1.470985 1.475122,-2.169947 v -3.571175 c 0,-0.260877 0.02929,-0.463546 0.08724,-0.608476 0.07244,-0.144931 0.195536,-0.246488 0.369452,-0.30446 0.188404,-0.07247 0.441857,-0.115934 0.760705,-0.13042 0.318848,-0.01448 0.725071,-0.02181 1.217843,-0.02181 v 1.433277 c 1.24346,-1.571125 2.375952,-3.072711 3.382444,-4.495684 1.179134,-1.667056 2.154997,-3.313519 2.927538,-4.939911 0.772531,-1.626398 1.158633,-3.354588 1.158633,-5.184281 0,-2.8055312 -0.690918,-4.9401473 -2.073349,-6.4039023 C 35.387519,2.4052823 32.967957,1.6732739 29.511867,1.6732739 Z"
     id="text1-5" /><path
     style="font-weight:bold;font-size:40px;line-height:1.25;font-family:'Yanone Kaffeesatz';-inkscape-font-specification:'Yanone Kaffeesatz Bold';white-space:pre;stroke-width:0.264582"
     d="m 17.656752,28.350989 q 0.913066,0 1.434817,0.152171 0.54349,0.130437 0.804367,0.347835 0.282616,0.195657 0.347835,0.434791 0.08695,0.239137 0.08695,0.434795 0,0.282614 -0.130439,0.60871 -0.130437,0.326095 -0.347834,0.565231 -0.434793,-0.239136 -0.913065,-0.347835 -0.456532,-0.108704 -0.956545,-0.108704 -1.021764,0 -1.021764,0.65219 0,0.173923 0.08695,0.413052 0.1087,0.239137 0.543492,0.673929 l 1.608735,1.630474 q 0.326095,0.369573 0.521751,0.695669 0.217396,0.326094 0.347834,0.630451 0.130439,0.304354 0.173918,0.65219 0.04348,0.326094 0.04348,0.739147 0,1.478297 -1.000023,2.304402 -0.978285,0.826107 -2.652237,0.826107 -0.521753,0 -1.000026,-0.06522 -0.456532,-0.06522 -0.804366,-0.195657 -0.326095,-0.152171 -0.543491,-0.391315 -0.195658,-0.260876 -0.195658,-0.630451 0,-0.260876 0.08695,-0.608708 0.08695,-0.369576 0.304355,-0.76089 0.456533,0.239138 0.934806,0.369575 0.500011,0.108708 0.956545,0.108708 0.56523,0 0.826106,-0.239136 0.282615,-0.260875 0.282615,-0.673928 0,-0.239137 -0.08695,-0.543493 -0.06521,-0.304352 -0.391312,-0.673925 l -1.891346,-2.00004 q -0.56523,-0.608709 -0.804365,-1.217419 -0.239137,-0.60871 -0.239137,-1.086983 0,-0.565229 0.173917,-1.065243 0.195658,-0.500013 0.608711,-0.847847 0.413053,-0.369574 1.086983,-0.565231 0.695668,-0.217395 1.717431,-0.217395 z m 3.260964,5.630569 q 0,-2.956592 0.934805,-4.282709 0.934806,-1.34786 2.673978,-1.34786 0.869585,0 1.500036,0.260876 0.652191,0.239136 1.065242,0.869585 0.413054,0.630451 0.608714,1.695692 0.217397,1.065244 0.217397,2.717458 0,1.565255 -0.239138,2.673977 -0.217398,1.086981 -0.673931,1.782652 -0.434793,0.673929 -1.108722,1.000023 -0.67393,0.304355 -1.543515,0.304355 -0.891326,0 -1.543516,-0.217396 -0.630449,-0.195657 -1.065243,-0.782626 -0.413053,-0.608712 -0.63045,-1.717435 -0.195657,-1.130462 -0.195657,-2.956592 z m 2.673977,-0.02172 q 0,1.282638 0.04349,2.021788 0.06521,0.717409 0.152177,1.086981 0.108694,0.369575 0.260875,0.478274 0.173918,0.08695 0.369573,0.08695 0.152179,0 0.304357,-0.08695 0.152176,-0.108707 0.260875,-0.478274 0.108695,-0.391313 0.173919,-1.108722 0.08695,-0.739148 0.08695,-2.000047 0,-1.173941 -0.04349,-1.869609 -0.02175,-0.695669 -0.130437,-1.065245 -0.08695,-0.369573 -0.239138,-0.47827 -0.152175,-0.108709 -0.391313,-0.108709 -0.173917,0 -0.347833,0.130438 -0.152178,0.108709 -0.260876,0.478272 -0.108696,0.369574 -0.173918,1.065242 -0.06521,0.695669 -0.06521,1.847871 z m 7.782793,5.043599 q 0,0.173923 -0.0435,0.260876 -0.0435,0.08695 -0.282611,0.130437 -0.217397,0.02172 -0.717413,0.04348 -0.478267,0 -1.391337,0 V 24.524823 q 0,-0.391315 0.08695,-0.608711 0.108712,-0.217396 0.369582,-0.304355 0.28261,-0.108709 0.760886,-0.130437 0.478267,-0.02172 1.217421,-0.02172 z m 3.913133,0 q 0,0.173923 -0.0435,0.260876 -0.0435,0.08695 -0.282619,0.130437 -0.217397,0.02172 -0.739145,0.04348 -0.500017,0 -1.413078,0 v -9.804584 q 0,-0.391314 0.108711,-0.608711 0.108703,-0.217396 0.369573,-0.304354 0.28261,-0.10871 0.760886,-0.130437 0.478267,-0.02172 1.239162,-0.02172 z M 32.91799,25.394403 q 0,-0.760889 0.30436,-1.217422 0.326091,-0.478272 1.021764,-0.478272 0.673924,0 0.913062,0.347834 0.239138,0.347834 0.239138,1.239161 0,0.891326 -0.347832,1.391336 -0.326101,0.478273 -0.956543,0.478273 -0.543498,0 -0.869589,-0.369572 -0.30436,-0.369578 -0.30436,-1.391338 z m 7.848025,5.152297 q -0.173925,-0.108709 -0.456535,-0.108709 -0.173925,0 -0.369573,0.08695 -0.173925,0.08695 -0.326092,0.456532 -0.152175,0.369574 -0.260878,1.130461 -0.108712,0.739149 -0.108712,2.087007 0,0.978284 0.0435,1.608735 0.0435,0.63045 0.130435,1.021764 0.108711,0.369572 0.260878,0.521751 0.152167,0.152171 0.369573,0.152171 0.434794,0 0.717413,-0.217395 z m 0,-6.021885 q 0,-0.391313 0.08695,-0.60871 0.108712,-0.217396 0.369573,-0.304356 0.260879,-0.108709 0.739146,-0.130437 0.478275,-0.02172 1.239161,-0.02172 v 15.543851 q -0.565229,0.239137 -1.347856,0.434793 -0.760886,0.217397 -1.826131,0.217397 -0.695665,0 -1.326116,-0.152171 -0.630451,-0.152171 -1.130467,-0.69567 -0.478267,-0.54349 -0.782627,-1.543515 -0.28261,-1.021763 -0.28261,-2.760936 0,-1.673955 0.217397,-2.847892 0.239129,-1.173943 0.630442,-1.891351 0.413054,-0.73915 0.956543,-1.065244 0.543498,-0.347834 1.173949,-0.347834 0.434794,0 0.760886,0.108708 0.326091,0.108708 0.521748,0.282615 z"
     id="text1-2"
     aria-label="solid" /><path
     style="font-weight:bold;font-size:40px;line-height:1.25;font-family:'Yanone Kaffeesatz';-inkscape-font-specification:'Yanone Kaffeesatz Bold';white-space:pre;stroke-width:0.264582"
     d="m 11.01277,11.509334 q 0.913065,0 1.434816,0.152176 0.543492,0.130439 0.804369,0.347835 0.282615,0.195658 0.347833,0.434793 0.08696,0.239137 0.08696,0.434793 0,0.282615 -0.130439,0.60871 -0.130436,0.326095 -0.347834,0.565231 -0.434791,-0.239135 -0.913064,-0.347833 -0.456532,-0.1087 -0.956545,-0.1087 -1.021763,0 -1.021763,0.65219 0,0.173918 0.08695,0.413053 0.108699,0.239136 0.543491,0.673931 l 1.608734,1.630472 q 0.326095,0.369576 0.521753,0.69567 0.217396,0.326096 0.347834,0.63045 0.130439,0.304354 0.173919,0.65219 0.04348,0.326096 0.04348,0.739146 0,1.478298 -1.000026,2.304404 -0.978285,0.826107 -2.6522374,0.826107 -0.5217517,0 -1.0000239,-0.06521 Q 8.5344459,22.683532 8.1866112,22.553084 7.8605162,22.400912 7.6431198,22.16177 7.4474631,21.900895 7.4474631,21.531319 q 0,-0.260875 0.086957,-0.608709 0.086957,-0.369576 0.3043553,-0.760889 0.4565325,0.239138 0.9348047,0.369574 0.500012,0.108709 0.9565436,0.108709 0.5652323,0 0.8261093,-0.239137 0.282614,-0.260876 0.282614,-0.673929 0,-0.239137 -0.08695,-0.543493 -0.06521,-0.304355 -0.391315,-0.67393 L 8.4692303,16.509448 Q 7.904,15.900738 7.6648639,15.292027 7.4257278,14.683318 7.4257278,14.205045 q 0,-0.565231 0.1739178,-1.065243 0.1956567,-0.500013 0.6087097,-0.847846 0.4130531,-0.369575 1.0869828,-0.565232 0.6956678,-0.217395 1.7174319,-0.217395 z m 3.152267,0.934805 q -0.06523,-0.260876 -0.04348,-0.413054 0.02173,-0.152177 0.260877,-0.217397 0.260875,-0.06521 0.826106,-0.06521 0.565231,-0.02175 1.608734,-0.02175 l 0.391315,3.130509 q 0.08695,0.69567 0.152177,1.608736 0.08695,0.891324 0.152177,1.695691 0.08695,0.934806 0.130437,1.891351 h 0.04348 q 0.04349,-0.956545 0.130436,-1.891351 0.04348,-0.804367 0.108695,-1.695691 0.08695,-0.913066 0.173918,-1.608736 L 18.404263,12.205 q 0.02175,-0.173918 0.06522,-0.260875 0.06521,-0.108699 0.304355,-0.152178 0.239136,-0.04348 0.739148,-0.04348 0.521751,-0.02173 1.456556,-0.02173 l -2.17396,10.869827 q -0.369576,0.06521 -0.891327,0.08695 -0.521752,0.02172 -0.869587,0.02172 -0.478271,0 -0.695669,-0.304354 -0.217404,-0.32609 -0.326101,-0.782623 z m 10.782856,-0.934805 q 0.52175,0 1.086984,0.195657 h 2.587013 q 0.108712,0.195657 0.173925,0.500012 0.08695,0.282615 0.08695,0.695668 0,0.478273 -0.217398,0.695669 -0.217388,0.195657 -0.543489,0.195657 -0.108711,0 -0.217397,0 -0.108711,-0.02173 -0.239129,-0.04348 0.239129,0.369575 0.369564,0.847848 0.152176,0.47827 0.152176,1.108721 0,1.760912 -0.826109,2.652238 -0.804366,0.891324 -2.695717,0.891324 -0.173923,0 -0.304357,0 -0.130436,0 -0.282613,-0.02172 -0.260876,0.369576 -0.260876,0.608711 0,0.260874 0.543489,0.304355 0.543492,0.02172 1.326119,0.152171 1.39134,0.239137 2.130491,0.826107 0.739145,0.58697 0.739145,1.869611 0,0.804365 -0.239137,1.500036 -0.217398,0.717408 -0.717405,1.23916 -0.500014,0.521751 -1.282642,0.826106 -0.782629,0.304355 -1.89135,0.304355 -1.108722,0 -1.804391,-0.239137 -0.695668,-0.217395 -1.086984,-0.565229 -0.369574,-0.347837 -0.500011,-0.782628 -0.130437,-0.434795 -0.130437,-0.847846 0,-0.760888 0.391314,-1.39134 0.413052,-0.608707 1.065242,-1.06524 -0.565229,-0.173926 -0.891323,-0.478271 -0.304356,-0.304356 -0.260877,-0.760889 0.02172,-0.456532 0.326094,-0.956545 0.326096,-0.500012 1.021762,-1.065243 -0.695666,-0.478274 -1.000022,-1.282643 -0.282615,-0.826106 -0.282615,-1.86961 0,-1.152202 0.239135,-1.934829 0.260875,-0.782628 0.739149,-1.23916 0.478272,-0.478273 1.152201,-0.67393 0.695669,-0.195657 1.543516,-0.195657 z m -0.108695,1.717432 q -0.434793,0 -0.717409,0.478273 -0.260875,0.456532 -0.260875,1.739172 0,1.152202 0.195655,1.586993 0.195658,0.413055 0.717409,0.413055 0.239137,0 0.413055,-0.08695 0.195658,-0.108708 0.304354,-0.369572 0.130437,-0.260876 0.173925,-0.717409 0.06521,-0.478273 0.06521,-1.217421 0,-1.043502 -0.195658,-1.434817 -0.195656,-0.391313 -0.695668,-0.391313 z m 1.239161,10.108937 q 0,-0.260873 -0.06521,-0.434793 -0.04349,-0.173924 -0.239136,-0.304353 -0.173925,-0.130437 -0.543494,-0.217398 -0.347833,-0.08695 -0.978284,-0.152171 -0.369573,0.282616 -0.60871,0.673928 -0.217395,0.413055 -0.217395,0.891327 0,0.413053 0.260876,0.630452 0.260875,0.217395 1.000023,0.217395 0.391314,0 0.652188,-0.130436 0.282617,-0.130437 0.434796,-0.326095 0.173922,-0.195657 0.239133,-0.434794 0.06523,-0.217396 0.06523,-0.413052 z"
     id="text1"
     aria-label="svg" /><path
     style="font-weight:bold;font-size:12.2835px;line-height:1.25;font-family:'Yanone Kaffeesatz';-inkscape-font-specification:'Yanone Kaffeesatz Bold';white-space:pre;stroke-width:0.264583"
     d="m 4.8466482,42.65333 q 0.3542605,0 0.5566917,0.05905 0.210869,0.05061 0.3120851,0.134952 0.1096547,0.07591 0.1349587,0.168695 0.033722,0.09278 0.033722,0.168694 0,0.109655 -0.050613,0.236173 -0.050613,0.12652 -0.1349578,0.219303 -0.1686946,-0.09278 -0.3542536,-0.134958 -0.1771341,-0.04216 -0.3711327,-0.04216 -0.3964289,0 -0.3964289,0.253038 0,0.0675 0.033722,0.160262 0.042155,0.09278 0.210869,0.261478 l 0.624171,0.632603 q 0.1265192,0.14339 0.2024313,0.269909 0.084344,0.12652 0.1349578,0.244607 0.050613,0.118087 0.067504,0.253045 0.016891,0.126519 0.016891,0.286781 0,0.573556 -0.3879971,0.894081 -0.3795644,0.320518 -1.0290326,0.320518 -0.2024372,0 -0.3880031,-0.02527 -0.1771264,-0.02534 -0.3120851,-0.07592 -0.1265192,-0.05906 -0.210863,-0.151824 -0.075911,-0.101222 -0.075911,-0.244613 0,-0.101215 0.033722,-0.236167 0.033722,-0.143389 0.1180866,-0.29522 0.1771272,0.09278 0.3626939,0.143391 0.1939977,0.04216 0.3711249,0.04216 0.2193026,0 0.3205238,-0.09278 0.1096478,-0.101214 0.1096478,-0.261477 0,-0.09278 -0.033722,-0.210863 -0.025341,-0.118087 -0.1518292,-0.261478 l -0.733818,-0.775993 q -0.2193026,-0.236174 -0.312086,-0.472348 -0.092783,-0.236173 -0.092783,-0.42174 0,-0.219302 0.067504,-0.4133 0.075911,-0.194 0.2361739,-0.328951 0.1602559,-0.14339 0.4217329,-0.219301 0.2699175,-0.08434 0.6663464,-0.08434 z m 1.2230441,0.362693 q -0.025263,-0.101216 -0.016891,-0.160262 0.00844,-0.05905 0.1012152,-0.08434 0.1012152,-0.02527 0.3205247,-0.02527 0.2193017,-0.0084 0.6241641,-0.0084 l 0.1518292,1.214597 q 0.033722,0.269911 0.059055,0.624171 0.033722,0.345822 0.059054,0.657907 0.033722,0.362693 0.050613,0.733826 h 0.016891 q 0.016891,-0.371133 0.050613,-0.733826 0.016891,-0.312085 0.042163,-0.657907 0.033722,-0.35426 0.067504,-0.624171 L 7.7145149,42.92331 q 0.00844,-0.0675 0.025341,-0.101216 0.025341,-0.04216 0.1180865,-0.05906 0.092783,-0.01689 0.2867811,-0.01689 0.2024312,-0.0084 0.5651243,-0.0084 l -0.8434736,4.217365 q -0.1433905,0.02526 -0.3458209,0.03372 -0.2024312,0.0084 -0.3373891,0.0084 -0.1855659,0 -0.2699106,-0.118087 -0.084344,-0.12652 -0.1265261,-0.303646 z M 10.253314,42.65333 q 0.202431,0 0.421734,0.07591 h 1.003734 q 0.04216,0.07592 0.0675,0.193999 0.03372,0.109654 0.03372,0.26991 0,0.185566 -0.08434,0.269917 -0.08434,0.07592 -0.210863,0.07592 -0.04216,0 -0.08434,0 -0.04216,-0.0084 -0.09278,-0.01689 0.09278,0.143392 0.14339,0.328958 0.05905,0.185559 0.05905,0.430172 0,0.683211 -0.320525,1.029032 -0.312078,0.345829 -1.045903,0.345829 -0.0675,0 -0.118086,0 -0.050613,0 -0.1096489,-0.0084 -0.1012221,0.143391 -0.1012221,0.236174 0,0.101215 0.210871,0.118087 0.210869,0.0084 0.514522,0.05905 0.53982,0.09278 0.826602,0.320525 0.286781,0.227735 0.286781,0.725386 0,0.312085 -0.09278,0.581996 -0.08434,0.278349 -0.278349,0.480779 -0.193999,0.202431 -0.497644,0.320517 -0.303654,0.118089 -0.733826,0.118089 -0.4301717,0 -0.7000823,-0.09278 Q 9.080919,48.43117 8.9290958,48.296208 8.7857053,48.161256 8.7350981,47.992562 q -0.050613,-0.168695 -0.050613,-0.328957 0,-0.295214 0.1518232,-0.539821 Q 8.996561,46.887567 9.2496062,46.710434 9.0303045,46.64293 8.9037845,46.524874 8.785698,46.406788 8.8025624,46.229655 8.8110037,46.052527 8.9290885,45.858529 9.0556077,45.66453 9.3255183,45.445228 9.0556077,45.259663 8.9375203,44.947577 8.8278656,44.627059 8.8278656,44.222191 q 0,-0.447037 0.092783,-0.750691 0.1012221,-0.303653 0.286782,-0.480779 0.1855659,-0.185566 0.4470429,-0.261478 0.2699106,-0.07592 0.5988675,-0.07592 z m -0.04216,0.666346 q -0.168695,0 -0.2783486,0.185558 -0.101216,0.177135 -0.101216,0.67478 0,0.447043 0.075911,0.615738 0.075911,0.160263 0.2783486,0.160263 0.09278,0 0.160256,-0.03372 0.07592,-0.04216 0.118086,-0.143392 0.05061,-0.101214 0.06751,-0.278341 0.02527,-0.185566 0.02527,-0.472348 0,-0.404869 -0.07592,-0.556692 -0.07591,-0.151823 -0.26991,-0.151823 z m 0.48078,3.922144 q 0,-0.101216 -0.02534,-0.168695 -0.01689,-0.0675 -0.09278,-0.118079 -0.0675,-0.05061 -0.210869,-0.08434 -0.134952,-0.03372 -0.3795644,-0.05905 -0.1433914,0.109647 -0.2361671,0.26147 -0.084344,0.160263 -0.084344,0.345828 0,0.160256 0.1012152,0.244606 0.1012221,0.08434 0.3879973,0.08434 0.15183,0 0.253045,-0.05061 0.109648,-0.05061 0.168695,-0.126519 0.0675,-0.07591 0.09278,-0.168695 0.02534,-0.08434 0.02534,-0.160263 z m 1.577291,-4.183622 q -0.08434,-0.185566 -0.101215,-0.379564 -0.01689,-0.202431 -0.01689,-0.312085 0,-0.101215 0.126526,-0.185566 0.134952,-0.08434 0.345821,-0.143385 0.219302,-0.0675 0.489213,-0.101222 0.26991,-0.04216 0.556691,-0.04216 0.716953,0 1.003735,0.303646 0.286781,0.303653 0.286781,0.885648 0,0.379565 -0.160262,0.716954 -0.160255,0.337389 -0.404868,0.683211 -0.244606,0.345821 -0.556692,0.733818 -0.303645,0.379564 -0.590427,0.851912 h 0.624171 q 0.261477,0 0.47234,-0.0084 0.219302,-0.01689 0.371133,-0.03372 0.177126,-0.02526 0.312085,-0.05061 0,0.295213 -0.0084,0.489211 0,0.185567 -0.02527,0.295222 -0.01689,0.109647 -0.0675,0.151822 -0.04215,0.04216 -0.118087,0.04216 h -2.783464 q -0.02534,-0.07591 -0.03372,-0.160262 0,-0.08434 0,-0.101216 0,-0.109654 0.0084,-0.193997 0.0084,-0.09278 0.03371,-0.168696 0.02534,-0.08434 0.0675,-0.168693 0.04216,-0.09278 0.109654,-0.219303 0.261478,-0.463915 0.556692,-0.843473 0.295214,-0.388004 0.53982,-0.708522 0.244606,-0.320516 0.404868,-0.598867 0.160262,-0.286781 0.160262,-0.548252 0,-0.219308 -0.134958,-0.328956 -0.134951,-0.118087 -0.362693,-0.118087 -0.101215,0 -0.244606,0.01689 -0.143391,0.01689 -0.303653,0.05061 -0.151823,0.03372 -0.303646,0.08434 -0.143391,0.04216 -0.253045,0.101222 z m 4.470403,-0.404868 q 0.354261,0 0.556692,0.05905 0.21087,0.05061 0.312085,0.134952 0.109655,0.07591 0.134959,0.168695 0.03372,0.09278 0.03372,0.168694 0,0.109655 -0.05061,0.236173 -0.05061,0.12652 -0.134951,0.219303 -0.168694,-0.09278 -0.354261,-0.134958 -0.177126,-0.04216 -0.371133,-0.04216 -0.396428,0 -0.396428,0.253038 0,0.0675 0.03372,0.160262 0.04216,0.09278 0.210869,0.261478 l 0.624171,0.632603 q 0.12652,0.14339 0.202431,0.269909 0.08434,0.12652 0.134958,0.244607 0.05061,0.118087 0.0675,0.253045 0.01689,0.126519 0.01689,0.286781 0,0.573556 -0.388004,0.894081 -0.379558,0.320518 -1.029032,0.320518 -0.202438,0 -0.387997,-0.02527 -0.177134,-0.02534 -0.312086,-0.07592 -0.126518,-0.05906 -0.210869,-0.151824 -0.07591,-0.101222 -0.07591,-0.244613 0,-0.101215 0.03372,-0.236167 0.03372,-0.143389 0.118087,-0.29522 0.177135,0.09278 0.362694,0.143391 0.193997,0.04216 0.371132,0.04216 0.219302,0 0.320518,-0.09278 0.109647,-0.101214 0.109647,-0.261477 0,-0.09278 -0.03372,-0.210863 -0.02527,-0.118087 -0.151822,-0.261478 l -0.733826,-0.775993 q -0.219303,-0.236174 -0.312085,-0.472348 -0.09278,-0.236173 -0.09278,-0.42174 0,-0.219302 0.06751,-0.4133 0.07591,-0.194 0.236173,-0.328951 0.160263,-0.14339 0.42174,-0.219301 0.26991,-0.08434 0.66634,-0.08434 z m 1.26522,2.184597 q 0,-1.147126 0.362693,-1.661642 0.362694,-0.522955 1.037472,-0.522955 0.337389,0 0.581995,0.101215 0.253039,0.09278 0.413301,0.337389 0.160262,0.244607 0.236174,0.657914 0.08434,0.413301 0.08434,1.054336 0,0.607306 -0.09277,1.037472 -0.08434,0.42174 -0.261478,0.69165 -0.168696,0.261477 -0.430173,0.387996 -0.261478,0.118087 -0.598867,0.118087 -0.345821,0 -0.598867,-0.08434 -0.244606,-0.07591 -0.4133,-0.303652 -0.160262,-0.236175 -0.244607,-0.666347 -0.07591,-0.438605 -0.07591,-1.147119 z m 1.037472,-0.0084 q 0,0.497652 0.01689,0.784433 0.02534,0.278342 0.05905,0.421733 0.04216,0.143391 0.101216,0.185567 0.06751,0.03372 0.143391,0.03372 0.05905,0 0.118086,-0.03372 0.05905,-0.04216 0.101216,-0.185567 0.04216,-0.151823 0.06751,-0.430165 0.03372,-0.286782 0.03372,-0.776001 0,-0.455477 -0.01689,-0.725386 -0.0084,-0.26991 -0.05061,-0.413301 -0.03372,-0.14339 -0.09278,-0.185565 -0.05905,-0.04216 -0.151829,-0.04216 -0.0675,0 -0.134952,0.05061 -0.05905,0.04216 -0.101216,0.18556 -0.04216,0.14339 -0.0675,0.413307 -0.02534,0.269911 -0.02534,0.716947 z m 3.01963,1.956863 q 0,0.0675 -0.01689,0.101216 -0.01689,0.03372 -0.109649,0.05061 -0.08434,0.0084 -0.278349,0.01689 -0.185566,0 -0.53982,0 v -5.786202 q 0,-0.151822 0.03372,-0.236166 0.04216,-0.08434 0.143391,-0.118086 0.109655,-0.04216 0.295214,-0.05061 0.185566,-0.0084 0.472348,-0.0084 z m 1.518245,0 q 0,0.0675 -0.01689,0.101216 -0.01689,0.03372 -0.109648,0.05061 -0.08434,0.0084 -0.286782,0.01689 -0.193998,0 -0.548258,0 v -3.804064 q 0,-0.151829 0.04216,-0.236174 0.04216,-0.08434 0.14339,-0.118086 0.109655,-0.04216 0.295215,-0.05061 0.185565,-0.0084 0.480778,-0.0084 z m -0.919381,-5.280183 q 0,-0.295214 0.118086,-0.472341 0.12652,-0.185567 0.39643,-0.185567 0.261478,0 0.354261,0.13496 0.09278,0.134951 0.09278,0.480779 0,0.345821 -0.134959,0.53982 -0.126519,0.185566 -0.371126,0.185566 -0.210869,0 -0.337389,-0.143391 -0.118086,-0.143389 -0.118086,-0.539826 z m 3.044941,1.999031 q -0.0675,-0.04216 -0.177133,-0.04216 -0.0675,0 -0.143384,0.03372 -0.0675,0.03372 -0.126526,0.177126 -0.05905,0.143391 -0.101215,0.438612 -0.04216,0.286782 -0.04216,0.80973 0,0.379564 0.01689,0.624171 0.01689,0.244605 0.05061,0.396435 0.04216,0.143391 0.101215,0.202432 0.05906,0.05905 0.14339,0.05905 0.168695,0 0.27835,-0.08434 z m 0,-2.33642 q 0,-0.151823 0.03372,-0.236168 0.04216,-0.08434 0.143391,-0.118087 0.101216,-0.04216 0.286782,-0.05061 0.185566,-0.0084 0.480777,-0.0084 v 6.030837 q -0.219299,0.09278 -0.522953,0.168695 -0.295213,0.08434 -0.708515,0.08434 -0.269909,0 -0.514516,-0.05905 -0.244612,-0.05905 -0.438611,-0.269917 -0.185559,-0.210863 -0.303646,-0.598861 -0.109654,-0.396436 -0.109654,-1.071214 0,-0.649475 0.08434,-1.104951 0.09278,-0.455475 0.244604,-0.733818 0.160264,-0.286782 0.371127,-0.413301 0.210869,-0.134958 0.455476,-0.134958 0.168694,0 0.295213,0.04216 0.126526,0.04216 0.202438,0.109648 z m 1.433895,5.246403 q 0,-0.244607 0.151831,-0.430172 0.160255,-0.185559 0.447033,-0.185559 0.345825,0 0.472349,0.168695 0.126525,0.168694 0.126525,0.447036 0,0.244607 -0.160255,0.42174 -0.151831,0.177127 -0.438619,0.177127 -0.354248,0 -0.480781,-0.151823 -0.118083,-0.160262 -0.118083,-0.447044 z m 1.67007,-3.382324 q 0.21931,-0.151823 0.514522,-0.261478 0.303653,-0.118086 0.657919,-0.118086 0.345817,0 0.455467,0.101215 0.109651,0.101215 0.109651,0.320525 0,0.08434 -0.01688,0.236167 -0.01688,0.151829 -0.07597,0.312085 -0.09278,-0.04216 -0.168697,-0.05061 -0.07588,-0.01689 -0.143389,-0.01689 -0.07589,0 -0.177121,0.03372 -0.101226,0.03372 -0.18557,0.101215 l -0.0086,3.09555 q 0,0.0675 -0.01688,0.101214 -0.01688,0.03372 -0.109642,0.05061 -0.08433,0.0084 -0.278355,0.01689 -0.193986,0 -0.556685,0 z m 2.100258,-1.864079 q 0,-0.151823 0.03376,-0.236168 0.04212,-0.08434 0.151822,-0.118087 0.109651,-0.04216 0.286788,-0.05061 0.185562,-0.0084 0.480774,-0.0084 v 2.13399 q 0.168696,-0.09278 0.396438,-0.160263 0.227734,-0.07592 0.497648,-0.07592 0.210868,0 0.345816,0.0675 0.14339,0.0675 0.21931,0.168695 0.07588,0.101216 0.101218,0.227735 0.03376,0.126526 0.03376,0.253045 0,0.236174 -0.05056,0.438605 -0.05056,0.20243 -0.126516,0.362693 -0.06753,0.160262 -0.15183,0.278349 -0.08433,0.118087 -0.160264,0.193998 0.32896,0.244607 0.463917,0.666339 0.134957,0.42174 0.143389,0.927824 0,0.286782 -0.02532,0.573563 -0.0086,0.05061 -0.03377,0.08434 -0.01688,0.02534 -0.118084,0.04216 -0.101217,0.0084 -0.320527,0.01689 -0.210859,0 -0.607289,0 0.01688,-0.21931 0.02532,-0.430173 0.01688,-0.219302 0.01688,-0.42174 0,-0.489211 -0.09278,-0.767561 -0.08433,-0.286781 -0.32896,-0.244606 -0.09279,0.02534 -0.168696,0.0675 -0.03368,0.02527 -0.05909,0.05061 v 1.577298 q 0,0.0675 -0.01688,0.101215 -0.0086,0.03372 -0.101218,0.05061 -0.08433,0.0084 -0.278355,0.01689 -0.193986,0 -0.556676,0 z m 1.484518,2.555729 q 0,-0.227742 -0.168696,-0.227742 -0.10965,0 -0.202435,0.0675 -0.08433,0.05906 -0.160255,0.168695 v 0.843472 q 0.261472,-0.14339 0.396429,-0.337389 0.134957,-0.202437 0.134957,-0.514516 z m 1.6279,-0.792866 q 0.101209,-0.05061 0.25304,-0.09278 0.160264,-0.05061 0.337384,-0.09278 0.18557,-0.04216 0.371123,-0.0675 0.18557,-0.02526 0.345834,-0.02526 0.320519,0 0.548252,0.05061 0.227734,0.05061 0.371123,0.177135 0.151831,0.126518 0.219301,0.337389 0.07597,0.210863 0.07597,0.522947 v 3.044942 q 0,0.06751 -0.01688,0.101216 -0.01688,0.03372 -0.118083,0.05061 -0.09278,0.0084 -0.295221,0.01689 -0.194002,0 -0.54826,0 v -2.918422 q 0,-0.32895 -0.05056,-0.447037 -0.05056,-0.126519 -0.227742,-0.126519 -0.185553,0 -0.32051,0.101215 v 3.222069 q 0,0.06751 -0.01688,0.101215 -0.01688,0.03372 -0.109651,0.05061 -0.08433,0.0084 -0.278347,0.01689 -0.194002,0 -0.539819,0 z M 37.37098,43.53898 H 36.8649 q 0,-0.269909 0,-0.430171 0.0086,-0.160262 0.02532,-0.236173 0.01688,-0.08434 0.05909,-0.109648 0.04212,-0.02526 0.109659,-0.02526 h 0.312077 V 41.51469 q 0,-0.109654 0.04212,-0.168694 0.04221,-0.05905 0.143398,-0.08434 0.109642,-0.03372 0.286762,-0.03372 0.18557,-0.0084 0.472358,-0.0084 v 1.518252 h 0.691651 q 0,0.26991 -0.0086,0.430166 0,0.160262 -0.01688,0.244612 -0.01688,0.08434 -0.05909,0.109647 -0.03377,0.01689 -0.101218,0.01689 h -0.50608 v 2.294245 q 0,0.14339 0.02532,0.27835 0.02524,0.126518 0.177129,0.126518 0.210869,0 0.438602,-0.109655 0.01688,0.09278 0.03376,0.202439 0.02524,0.109647 0.02524,0.253038 0,0.151823 -0.07588,0.244606 -0.07597,0.08434 -0.194003,0.134958 -0.109651,0.05061 -0.244599,0.05906 -0.134957,0.01689 -0.253049,0.01689 -0.278338,0 -0.455476,-0.08434 -0.168687,-0.07591 -0.261472,-0.227741 -0.09278,-0.151824 -0.126525,-0.371126 -0.03377,-0.227741 -0.03377,-0.506083 z m 2.091808,2.876241 q 0,-0.244607 0.151831,-0.430172 0.160264,-0.185559 0.447043,-0.185559 0.345817,0 0.472341,0.168695 0.126516,0.168694 0.126516,0.447036 0,0.244607 -0.160255,0.42174 -0.151822,0.177127 -0.438602,0.177127 -0.354258,0 -0.480782,-0.151823 -0.118092,-0.160262 -0.118092,-0.447044 z m 3.070247,-2.909983 q -0.06753,-0.04216 -0.177138,-0.04216 -0.06744,0 -0.14339,0.03372 -0.06753,0.03372 -0.126515,0.177126 -0.05909,0.143391 -0.101218,0.438612 -0.04212,0.286782 -0.04212,0.80973 0,0.379564 0.01688,0.624171 0.01688,0.244605 0.05056,0.396435 0.04212,0.143391 0.101209,0.202432 0.05909,0.05905 0.143398,0.05905 0.168696,0 0.278347,-0.08434 z m 0,-2.33642 q 0,-0.151823 0.03368,-0.236168 0.04212,-0.08434 0.143389,-0.118087 0.101218,-0.04216 0.28678,-0.05061 0.18557,-0.0084 0.48079,-0.0084 v 6.030837 q -0.219309,0.09278 -0.522962,0.168695 -0.295212,0.08434 -0.708507,0.08434 -0.269914,0 -0.51453,-0.05905 -0.244608,-0.05905 -0.438602,-0.269917 -0.18557,-0.210863 -0.303645,-0.598861 -0.109659,-0.396436 -0.109659,-1.071214 0,-0.649475 0.08433,-1.104951 0.09277,-0.455475 0.244599,-0.733818 0.160263,-0.286782 0.371123,-0.413301 0.210877,-0.134958 0.455484,-0.134958 0.168696,0 0.295212,0.04216 0.126524,0.04216 0.202436,0.109648 z M 45.443,42.653333 q 0.50608,0 0.792868,0.320518 0.28678,0.320524 0.28678,1.054342 0,0.303654 -0.02524,0.632603 -0.02532,0.320525 -0.09278,0.565131 -0.151831,0.03372 -0.345825,0.05906 -0.185562,0.01689 -0.387989,0.03372 -0.194003,0.01689 -0.387997,0.02534 -0.18557,0.0084 -0.337393,0.0084 0.01688,0.404868 0.126516,0.590435 0.118083,0.177127 0.421737,0.177127 0.227733,0 0.447043,-0.05906 0.227733,-0.0675 0.447034,-0.177125 0.04212,0.126518 0.05909,0.312085 0.01688,0.177126 0.01688,0.320518 0,0.126526 -0.09278,0.22774 -0.09279,0.09278 -0.261481,0.160256 -0.160264,0.0675 -0.379574,0.101222 -0.219292,0.03372 -0.463899,0.03372 -0.28678,0 -0.531387,-0.08434 -0.236183,-0.08434 -0.413304,-0.303653 -0.168696,-0.227735 -0.269905,-0.615738 -0.09279,-0.387998 -0.09279,-0.986864 0,-0.767554 0.118092,-1.23147 0.126524,-0.472341 0.328951,-0.725386 0.202444,-0.261478 0.47235,-0.345822 0.269914,-0.09278 0.565117,-0.09278 z m -0.126516,0.818169 q -0.194002,0 -0.278346,0.278349 -0.08433,0.278342 -0.101218,0.860338 0.177129,0 0.354258,-0.01689 0.177129,-0.01689 0.269914,-0.05906 0.02524,-0.07591 0.03376,-0.20243 0.0086,-0.134959 0.0086,-0.236174 0,-0.20243 -0.01688,-0.320518 -0.01688,-0.126526 -0.05056,-0.193998 -0.03377,-0.06751 -0.09278,-0.08434 -0.05056,-0.02534 -0.126524,-0.02534 z"
     id="text2"
     aria-label="svg2solid.rknt.de" /></svg>
